{
.appVersion = "3246";
.formatVersion = 3;
axes = (
{
name = Weight;
tag = wght;
}
);
classes = (
{
automatic = 1;

glyphs = (
{
color = 3;
glyphname = Aogonek;
kernLeft = UC_A;
kernRight = UC_A;
layers = (
{
anchors = (
{
name = bottom;
pos = (320,0);
},
{
name = ogonek;
pos = (587,10);
},
{
name = top;
pos = (419,705);
}
);
color = 3;
layerId = "B953D09C-6DD0-450A-A78C-8C2188DD4016";
shapes = (
{
closed = 1;
nodes = (
(41,-3,o),
(103,0,o),
(124,0,cs),
(240,0,l),
(255,71,l),
(137,84,l),
(196,33,l),
(198,58,o),
(199,90,o),
(209,115,cs),
(427,608,l),
(366,590,l),
(423,129,ls),
(426,105,o),
(421,77,o),
(402,-5,c),
(503,0,l),
(639,0,l),
(653,71,l),
(537,82,l),
(611,46,l),
(604,61,o),
(593,98,o),
(587,128,cs),
(477,716,l),
(363,705,l),
(102,161,ls),
(87,129,o),
(47,71,o),
(33,52,c),
(110,85,l),
(5,65,l),
(0,-5,l)
);
},
{
closed = 1;
nodes = (
(445,179,l),
(432,263,l),
(249,261,l),
(214,179,l)
);
},
{
pos = (315,10);
ref = ogonekcomb;
}
);
width = 703;
},
{
anchors = (
{
name = bottom;
pos = (313,0);
},
{
name = ogonek;
pos = (574,10);
},
{
name = top;
pos = (412,705);
}
);
layerId = "3088057A-3552-44D5-8A67-1301E2609A93";
shapes = (
{
closed = 1;
nodes = (
(45,-3,o),
(109,0,o),
(133,0,cs),
(215,0,l),
(226,52,l),
(126,68,l),
(155,43,l),
(158,68,o),
(175,120,o),
(184,139,cs),
(384,575,l),
(375,576,l),
(455,171,ls),
(461,137,o),
(464,62,o),
(471,-5,c),
(528,0,l),
(623,0,l),
(634,52,l),
(543,69,l),
(584,41,l),
(579,53,o),
(557,119,o),
(553,138,cs),
(429,715,l),
(374,705,l),
(128,168,ls),
(111,131,o),
(67,55,o),
(59,44,c),
(101,69,l),
(4,42,l),
(1,-5,l)
);
},
{
closed = 1;
nodes = (
(452,237,l),
(449,288,l),
(235,284,l),
(214,237,l)
);
},
{
alignment = -1;
pos = (344,0);
ref = ogonekcomb;
}
);
width = 688.7;
}
);
unicode = 260;
},
{
color = 6;
glyphname = AE;
kernLeft = UC_A;
kernRight = UC_E;
layers = (
{
anchors = (
{
name = bottom;
pos = (605,0);
},
{
name = top;
pos = (706,720);
}
);
color = 6;
layerId = "B953D09C-6DD0-450A-A78C-8C2188DD4016";
shapes = (
{
closed = 1;
nodes = (
(43,-3,o),
(105,0,o),
(127,0,cs),
(235,0,l),
(249,67,l),
(144,80,l),
(189,35,l),
(195,60,o),
(205,95,o),
(219,120,cs),
(510,601,l),
(459,587,l),
(449,138,ls),
(448,109,o),
(435,67,o),
(429,44,c),
(495,85,l),
(369,61,l),
(363,-5,l),
(412,-3,o),
(480,0,o),
(510,0,cs),
(636,0,l),
(608,45,l),
(604,57,o),
(598,101,o),
(597,130,cs),
(579,705,l),
(476,705,l),
(130,162,ls),
(109,129,o),
(57,66,o),
(43,50,c),
(117,81,l),
(5,60,l),
(1,-5,l)
);
},
{
closed = 1;
nodes = (
(479,192,l),
(486,269,l),
(281,266,l),
(247,192,l)
);
},
{
closed = 1;
nodes = (
(729,0,ls),
(755,0,o),
(803,0,o),
(844,0,c),
(860,14,l),
(899,184,l),
(835,189,l),
(830,172,o),
(819,140,o),
(814,129,cs),
(808,114,o),
(785,78,o),
(755,44,c),
(812,93,l),
(796,89,o),
(753,80,o),
(711,80,cs),
(516,80,l),
(516,0,l)
);
},
{
closed = 1;
nodes = (
(796,257,l),
(802,323,o),
(813,392,o),
(825,463,c),
(768,468,l),
(733,346,l),
(804,408,l),
(772,403,o),
(715,395,o),
(702,395,cs),
(504,395,l),
(504,319,l),
(672,319,ls),
(691,319,o),
(748,313,o),
(793,308,c),
(737,369,l),
(736,251,l)
);
},
{
closed = 1;
nodes = (
(901,546,l),
(916,692,l),
(900,710,l),
(861,708,o),
(814,705,o),
(788,705,cs),
(489,705,l),
(489,630,l),
(748,630,ls),
(779,630,o),
(839,625,o),
(878,622,c),
(809,679,l),
(818,652,o),
(832,601,o),
(832,590,cs),
(832,575,o),
(833,557,o),
(833,541,c)
);
}
);
width = 951;
},
{
anchors = (
{
name = bottom;
pos = (578,0);
},
{
name = top;
pos = (679,720);
}
);
layerId = "3088057A-3552-44D5-8A67-1301E2609A93";
shapes = (
{
closed = 1;
nodes = (
(45,-3,o),
(108,0,o),
(133,0,cs),
(215,0,l),
(227,53,l),
(135,68,l),
(160,43,l),
(168,68,o),
(193,119,o),
(206,139,cs),
(483,576,l),
(472,576,l),
(481,170,ls),
(482,132,o),
(470,56,o),
(468,33,c),
(506,73,l),
(390,42,l),
(386,-5,l),
(433,-3,o),
(501,0,o),
(528,0,cs),
(623,0,l),
(588,41,l),
(585,54,o),
(576,119,o),
(575,138,cs),
(552,705,l),
(494,705,l),
(154,168,ls),
(128,126,o),
(74,57,o),
(63,45,c),
(110,69,l),
(4,42,l),
(1,-5,l)
);
},
{
closed = 1;
nodes = (
(489,236,l),
(494,288,l),
(282,284,l),
(251,236,l)
);
},
{
closed = 1;
nodes = (
(704,0,ls),
(731,0,o),
(781,0,o),
(818,0,c),
(835,14,l),
(872,163,l),
(820,168,l),
(815,152,o),
(801,116,o),
(794,100,cs),
(788,87,o),
(767,62,o),
(753,44,c),
(783,67,l),
(765,63,o),
(720,55,o),
(682,55,cs),
(527,55,l),
(527,0,l)
);
},
{
closed = 1;
nodes = (
(771,261,l),
(777,316,o),
(788,380,o),
(801,453,c),
(757,458,l),
(725,356,l),
(770,393,l),
(739,389,o),
(688,383,o),
(677,383,cs),
(506,383,l),
(506,329,l),
(650,329,ls),
(667,329,o),
(725,324,o),
(761,320,c),
(729,357,l),
(724,255,l)
);
},
{
closed = 1;
nodes = (
(879,561,l),
(892,691,l),
(876,709,l),
(839,707,o),
(780,704,o),
(764,704,cs),
(508,705,l),
(508,651,l),
(727,650,ls),
(741,650,o),
(814,644,o),
(830,643,c),
(787,675,l),
(802,653,o),
(819,623,o),
(820,611,cs),
(821,603,o),
(822,572,o),
(823,556,c)
);
}
);
width = 925.7;
}
);
unicode = 198;
},
{
color = 6;
glyphname = B;
kernLeft = UC_Stem;
kernRight = UC_B;
layers = (
{
anchors = (
{
name = bottom;
pos = (286,0);
},
{
name = top;
pos = (385,705);
}
);
color = 6;
layerId = "B953D09C-6DD0-450A-A78C-8C2188DD4016";
shapes = (
{
closed = 1;
nodes = (
(59,-3,o),
(127,0,o),
(156,0,cs),
(199,0,o),
(281,-5,o),
(323,-5,cs),
(460,-5,o),
(583,69,o),
(583,213,cs),
(583,313,o),
(503,366,o),
(393,367,c),
(429,308,l),
(446,426,l),
(398,365,l),
(510,373,o),
(605,455,o),
(605,562,cs),
(605,657,o),
(515,710,o),
(409,710,cs),
(366,710,o),
(276,705,o),
(234,705,cs),
(215,705,o),
(155,708,o),
(115,710,c),
(100,640,l),
(220,618,l),
(164,660,l),
(164,644,o),
(165,583,o),
(157,526,cs),
(103,156,ls),
(98,124,o),
(81,66,o),
(73,41,c),
(138,83,l),
(14,60,l),
(10,-5,l)
);
},
{
closed = 1;
nodes = (
(234,65,o),
(240,139,o),
(247,187,cs),
(298,541,ls),
(303,574,o),
(320,636,o),
(326,659,c),
(293,631,l),
(306,632,o),
(350,635,o),
(378,635,cs),
(434,635,o),
(470,596,o),
(470,546,cs),
(470,456,o),
(411,404,o),
(337,404,cs),
(331,404,l),
(313,324,l),
(323,324,ls),
(387,324,o),
(443,296,o),
(443,220,cs),
(443,128,o),
(381,71,o),
(298,71,cs),
(271,71,o),
(224,74,o),
(212,76,c),
(234,56,l)
);
}
);
width = 638;
},
{
anchors = (
{
name = bottom;
pos = (268,0);
},
{
name = top;
pos = (365,705);
}
);
layerId = "3088057A-3552-44D5-8A67-1301E2609A93";
shapes = (
{
closed = 1;
nodes = (
(54,-3,o),
(118,0,o),
(143,0,cs),
(194,0,o),
(262,-5,o),
(313,-5,cs),
(437,-5,o),
(537,80,o),
(537,208,cs),
(537,304,o),
(466,361,o),
(366,366,c),
(387,329,l),
(398,404,l),
(369,365,l),
(474,380,o),
(559,458,o),
(559,566,cs),
(559,656,o),
(477,710,o),
(384,710,cs),
(344,710,o),
(269,705,o),
(230,705,cs),
(212,705,o),
(153,708,o),
(115,710,c),
(102,658,l),
(210,640,l),
(177,678,l),
(176,651,o),
(176,589,o),
(174,572,cs),
(110,135,ls),
(107,116,o),
(89,55,o),
(82,31,c),
(125,67,l),
(11,44,l),
(9,-5,l)
);
},
{
closed = 1;
nodes = (
(189,53,o),
(196,131,o),
(201,165,cs),
(255,538,ls),
(261,577,o),
(278,647,o),
(282,667,c),
(253,652,l),
(296,655,o),
(336,658,o),
(368,658,cs),
(430,658,o),
(469,616,o),
(469,554,cs),
(469,451,o),
(391,393,o),
(301,393,cs),
(294,393,l),
(279,338,l),
(290,338,ls),
(373,338,o),
(440,298,o),
(440,211,cs),
(440,109,o),
(372,51,o),
(283,51,cs),
(238,51,o),
(200,56,o),
(174,60,c),
(191,34,l)
);
}
);
width = 596.2;
}
);
unicode = 66;
},
{
color = 6;
glyphname = C;
kernLeft = UC_Round;
kernRight = UC_C;
layers = (
{
anchors = (
{
name = bottom;
pos = (322,0);
},
{
name = top;
pos = (456,720);
}
);
color = 6;
layerId = "B953D09C-6DD0-450A-A78C-8C2188DD4016";
shapes = (
{
closed = 1;
nodes = (
(434,-15,o),
(503,3,o),
(569,19,c),
(585,186,l),
(515,184,l),
(513,173,o),
(510,155,o),
(505,135,cs),
(501,120,o),
(474,65,o),
(459,35,c),
(539,94,l),
(479,81,o),
(414,69,o),
(360,69,cs),
(263,69,o),
(220,160,o),
(220,279,cs),
(220,451,o),
(285,636,o),
(441,636,cs),
(494,636,o),
(551,623,o),
(606,612,c),
(543,675,l),
(548,642,o),
(557,589,o),
(556,576,cs),
(550,519,l),
(620,515,l),
(657,686,l),
(596,702,o),
(535,720,o),
(452,720,cs),
(197,720,o),
(60,532,o),
(60,286,cs),
(60,107,o),
(159,-15,o),
(352,-15,cs)
);
}
);
width = 660;
},
{
anchors = (
{
name = bottom;
pos = (307,0);
},
{
name = top;
pos = (448,720);
}
);
layerId = "3088057A-3552-44D5-8A67-1301E2609A93";
shapes = (
{
closed = 1;
nodes = (
(413,-15,o),
(474,3,o),
(538,19,c),
(554,168,l),
(497,166,l),
(495,153,o),
(492,135,o),
(489,120,cs),
(483,101,o),
(467,61,o),
(455,31,c),
(501,69,l),
(447,55,o),
(396,40,o),
(341,40,cs),
(226,40,o),
(162,146,o),
(162,283,cs),
(162,483,o),
(255,665,o),
(423,665,cs),
(475,665,o),
(526,648,o),
(576,634,c),
(540,675,l),
(543,646,o),
(548,600,o),
(546,590,cs),
(539,544,l),
(596,540,l),
(626,686,l),
(567,702,o),
(511,720,o),
(431,720,cs),
(194,720,o),
(64,529,o),
(64,281,cs),
(64,105,o),
(160,-15,o),
(334,-15,cs)
);
}
);
width = 629.2;
}
);
unicode = 67;
},
{
color = 6;
glyphname = D;
kernLeft = UC_Stem;
kernRight = UC_Round;
layers = (
{
anchors = (
{
name = bottom;
pos = (298,0);
},
{
name = center;
pos = (220,353);
},
{
name = top;
pos = (406,720);
}
);
color = 6;
layerId = "B953D09C-6DD0-450A-A78C-8C2188DD4016";
shapes = (
{
closed = 1;
nodes = (
(52,-3,o),
(128,0,o),
(156,0,cs),
(215,0,o),
(253,-5,o),
(311,-5,cs),
(564,-5,o),
(704,175,o),
(704,416,cs),
(704,590,o),
(601,710,o),
(406,710,cs),
(363,710,o),
(279,705,o),
(234,705,cs),
(212,705,o),
(153,708,o),
(115,710,c),
(100,640,l),
(220,618,l),
(168,684,l),
(165,639,o),
(162,559,o),
(157,526,cs),
(103,156,ls),
(99,129,o),
(82,68,o),
(72,36,c),
(138,83,l),
(14,60,l),
(10,-5,l)
);
},
{
closed = 1;
nodes = (
(234,82,o),
(240,136,o),
(247,186,cs),
(298,541,ls),
(302,567,o),
(319,635,o),
(330,681,c),
(264,629,l),
(301,631,o),
(349,633,o),
(390,633,cs),
(509,633,o),
(555,536,o),
(555,420,cs),
(555,255,o),
(497,72,o),
(308,72,cs),
(280,72,o),
(210,76,o),
(187,78,c),
(234,55,l)
);
}
);
width = 738;
},
{
anchors = (
{
name = bottom;
pos = (295,0);
},
{
name = center;
pos = (193,353);
},
{
name = top;
pos = (384,720);
}
);
layerId = "3088057A-3552-44D5-8A67-1301E2609A93";
shapes = (
{
closed = 1;
nodes = (
(45,-3,o),
(118,0,o),
(143,0,cs),
(191,0,o),
(246,-5,o),
(296,-5,cs),
(532,-5,o),
(678,171,o),
(678,418,cs),
(678,596,o),
(569,710,o),
(380,710,cs),
(340,710,o),
(269,705,o),
(230,705,cs),
(201,705,o),
(145,708,o),
(115,710,c),
(102,658,l),
(210,640,l),
(176,675,l),
(176,663,o),
(176,591,o),
(174,572,cs),
(110,135,ls),
(106,108,o),
(90,60,o),
(83,34,c),
(125,67,l),
(11,44,l),
(9,-5,l)
);
},
{
closed = 1;
nodes = (
(189,42,o),
(196,129,o),
(201,165,cs),
(255,538,ls),
(260,575,o),
(278,646,o),
(282,662,c),
(253,648,l),
(301,652,o),
(359,652,o),
(383,652,cs),
(522,652,o),
(584,544,o),
(584,411,cs),
(584,223,o),
(495,52,o),
(306,52,cs),
(268,52,o),
(180,55,o),
(163,56,c),
(190,29,l)
);
}
);
width = 714.9;
}
);
unicode = 68;
},
{
color = 6;
glyphname = E;
kernLeft = UC_Stem;
kernRight = UC_E;
layers = (
{
anchors = (
{
name = bottom;
pos = (269,0);
},
{
name = ogonek;
pos = (492,0);
},
{
name = top;
pos = (370,720);
},
{
name = topleft;
pos = (97,705);
}
);
color = 6;
layerId = "B953D09C-6DD0-450A-A78C-8C2188DD4016";
shapes = (
{
closed = 1;
nodes = (
(65,-2,o),
(127,0,o),
(156,0,cs),
(376,0,ls),
(403,0,o),
(451,0,o),
(492,0,c),
(507,14,l),
(547,184,l),
(482,189,l),
(478,173,o),
(467,141,o),
(462,130,cs),
(456,116,o),
(433,79,o),
(402,44,c),
(460,93,l),
(443,89,o),
(402,80,o),
(359,80,cs),
(180,80,l),
(234,49,l),
(234,64,o),
(240,138,o),
(247,186,cs),
(275,377,l),
(211,322,l),
(333,322,ls),
(352,322,o),
(413,315,o),
(453,310,c),
(397,372,l),
(396,254,l),
(456,260,l),
(463,330,o),
(472,387,o),
(485,466,c),
(428,471,l),
(393,349,l),
(464,411,l),
(417,403,o),
(374,397,o),
(363,397,cs),
(221,397,l),
(269,342,l),
(299,541,ls),
(303,569,o),
(321,642,o),
(326,664,c),
(261,630,l),
(426,630,ls),
(457,630,o),
(520,625,o),
(556,623,c),
(486,679,l),
(496,652,o),
(510,601,o),
(510,591,cs),
(510,576,o),
(511,557,o),
(511,541,c),
(578,546,l),
(594,692,l),
(578,710,l),
(540,708,o),
(493,705,o),
(466,705,cs),
(234,705,ls),
(203,705,o),
(155,708,o),
(115,710,c),
(100,640,l),
(220,618,l),
(166,657,l),
(166,645,o),
(162,560,o),
(157,526,cs),
(103,156,ls),
(99,129,o),
(80,62,o),
(71,39,c),
(138,83,l),
(14,60,l),
(10,-5,l)
);
}
);
width = 607;
},
{
anchors = (
{
name = bottom;
pos = (259,0);
},
{
name = ogonek;
pos = (467,0);
},
{
name = top;
pos = (360,720);
},
{
name = topleft;
pos = (94,705);
}
);
layerId = "3088057A-3552-44D5-8A67-1301E2609A93";
shapes = (
{
closed = 1;
nodes = (
(53,-3,o),
(111,0,o),
(143,0,cs),
(353,0,ls),
(380,0,o),
(430,0,o),
(467,0,c),
(484,14,l),
(521,163,l),
(469,168,l),
(464,152,o),
(451,116,o),
(443,100,cs),
(437,86,o),
(417,61,o),
(402,44,c),
(433,67,l),
(414,63,o),
(369,55,o),
(332,55,cs),
(158,55,l),
(190,20,l),
(190,50,o),
(196,133,o),
(201,165,cs),
(231,374,l),
(192,340,l),
(320,340,ls),
(337,340,o),
(394,335,o),
(431,331,c),
(399,368,l),
(394,266,l),
(441,272,l),
(447,327,o),
(458,391,o),
(471,464,c),
(427,469,l),
(395,367,l),
(440,403,l),
(410,400,o),
(358,394,o),
(347,394,cs),
(200,394,l),
(229,360,l),
(255,538,ls),
(260,573,o),
(280,657,o),
(284,675,c),
(245,651,l),
(406,651,ls),
(420,651,o),
(491,646,o),
(509,644,c),
(466,676,l),
(481,654,o),
(498,624,o),
(499,612,cs),
(500,604,o),
(501,574,o),
(502,558,c),
(558,563,l),
(571,692,l),
(555,710,l),
(518,708,o),
(459,705,o),
(443,705,cs),
(230,705,ls),
(213,705,o),
(153,708,o),
(115,710,c),
(102,658,l),
(210,640,l),
(176,666,l),
(176,653,o),
(176,591,o),
(174,572,cs),
(110,135,ls),
(107,116,o),
(87,46,o),
(81,23,c),
(125,67,l),
(11,44,l),
(9,-5,l)
);
}
);
width = 583.9;
}
);
unicode = 69;
},
{
color = 6;
glyphname = F;
kernLeft = UC_Stem;
kernRight = UC_F;
layers = (
{
anchors = (
{
name = bottom;
pos = (251,0);
},
{
name = top;
pos = (352,720);
}
);
color = 6;
layerId = "B953D09C-6DD0-450A-A78C-8C2188DD4016";
shapes = (
{
closed = 1;
nodes = (
(59,-3,o),
(127,0,o),
(156,0,cs),
(293,0,l),
(308,66,l),
(182,79,l),
(238,31,l),
(238,63,o),
(238,126,o),
(247,186,cs),
(275,377,l),
(209,312,l),
(331,312,ls),
(351,312,o),
(411,305,o),
(451,300,c),
(396,362,l),
(394,244,l),
(454,250,l),
(461,317,o),
(471,383,o),
(484,456,c),
(427,461,l),
(392,339,l),
(463,401,l),
(427,395,o),
(374,387,o),
(361,387,cs),
(220,387,l),
(269,342,l),
(298,541,ls),
(302,570,o),
(321,642,o),
(326,664,c),
(261,630,l),
(426,630,ls),
(457,630,o),
(520,625,o),
(556,623,c),
(486,679,l),
(496,652,o),
(510,601,o),
(510,591,cs),
(510,576,o),
(511,557,o),
(511,541,c),
(578,546,l),
(594,692,l),
(578,710,l),
(540,708,o),
(493,705,o),
(466,705,cs),
(234,705,ls),
(203,705,o),
(155,708,o),
(115,710,c),
(100,640,l),
(220,618,l),
(166,657,l),
(166,645,o),
(162,560,o),
(157,526,cs),
(103,156,ls),
(99,130,o),
(84,75,o),
(72,42,c),
(138,83,l),
(14,60,l),
(10,-5,l)
);
}
);
width = 579;
},
{
anchors = (
{
name = bottom;
pos = (241,0);
},
{
name = top;
pos = (342,720);
}
);
layerId = "3088057A-3552-44D5-8A67-1301E2609A93";
shapes = (
{
closed = 1;
nodes = (
(54,-3,o),
(118,0,o),
(143,0,cs),
(275,0,l),
(289,53,l),
(158,63,l),
(191,31,l),
(191,54,o),
(196,134,o),
(201,165,cs),
(231,374,l),
(189,330,l),
(317,330,ls),
(333,330,o),
(391,325,o),
(428,321,c),
(396,358,l),
(391,256,l),
(438,262,l),
(443,317,o),
(455,381,o),
(468,454,c),
(424,459,l),
(392,357,l),
(437,393,l),
(406,390,o),
(354,384,o),
(343,384,cs),
(197,384,l),
(229,360,l),
(255,538,ls),
(260,573,o),
(280,657,o),
(284,675,c),
(245,651,l),
(406,651,ls),
(420,651,o),
(491,646,o),
(509,644,c),
(466,676,l),
(481,654,o),
(498,624,o),
(499,612,cs),
(500,604,o),
(501,574,o),
(502,558,c),
(558,563,l),
(571,692,l),
(555,710,l),
(518,708,o),
(459,705,o),
(443,705,cs),
(230,705,ls),
(213,705,o),
(153,708,o),
(115,710,c),
(102,658,l),
(210,640,l),
(176,666,l),
(176,653,o),
(176,591,o),
(174,572,cs),
(110,135,ls),
(107,116,o),
(88,53,o),
(82,32,c),
(125,67,l),
(11,44,l),
(9,-5,l)
);
}
);
width = 558.1;
}
);
unicode = 70;
},
{
color = 6;
glyphname = Fhook;
kernLeft = UC_J;
kernRight = UC_F;
layers = (
{
color = 6;
layerId = "B953D09C-6DD0-450A-A78C-8C2188DD4016";
shapes = (
{
closed = 1;
nodes = (
(75,-202,o),
(187,-122,o),
(204,-3,cs),
(258,377,l),
(192,312,l),
(314,312,ls),
(334,312,o),
(394,305,o),
(434,300,c),
(379,362,l),
(377,244,l),
(437,250,l),
(444,317,o),
(454,383,o),
(467,456,c),
(410,461,l),
(375,339,l),
(446,401,l),
(410,395,o),
(357,387,o),
(344,387,cs),
(203,387,l),
(252,342,l),
(281,541,ls),
(285,570,o),
(304,642,o),
(309,664,c),
(244,630,l),
(409,630,ls),
(440,630,o),
(503,625,o),
(539,623,c),
(469,679,l),
(479,652,o),
(493,601,o),
(493,591,cs),
(493,576,o),
(494,557,o),
(494,541,c),
(561,546,l),
(577,692,l),
(561,710,l),
(523,708,o),
(476,705,o),
(449,705,cs),
(217,705,ls),
(186,705,o),
(138,708,o),
(98,710,c),
(83,640,l),
(203,618,l),
(149,657,l),
(149,645,o),
(145,560,o),
(140,526,cs),
(67,23,ls),
(55,-58,o),
(26,-109,o),
(-22,-109,c),
(-39,-189,l)
);
}
);
width = 562;
},
{
layerId = "3088057A-3552-44D5-8A67-1301E2609A93";
shapes = (
{
closed = 1;
nodes = (
(61,-193,o),
(134,-133,o),
(155,6,cs),
(210,374,l),
(168,330,l),
(295,330,ls),
(312,330,o),
(370,325,o),
(407,321,c),
(375,358,l),
(369,256,l),
(416,262,l),
(422,317,o),
(433,381,o),
(446,454,c),
(402,459,l),
(371,357,l),
(415,393,l),
(385,390,o),
(333,384,o),
(322,384,cs),
(176,384,l),
(208,360,l),
(234,538,ls),
(239,573,o),
(259,657,o),
(263,675,c),
(223,651,l),
(385,651,ls),
(398,651,o),
(470,646,o),
(487,644,c),
(445,676,l),
(459,654,o),
(477,624,o),
(478,612,cs),
(479,604,o),
(480,574,o),
(481,558,c),
(537,563,l),
(550,692,l),
(534,710,l),
(497,708,o),
(438,705,o),
(422,705,cs),
(208,705,ls),
(192,705,o),
(131,708,o),
(94,710,c),
(81,658,l),
(189,640,l),
(155,666,l),
(155,653,o),
(155,591,o),
(152,572,cs),
(70,11,ls),
(57,-81,o),
(23,-144,o),
(-62,-144,c),
(-68,-195,l)
);
}
);
width = 537;
}
);
metricRight = F;
unicode = 401;
},
{
color = 6;
glyphname = G;
kernLeft = UC_Round;
kernRight = UP_G;
layers = (
{
anchors = (
{
name = bottom;
pos = (383,0);
},
{
name = center;
pos = (533,181);
},
{
name = top;
pos = (459,720);
}
);
color = 6;
layerId = "B953D09C-6DD0-450A-A78C-8C2188DD4016";
shapes = (
{
closed = 1;
nodes = (
(455,-15,o),
(530,2,o),
(597,19,c),
(622,189,ls),
(626,217,o),
(640,281,o),
(651,336,c),
(629,359,l),
(591,357,o),
(540,356,o),
(525,356,cs),
(417,356,l),
(400,268,l),
(558,255,l),
(501,316,l),
(504,239,o),
(503,209,o),
(502,196,cs),
(477,26,l),
(519,88,l),
(478,79,o),
(424,69,o),
(376,69,cs),
(267,69,o),
(220,163,o),
(220,284,cs),
(220,460,o),
(291,636,o),
(457,636,cs),
(506,636,o),
(562,626,o),
(614,609,c),
(572,648,l),
(576,630,o),
(584,588,o),
(583,576,cs),
(577,519,l),
(648,515,l),
(684,686,l),
(623,702,o),
(550,720,o),
(467,720,cs),
(202,720,o),
(60,534,o),
(60,289,cs),
(60,108,o),
(164,-15,o),
(367,-15,cs)
);
}
);
width = 706;
},
{
anchors = (
{
name = bottom;
pos = (351,0);
},
{
name = center;
pos = (511,181);
},
{
name = top;
pos = (444,720);
}
);
layerId = "3088057A-3552-44D5-8A67-1301E2609A93";
shapes = (
{
closed = 1;
nodes = (
(433,-15,o),
(498,3,o),
(566,19,c),
(587,164,ls),
(590,184,o),
(608,267,o),
(618,317,c),
(604,334,l),
(581,333,o),
(550,331,o),
(536,331,cs),
(428,331,l),
(415,276,l),
(550,265,l),
(516,302,l),
(517,281,o),
(518,207,o),
(516,196,cs),
(489,29,l),
(515,69,l),
(469,55,o),
(402,40,o),
(355,40,cs),
(227,40,o),
(160,148,o),
(160,287,cs),
(160,486,o),
(257,665,o),
(435,665,cs),
(484,665,o),
(547,649,o),
(590,633,c),
(565,667,l),
(571,643,o),
(575,601,o),
(574,590,cs),
(568,547,l),
(623,540,l),
(654,686,l),
(592,702,o),
(531,720,o),
(446,720,cs),
(199,720,o),
(63,531,o),
(63,284,cs),
(63,106,o),
(164,-15,o),
(349,-15,cs)
);
}
);
width = 675.2;
}
);
unicode = 71;
},
{
color = 3;
glyphname = Gstroke;
kernLeft = UC_Round;
kernRight = UC_G;
layers = (
{
anchors = (
{
name = bottom;
pos = (383,0);
},
{
name = center;
pos = (533,181);
},
{
name = top;
pos = (459,720);
}
);
color = 3;
layerId = "B953D09C-6DD0-450A-A78C-8C2188DD4016";
shapes = (
{
closed = 1;
nodes = (
(455,-15,o),
(530,2,o),
(597,19,c),
(625,209,ls),
(629,237,o),
(643,301,o),
(654,356,c),
(632,379,l),
(594,377,o),
(543,376,o),
(528,376,cs),
(420,376,l),
(404,288,l),
(558,275,l),
(501,316,l),
(504,239,o),
(503,209,o),
(502,196,cs),
(477,26,l),
(519,88,l),
(478,79,o),
(424,69,o),
(376,69,cs),
(267,69,o),
(220,163,o),
(220,284,cs),
(220,460,o),
(291,636,o),
(457,636,cs),
(506,636,o),
(562,626,o),
(614,609,c),
(572,648,l),
(576,630,o),
(584,588,o),
(583,576,cs),
(577,519,l),
(648,515,l),
(684,686,l),
(623,702,o),
(550,720,o),
(467,720,cs),
(202,720,o),
(60,534,o),
(60,289,cs),
(60,108,o),
(164,-15,o),
(367,-15,cs)
);
},
{
pos = (225,-408);
ref = barcomp;
}
);
width = 734;
},
{
anchors = (
{
name = bottom;
pos = (351,0);
},
{
name = center;
pos = (511,181);
},
{
name = top;
pos = (444,720);
}
);
layerId = "3088057A-3552-44D5-8A67-1301E2609A93";
shapes = (
{
closed = 1;
nodes = (
(433,-15,o),
(498,3,o),
(566,19,c),
(587,162,ls),
(589,182,o),
(608,265,o),
(618,315,c),
(603,332,l),
(581,331,o),
(550,329,o),
(536,329,cs),
(428,329,l),
(415,274,l),
(550,263,l),
(516,302,l),
(517,281,o),
(518,207,o),
(516,196,cs),
(489,29,l),
(515,69,l),
(469,55,o),
(402,40,o),
(355,40,cs),
(227,40,o),
(160,148,o),
(160,287,cs),
(160,486,o),
(257,665,o),
(435,665,cs),
(484,665,o),
(547,649,o),
(590,633,c),
(565,667,l),
(571,643,o),
(575,601,o),
(574,590,cs),
(568,547,l),
(623,540,l),
(654,686,l),
(592,702,o),
(531,720,o),
(446,720,cs),
(199,720,o),
(63,531,o),
(63,284,cs),
(63,106,o),
(164,-15,o),
(349,-15,cs)
);
},
{
alignment = -1;
pos = (269,-426);
ref = barcomp;
}
);
width = 731.8;
}
);
unicode = 484;
},
{
color = 6;
glyphname = H;
kernLeft = UC_Stem;
kernRight = UC_Stem;
layers = (
{
anchors = (
{
name = bottom;
pos = (361,0);
},
{
name = center;
pos = (433,520);
},
{
name = top;
pos = (462,720);
},
{
name = topleft;
pos = (97,705);
}
);
color = 6;
layerId = "B953D09C-6DD0-450A-A78C-8C2188DD4016";
shapes = (
{
closed = 1;
nodes = (
(476,-3,o),
(545,0,o),
(574,0,cs),
(708,0,l),
(723,66,l),
(599,79,l),
(656,39,l),
(655,62,o),
(656,132,o),
(664,186,cs),
(715,541,ls),
(720,575,o),
(741,645,o),
(747,666,c),
(681,623,l),
(804,635,l),
(810,710,l),
(757,708,o),
(695,705,o),
(651,705,cs),
(632,705,o),
(572,708,o),
(533,710,c),
(517,640,l),
(637,618,l),
(581,666,l),
(581,640,o),
(582,575,o),
(575,526,cs),
(520,156,ls),
(517,134,o),
(499,71,o),
(492,47,c),
(556,83,l),
(432,60,l),
(427,-5,l)
);
},
{
closed = 1;
nodes = (
(59,-3,o),
(127,0,o),
(156,0,cs),
(291,0,l),
(305,66,l),
(182,79,l),
(238,39,l),
(238,59,o),
(239,130,o),
(247,186,cs),
(298,541,ls),
(303,574,o),
(322,639,o),
(329,666,c),
(263,623,l),
(387,635,l),
(393,710,l),
(340,708,o),
(277,705,o),
(234,705,cs),
(215,705,o),
(155,708,o),
(115,710,c),
(100,640,l),
(220,618,l),
(164,666,l),
(164,641,o),
(164,573,o),
(157,526,cs),
(103,156,ls),
(99,130,o),
(82,73,o),
(75,47,c),
(138,83,l),
(14,60,l),
(10,-5,l)
);
},
{
closed = 1;
nodes = (
(568,308,l),
(580,391,l),
(251,386,l),
(240,308,l)
);
}
);
width = 796;
},
{
anchors = (
{
name = bottom;
pos = (340,0);
},
{
name = center;
pos = (413,520);
},
{
name = top;
pos = (441,720);
},
{
name = topleft;
pos = (94,705);
}
);
layerId = "3088057A-3552-44D5-8A67-1301E2609A93";
shapes = (
{
closed = 1;
nodes = (
(462,-3,o),
(526,0,o),
(551,0,cs),
(673,0,l),
(687,53,l),
(566,63,l),
(600,27,l),
(598,59,o),
(604,130,o),
(609,165,cs),
(663,538,ls),
(669,579,o),
(687,656,o),
(694,681,c),
(651,643,l),
(762,653,l),
(767,710,l),
(724,708,o),
(671,705,o),
(638,705,cs),
(620,705,o),
(561,708,o),
(523,710,c),
(510,658,l),
(618,640,l),
(584,681,l),
(585,658,o),
(584,589,o),
(582,572,cs),
(518,135,ls),
(515,115,o),
(496,49,o),
(489,22,c),
(533,67,l),
(419,44,l),
(417,-5,l)
);
},
{
closed = 1;
nodes = (
(54,-3,o),
(118,0,o),
(143,0,cs),
(265,0,l),
(279,53,l),
(158,63,l),
(192,27,l),
(190,59,o),
(196,130,o),
(201,165,cs),
(255,538,ls),
(261,580,o),
(279,657,o),
(286,681,c),
(243,643,l),
(354,653,l),
(359,710,l),
(316,708,o),
(263,705,o),
(230,705,cs),
(212,705,o),
(153,708,o),
(115,710,c),
(102,658,l),
(210,640,l),
(176,681,l),
(177,658,o),
(176,590,o),
(174,572,cs),
(110,135,ls),
(107,116,o),
(88,49,o),
(81,22,c),
(125,67,l),
(11,44,l),
(9,-5,l)
);
},
{
closed = 1;
nodes = (
(571,329,l),
(579,382,l),
(206,377,l),
(198,329,l)
);
}
);
width = 753.1;
}
);
unicode = 72;
},
{
color = 6;
glyphname = I;
kernLeft = UC_Stem;
kernRight = UC_Stem;
layers = (
{
anchors = (
{
name = bottom;
pos = (153,0);
},
{
name = ogonek;
pos = (294,10);
},
{
name = top;
pos = (254,720);
},
{
name = topleft;
pos = (97,705);
}
);
color = 6;
layerId = "B953D09C-6DD0-450A-A78C-8C2188DD4016";
shapes = (
{
closed = 1;
nodes = (
(59,-3,o),
(127,0,o),
(156,0,cs),
(291,0,l),
(305,66,l),
(182,79,l),
(238,39,l),
(238,59,o),
(239,130,o),
(247,186,cs),
(298,541,ls),
(303,574,o),
(322,639,o),
(329,666,c),
(263,623,l),
(387,635,l),
(393,710,l),
(340,708,o),
(277,705,o),
(234,705,cs),
(215,705,o),
(155,708,o),
(115,710,c),
(100,640,l),
(220,618,l),
(164,666,l),
(164,641,o),
(164,573,o),
(157,526,cs),
(103,156,ls),
(99,130,o),
(82,73,o),
(75,47,c),
(138,83,l),
(14,60,l),
(10,-5,l)
);
}
);
width = 378;
},
{
anchors = (
{
name = bottom;
pos = (137,0);
},
{
name = ogonek;
pos = (268,10);
},
{
name = top;
pos = (238,720);
},
{
name = topleft;
pos = (94,705);
}
);
layerId = "3088057A-3552-44D5-8A67-1301E2609A93";
shapes = (
{
closed = 1;
nodes = (
(54,-3,o),
(118,0,o),
(143,0,cs),
(265,0,l),
(279,53,l),
(158,63,l),
(192,27,l),
(190,59,o),
(196,130,o),
(201,165,cs),
(255,538,ls),
(261,580,o),
(279,657,o),
(286,681,c),
(243,643,l),
(354,653,l),
(359,710,l),
(316,708,o),
(263,705,o),
(230,705,cs),
(212,705,o),
(153,708,o),
(115,710,c),
(102,658,l),
(210,640,l),
(176,681,l),
(177,658,o),
(176,590,o),
(174,572,cs),
(110,135,ls),
(107,116,o),
(88,49,o),
(81,22,c),
(125,67,l),
(11,44,l),
(9,-5,l)
);
}
);
width = 345;
}
);
unicode = 73;
},
{
color = 3;
glyphname = Iogonek;
kernLeft = UC_Stem;
kernRight = UC_Stem;
layers = (
{
color = 3;
layerId = "B953D09C-6DD0-450A-A78C-8C2188DD4016";
shapes = (
{
closed = 1;
nodes = (
(72,-55,o),
(119,0,o),
(149,0,cs),
(287,0,l),
(302,70,l),
(178,84,l),
(241,42,l),
(241,63,o),
(241,132,o),
(250,193,cs),
(300,542,ls),
(304,572,o),
(325,639,o),
(331,661,c),
(258,617,l),
(385,629,l),
(392,710,l),
(336,708,o),
(270,705,o),
(224,705,cs),
(204,705,o),
(144,708,o),
(104,710,c),
(88,635,l),
(211,611,l),
(149,661,l),
(149,639,o),
(150,571,o),
(141,512,cs),
(90,163,ls),
(82,112,o),
(70,74,o),
(22,-57,c)
);
},
{
pos = (-28,0);
ref = ogonekcomb;
}
);
width = 376;
},
{
layerId = "3088057A-3552-44D5-8A67-1301E2609A93";
shapes = (
{
closed = 1;
nodes = (
(76,-6,o),
(98,0,o),
(123,0,cs),
(244,0,l),
(258,52,l),
(137,62,l),
(171,27,l),
(168,59,o),
(175,130,o),
(180,164,cs),
(234,538,ls),
(239,575,o),
(257,653,o),
(265,682,c),
(223,643,l),
(333,653,l),
(338,710,l),
(295,708,o),
(243,705,o),
(210,705,cs),
(192,705,o),
(133,708,o),
(95,710,c),
(83,658,l),
(190,641,l),
(157,682,l),
(158,658,o),
(157,590,o),
(154,574,cs),
(90,134,ls),
(88,119,o),
(81,93,o),
(48,-24,c)
);
},
{
alignment = -1;
pos = (-45,1);
ref = ogonekcomb;
}
);
width = 324.3;
}
);
unicode = 302;
},
{
color = 6;
glyphname = J;
kernLeft = UP_J;
kernRight = UC_N;
layers = (
{
anchors = (
{
name = bottom;
pos = (142,0);
},
{
name = top;
pos = (228,705);
}
);
color = 6;
layerId = "B953D09C-6DD0-450A-A78C-8C2188DD4016";
shapes = (
{
closed = 1;
nodes = (
(106,-119,o),
(199,-26,o),
(204,5,cs),
(282,541,l),
(287,574,o),
(306,639,o),
(313,666,c),
(247,623,l),
(371,635,l),
(377,710,l),
(324,708,o),
(261,705,o),
(218,705,cs),
(199,705,o),
(139,708,o),
(99,710,c),
(84,640,l),
(204,618,l),
(148,666,l),
(148,646,o),
(149,576,o),
(141,526,c),
(66,11,ls),
(63,-9,o),
(-35,-171,o),
(-35,-171,c),
(10,-200,l)
);
}
);
width = 353;
},
{
anchors = (
{
name = bottom;
pos = (121,0);
},
{
name = top;
pos = (207,705);
}
);
layerId = "3088057A-3552-44D5-8A67-1301E2609A93";
shapes = (
{
closed = 1;
nodes = (
(47,-147,o),
(151,-38,o),
(155,-12,cs),
(235,538,ls),
(241,580,o),
(259,657,o),
(266,681,c),
(223,643,l),
(334,653,l),
(339,710,l),
(295,708,o),
(242,705,o),
(209,705,cs),
(191,705,o),
(132,708,o),
(95,710,c),
(82,658,l),
(190,640,l),
(156,681,l),
(157,657,o),
(156,589,o),
(153,572,cs),
(72,11,ls),
(69,-9,o),
(-34,-179,o),
(-34,-179,c),
(-4,-200,l)
);
}
);
width = 314.5;
}
);
unicode = 74;
},
{
color = 6;
glyphname = K;
kernLeft = UC_Stem;
kernRight = UC_K;
layers = (
{
anchors = (
{
name = bottom;
pos = (339,0);
},
{
name = top;
pos = (440,720);
}
);
color = 6;
layerId = "B953D09C-6DD0-450A-A78C-8C2188DD4016";
shapes = (
{
closed = 1;
nodes = (
(444,-3,o),
(512,0,o),
(541,0,cs),
(678,0,l),
(693,67,l),
(588,81,l),
(663,54,l),
(652,62,o),
(610,108,o),
(595,129,cs),
(400,414,l),
(393,327,l),
(583,546,ls),
(602,568,o),
(665,625,o),
(696,649,c),
(616,622,l),
(732,635,l),
(738,710,l),
(693,708,o),
(639,705,o),
(604,705,cs),
(584,705,o),
(527,708,o),
(489,710,c),
(473,640,l),
(562,621,l),
(528,663,l),
(500,619,o),
(484,596,o),
(469,577,cs),
(277,353,l),
(396,164,ls),
(413,137,o),
(446,62,o),
(449,55,c),
(498,81,l),
(399,60,l),
(395,-5,l)
);
},
{
closed = 1;
nodes = (
(59,-3,o),
(127,0,o),
(156,0,cs),
(291,0,l),
(305,66,l),
(182,79,l),
(238,39,l),
(238,59,o),
(239,130,o),
(247,186,cs),
(298,541,ls),
(303,574,o),
(322,639,o),
(329,666,c),
(263,623,l),
(387,635,l),
(393,710,l),
(340,708,o),
(277,705,o),
(234,705,cs),
(215,705,o),
(155,708,o),
(115,710,c),
(100,640,l),
(220,618,l),
(164,666,l),
(164,641,o),
(164,573,o),
(157,526,cs),
(103,156,ls),
(99,130,o),
(82,73,o),
(75,47,c),
(138,83,l),
(14,60,l),
(10,-5,l)
);
}
);
width = 750;
},
{
anchors = (
{
name = bottom;
pos = (309,0);
},
{
name = top;
pos = (410,720);
}
);
layerId = "3088057A-3552-44D5-8A67-1301E2609A93";
shapes = (
{
closed = 1;
nodes = (
(406,-3,o),
(470,0,o),
(495,0,cs),
(622,0,l),
(636,53,l),
(534,63,l),
(581,47,l),
(565,63,o),
(517,109,o),
(503,129,cs),
(321,388,l),
(309,345,l),
(494,546,ls),
(511,564,o),
(585,633,o),
(614,655,c),
(568,643,l),
(677,653,l),
(681,710,l),
(639,708,o),
(588,705,o),
(557,705,cs),
(537,705,o),
(490,708,o),
(456,710,c),
(443,658,l),
(529,639,l),
(516,676,l),
(495,644,o),
(459,589,o),
(447,577,cs),
(237,353,l),
(370,164,ls),
(388,138,o),
(422,60,o),
(428,46,c),
(456,66,l),
(363,44,l),
(361,-5,l)
);
},
{
closed = 1;
nodes = (
(54,-3,o),
(118,0,o),
(143,0,cs),
(265,0,l),
(279,53,l),
(158,63,l),
(192,27,l),
(190,59,o),
(196,130,o),
(201,165,cs),
(255,538,ls),
(261,580,o),
(279,657,o),
(286,681,c),
(243,643,l),
(354,653,l),
(359,710,l),
(316,708,o),
(263,705,o),
(230,705,cs),
(212,705,o),
(153,708,o),
(115,710,c),
(102,658,l),
(210,640,l),
(176,681,l),
(177,658,o),
(176,590,o),
(174,572,cs),
(110,135,ls),
(107,116,o),
(88,49,o),
(81,22,c),
(125,67,l),
(11,44,l),
(9,-5,l)
);
}
);
width = 693.9;
}
);
unicode = 75;
},
{
color = 6;
glyphname = L;
kernLeft = UC_Stem;
kernRight = UC_L;
layers = (
{
anchors = (
{
name = bottom;
pos = (275,0);
},
{
name = center;
pos = (207,355);
},
{
name = centerright;
pos = (548,423);
},
{
name = top;
pos = (294,720);
},
{
name = topright;
pos = (494,494);
}
);
color = 6;
layerId = "B953D09C-6DD0-450A-A78C-8C2188DD4016";
shapes = (
{
closed = 1;
nodes = (
(59,-3,o),
(103,0,o),
(132,0,cs),
(352,0,ls),
(377,0,o),
(425,-2,o),
(462,-4,c),
(483,14,l),
(522,184,l),
(458,189,l),
(450,162,o),
(445,149,o),
(437,129,cs),
(429,110,o),
(409,79,o),
(378,44,c),
(436,93,l),
(419,89,o),
(377,80,o),
(335,80,cs),
(162,80,l),
(238,39,l),
(238,59,o),
(239,130,o),
(247,186,cs),
(298,541,ls),
(303,574,o),
(322,639,o),
(329,666,c),
(263,623,l),
(387,635,l),
(393,710,l),
(340,708,o),
(277,705,o),
(234,705,cs),
(215,705,o),
(155,708,o),
(115,710,c),
(100,640,l),
(220,618,l),
(164,666,l),
(164,641,o),
(164,573,o),
(157,526,cs),
(103,156,ls),
(99,130,o),
(82,73,o),
(75,47,c),
(138,83,l),
(14,60,l),
(10,-5,l)
);
}
);
width = 567;
},
{
anchors = (
{
name = bottom;
pos = (246,0);
},
{
name = center;
pos = (188,355);
},
{
name = centerright;
pos = (555,423);
},
{
name = top;
pos = (291,720);
},
{
name = topright;
pos = (465,494);
}
);
layerId = "3088057A-3552-44D5-8A67-1301E2609A93";
shapes = (
{
closed = 1;
nodes = (
(54,-3,o),
(92,0,o),
(117,0,cs),
(327,0,ls),
(354,0,o),
(400,-2,o),
(437,-4,c),
(458,14,l),
(495,163,l),
(443,168,l),
(438,153,o),
(424,115,o),
(417,100,cs),
(411,87,o),
(390,61,o),
(376,44,c),
(406,67,l),
(388,63,o),
(343,55,o),
(305,55,cs),
(160,55,l),
(192,27,l),
(190,59,o),
(196,130,o),
(201,165,cs),
(255,538,ls),
(261,580,o),
(279,657,o),
(286,681,c),
(243,643,l),
(354,653,l),
(359,710,l),
(316,708,o),
(263,705,o),
(230,705,cs),
(212,705,o),
(153,708,o),
(115,710,c),
(102,658,l),
(210,640,l),
(176,681,l),
(177,658,o),
(177,590,o),
(174,572,cs),
(110,135,ls),
(107,116,o),
(88,49,o),
(81,22,c),
(125,67,l),
(11,44,l),
(9,-5,l)
);
}
);
width = 542.8;
}
);
unicode = 76;
},
{
color = 6;
glyphname = M;
kernLeft = UC_Stem;
kernRight = UC_Stem;
layers = (
{
anchors = (
{
name = bottom;
pos = (438.672,0);
},
{
name = top;
pos = (525.235,705);
}
);
color = 6;
layerId = "B953D09C-6DD0-450A-A78C-8C2188DD4016";
shapes = (
{
closed = 1;
nodes = (
(46,-3,o),
(105,0,o),
(133,0,cs),
(246,0,l),
(260,66,l),
(138,79,l),
(195,39,l),
(195,62,o),
(197,134,o),
(205,187,c),
(285,590,l),
(264,590,l),
(377,0,l),
(456,0,l),
(744,586,l),
(725,591,l),
(681,157,ls),
(679,134,o),
(662,72,o),
(655,47,c),
(711,83,l),
(594,60,l),
(590,-5,l),
(638,-3,o),
(701,0,o),
(729,0,cs),
(863,0,l),
(878,66,l),
(755,79,l),
(815,39,l),
(813,62,o),
(808,141,o),
(811,186,cs),
(837,541,ls),
(840,575,o),
(856,643,o),
(865,672,c),
(797,623,l),
(920,635,l),
(927,710,l),
(873,708,o),
(801,705,o),
(767,705,cs),
(709,705,l),
(687,685,l),
(625,546,l),
(438,159,l),
(472,154,l),
(405,533,l),
(383,685,l),
(368,705,l),
(255,705,ls),
(235,705,o),
(176,708,o),
(136,710,c),
(121,640,l),
(240,618,l),
(184,672,l),
(184,654,o),
(189,581,o),
(177,526,cs),
(100,157,l),
(96,133,o),
(77,73,o),
(69,47,c),
(133,83,l),
(9,60,l),
(5,-5,l)
);
}
);
width = 935;
},
{
anchors = (
{
name = bottom;
pos = (431,0);
},
{
name = top;
pos = (517,705);
}
);
layerId = "3088057A-3552-44D5-8A67-1301E2609A93";
shapes = (
{
closed = 1;
nodes = (
(49,-3,o),
(115,0,o),
(140,0,cs),
(233,0,l),
(247,53,l),
(130,63,l),
(169,27,l),
(168,59,o),
(176,142,o),
(181,165,cs),
(272,623,l),
(257,623,l),
(394,0,l),
(426,0,l),
(741,620,l),
(728,623,l),
(688,135,ls),
(686,113,o),
(669,49,o),
(662,22,c),
(707,67,l),
(592,44,l),
(590,-5,l),
(635,-3,o),
(700,0,o),
(725,0,cs),
(847,0,l),
(860,53,l),
(740,63,l),
(784,27,l),
(782,59,o),
(776,128,o),
(779,164,cs),
(806,538,ls),
(809,582,o),
(826,663,o),
(830,682,c),
(788,643,l),
(899,653,l),
(904,710,l),
(854,708,o),
(786,705,o),
(756,705,cs),
(731,705,l),
(709,685,l),
(635,536,l),
(435,140,l),
(458,138,l),
(372,529,l),
(343,685,l),
(328,705,l),
(264,705,ls),
(245,705,o),
(187,708,o),
(148,710,c),
(135,658,l),
(243,640,l),
(212,670,l),
(212,656,o),
(206,589,o),
(202,572,cs),
(112,135,ls),
(108,117,o),
(80,49,o),
(69,22,c),
(120,67,l),
(6,44,l),
(4,-5,l)
);
}
);
width = 918.5;
}
);
unicode = 77;
},
{
color = 6;
glyphname = N;
kernLeft = UC_Stem;
kernRight = UC_N;
layers = (
{
anchors = (
{
name = bottom;
pos = (357,0);
},
{
name = top;
pos = (458,720);
}
);
color = 6;
layerId = "B953D09C-6DD0-450A-A78C-8C2188DD4016";
shapes = (
{
closed = 1;
nodes = (
(51,-3,o),
(109,0,o),
(138,0,cs),
(261,0,l),
(276,66,l),
(154,79,l),
(210,39,l),
(210,76,o),
(214,145,o),
(220,186,cs),
(270,532,l),
(236,526,l),
(519,0,l),
(638,0,l),
(717,541,ls),
(722,574,o),
(740,627,o),
(752,660,c),
(684,623,l),
(808,635,l),
(814,710,l),
(774,708,o),
(698,705,o),
(666,705,cs),
(652,705,o),
(595,708,o),
(560,710,c),
(545,640,l),
(665,618,l),
(609,673,l),
(609,643,o),
(611,582,o),
(603,526,cs),
(549,158,l),
(584,164,l),
(383,535,l),
(318,685,l),
(302,705,l),
(234,705,ls),
(215,705,o),
(154,708,o),
(115,710,c),
(99,640,l),
(219,618,l),
(163,669,l),
(163,651,o),
(165,583,o),
(157,526,cs),
(103,157,ls),
(100,137,o),
(82,73,o),
(75,48,c),
(138,83,l),
(14,60,l),
(10,-5,l)
);
}
);
width = 790;
},
{
anchors = (
{
name = bottom;
pos = (341,0);
},
{
name = top;
pos = (442,720);
}
);
layerId = "3088057A-3552-44D5-8A67-1301E2609A93";
shapes = (
{
closed = 1;
nodes = (
(54,-3,o),
(117,0,o),
(141,0,cs),
(234,0,l),
(247,53,l),
(131,63,l),
(167,27,l),
(168,61,o),
(174,136,o),
(178,165,cs),
(240,598,l),
(220,594,l),
(532,0,l),
(594,0,l),
(674,538,ls),
(679,573,o),
(706,652,o),
(714,668,c),
(671,643,l),
(782,653,l),
(787,710,l),
(754,708,o),
(696,705,o),
(665,705,cs),
(649,705,o),
(593,708,o),
(557,710,c),
(544,658,l),
(652,640,l),
(618,675,l),
(619,654,o),
(619,589,o),
(616,572,cs),
(550,124,l),
(571,128,l),
(353,530,l),
(282,685,l),
(266,705,l),
(231,705,ls),
(212,705,o),
(154,708,o),
(115,710,c),
(102,658,l),
(210,640,l),
(176,680,l),
(176,665,o),
(177,589,o),
(175,572,cs),
(111,135,ls),
(108,116,o),
(84,39,o),
(81,25,c),
(122,67,l),
(11,44,l),
(9,-5,l)
);
}
);
width = 762.5;
}
);
unicode = 78;
},
{
color = 6;
glyphname = Eng;
kernLeft = UC_Stem;
kernRight = UC_J;
layers = (
{
color = 6;
layerId = "B953D09C-6DD0-450A-A78C-8C2188DD4016";
shapes = (
{
closed = 1;
nodes = (
(561,-115,o),
(646,-31,o),
(651,0,cs),
(730,542,ls),
(734,571,o),
(749,617,o),
(763,657,c),
(688,617,l),
(815,629,l),
(822,710,l),
(780,708,o),
(698,705,o),
(666,705,cs),
(651,705,o),
(596,708,o),
(561,710,c),
(545,635,l),
(668,611,l),
(606,672,l),
(606,644,o),
(608,581,o),
(598,512,cs),
(548,168,l),
(587,175,l),
(391,537,l),
(328,685,l),
(313,705,l),
(234,705,ls),
(214,705,o),
(154,708,o),
(114,710,c),
(98,635,l),
(221,611,l),
(159,666,l),
(159,644,o),
(161,581,o),
(151,512,cs),
(100,163,ls),
(97,143,o),
(80,80,o),
(73,55,c),
(142,88,l),
(15,65,l),
(10,-5,l),
(50,-3,o),
(106,0,o),
(136,0,cs),
(269,0,l),
(284,70,l),
(160,84,l),
(223,42,l),
(222,77,o),
(225,143,o),
(232,193,cs),
(279,512,l),
(240,505,l),
(514,0,l),
(512,-19,o),
(453,-113,o),
(418,-169,c),
(466,-200,l)
);
}
);
width = 798;
},
{
layerId = "3088057A-3552-44D5-8A67-1301E2609A93";
shapes = (
{
closed = 1;
nodes = (
(502,-146,o),
(586,-40,o),
(593,0,cs),
(673,538,ls),
(679,575,o),
(705,654,o),
(712,668,c),
(670,643,l),
(781,653,l),
(786,710,l),
(754,708,o),
(696,705,o),
(665,705,cs),
(649,705,o),
(593,708,o),
(557,710,c),
(544,658,l),
(652,641,l),
(618,675,l),
(619,654,o),
(619,589,o),
(617,574,cs),
(550,123,l),
(571,127,l),
(353,529,l),
(281,685,l),
(265,705,l),
(231,705,ls),
(212,705,o),
(154,708,o),
(115,710,c),
(102,658,l),
(210,641,l),
(177,680,l),
(177,664,o),
(178,589,o),
(175,574,cs),
(111,134,ls),
(109,120,o),
(84,36,o),
(81,24,c),
(121,66,l),
(11,43,l),
(9,-5,l),
(54,-3,o),
(117,0,o),
(142,0,cs),
(233,0,l),
(247,52,l),
(130,62,l),
(166,27,l),
(167,61,o),
(173,136,o),
(177,164,cs),
(239,600,l),
(219,596,l),
(533,0,l),
(533,-17,o),
(468,-120,o),
(431,-179,c),
(459,-200,l)
);
}
);
width = 761.7;
}
);
unicode = 330;
},
{
color = 6;
glyphname = O;
kernLeft = UC_Round;
kernRight = UC_Round;
layers = (
{
anchors = (
{
name = bottom;
pos = (356,0);
},
{
name = center;
pos = (406,353);
},
{
name = ogonek;
pos = (486,0);
},
{
name = top;
pos = (457,720);
},
{
name = topleft;
pos = (91,705);
},
{
name = topright;
pos = (629,620);
}
);
color = 6;
layerId = "B953D09C-6DD0-450A-A78C-8C2188DD4016";
shapes = (
{
closed = 1;
nodes = (
(594,-15,o),
(753,164,o),
(753,414,cs),
(753,598,o),
(643,720,o),
(457,720,cs),
(218,720,o),
(59,541,o),
(59,290,cs),
(59,107,o),
(169,-15,o),
(355,-15,cs)
);
},
{
closed = 1;
nodes = (
(266,71,o),
(219,146,o),
(219,274,cs),
(219,479,o),
(288,634,o),
(448,634,cs),
(546,634,o),
(593,559,o),
(593,430,cs),
(593,225,o),
(523,71,o),
(365,71,cs)
);
}
);
width = 787;
},
{
anchors = (
{
name = bottom;
pos = (337,0);
},
{
name = center;
pos = (387,353);
},
{
name = ogonek;
pos = (474,0);
},
{
name = top;
pos = (438,720);
},
{
name = topleft;
pos = (83,705);
},
{
name = topright;
pos = (621,620);
}
);
layerId = "3088057A-3552-44D5-8A67-1301E2609A93";
shapes = (
{
closed = 1;
nodes = (
(581,-15,o),
(711,175,o),
(711,421,cs),
(711,598,o),
(620,720,o),
(438,720,cs),
(194,720,o),
(63,530,o),
(63,283,cs),
(63,107,o),
(155,-15,o),
(336,-15,cs)
);
},
{
closed = 1;
nodes = (
(220,35,o),
(165,145,o),
(165,284,cs),
(165,481,o),
(261,670,o),
(434,670,cs),
(555,670,o),
(610,560,o),
(610,420,cs),
(610,223,o),
(513,35,o),
(341,35,cs)
);
}
);
width = 749.6;
}
);
unicode = 79;
},
{
color = 3;
glyphname = Oslash;
kernLeft = UC_Round;
kernRight = UC_Round;
layers = (
{
anchors = (
{
name = bottom;
pos = (364.672,0);
},
{
name = top;
pos = (451.235,705);
}
);
color = 3;
layerId = "B953D09C-6DD0-450A-A78C-8C2188DD4016";
shapes = (
{
closed = 1;
nodes = (
(710,794,l),
(652,826,l),
(106,-93,l),
(162,-125,l)
);
},
{
ref = O;
}
);
width = 787;
},
{
anchors = (
{
name = bottom;
pos = (342,0);
},
{
name = top;
pos = (428,705);
}
);
layerId = "3088057A-3552-44D5-8A67-1301E2609A93";
shapes = (
{
closed = 1;
nodes = (
(669,801,l),
(630,825,l),
(81,-99,l),
(118,-123,l)
);
},
{
alignment = -1;
pos = (-4,0);
ref = O;
}
);
width = 745.2;
}
);
unicode = 216;
},
{
color = 6;
glyphname = OE;
kernLeft = UC_Round;
kernRight = UC_E;
layers = (
{
anchors = (
{
name = bottom;
pos = (667,0);
},
{
name = top;
pos = (768,720);
}
);
color = 6;
layerId = "B953D09C-6DD0-450A-A78C-8C2188DD4016";
shapes = (
{
closed = 1;
nodes = (
(440,-15,o),
(502,0,o),
(587,0,cs),
(747,0,ls),
(773,0,o),
(821,0,o),
(862,0,c),
(878,14,l),
(917,184,l),
(853,189,l),
(848,172,o),
(837,140,o),
(832,129,cs),
(826,114,o),
(803,78,o),
(773,44,c),
(830,93,l),
(814,89,o),
(771,80,o),
(729,80,cs),
(550,80,l),
(604,49,l),
(604,64,o),
(610,138,o),
(617,186,cs),
(645,377,l),
(581,322,l),
(703,322,ls),
(722,322,o),
(783,315,o),
(823,310,c),
(767,372,l),
(766,254,l),
(826,260,l),
(833,328,o),
(842,385,o),
(855,466,c),
(798,471,l),
(763,349,l),
(834,411,l),
(800,405,o),
(744,397,o),
(733,397,cs),
(591,397,l),
(640,342,l),
(669,541,ls),
(673,569,o),
(690,636,o),
(696,664,c),
(632,630,l),
(796,630,ls),
(828,630,o),
(890,625,o),
(926,623,c),
(857,679,l),
(866,653,o),
(880,601,o),
(880,591,cs),
(880,576,o),
(881,557,o),
(881,541,c),
(949,546,l),
(964,692,l),
(948,710,l),
(911,708,o),
(862,705,o),
(836,705,cs),
(683,705,ls),
(599,705,o),
(543,720,o),
(457,720,cs),
(218,720,o),
(59,541,o),
(59,290,cs),
(59,107,o),
(169,-15,o),
(355,-15,cs)
);
},
{
closed = 1;
nodes = (
(509,81,l),
(460,76,o),
(416,71,o),
(365,71,cs),
(266,71,o),
(219,146,o),
(219,274,cs),
(219,479,o),
(288,634,o),
(448,634,cs),
(498,634,o),
(549,626,o),
(596,620,c),
(546,657,l),
(545,645,o),
(533,560,o),
(528,526,cs),
(474,156,ls),
(470,127,o),
(458,65,o),
(452,39,c)
);
}
);
width = 978;
},
{
anchors = (
{
name = bottom;
pos = (631,0);
},
{
name = top;
pos = (732,720);
}
);
layerId = "3088057A-3552-44D5-8A67-1301E2609A93";
shapes = (
{
closed = 1;
nodes = (
(408,-15,o),
(477,0,o),
(549,0,cs),
(699,0,ls),
(726,0,o),
(776,0,o),
(813,0,c),
(830,14,l),
(866,163,l),
(815,168,l),
(810,152,o),
(796,116,o),
(789,100,cs),
(783,87,o),
(762,62,o),
(748,44,c),
(778,67,l),
(760,63,o),
(715,55,o),
(677,55,cs),
(504,55,l),
(536,20,l),
(536,50,o),
(542,133,o),
(547,165,cs),
(577,374,l),
(538,340,l),
(666,340,ls),
(682,340,o),
(740,335,o),
(777,331,c),
(745,368,l),
(740,266,l),
(786,272,l),
(792,327,o),
(804,392,o),
(817,464,c),
(773,469,l),
(741,367,l),
(786,403,l),
(755,400,o),
(703,394,o),
(692,394,cs),
(546,394,l),
(575,360,l),
(601,538,ls),
(606,573,o),
(626,658,o),
(630,675,c),
(590,651,l),
(752,651,ls),
(765,651,o),
(837,646,o),
(855,644,c),
(812,676,l),
(826,654,o),
(844,624,o),
(845,612,cs),
(846,604,o),
(847,574,o),
(848,558,c),
(904,563,l),
(917,692,l),
(901,710,l),
(864,708,o),
(805,705,o),
(789,705,cs),
(678,705,ls),
(606,705,o),
(510,720,o),
(438,720,cs),
(194,720,o),
(63,530,o),
(63,283,cs),
(63,107,o),
(154,-15,o),
(336,-15,cs)
);
},
{
closed = 1;
nodes = (
(471,56,l),
(428,42,o),
(384,35,o),
(341,35,cs),
(220,35,o),
(165,145,o),
(165,284,cs),
(165,481,o),
(261,670,o),
(434,670,cs),
(475,670,o),
(541,660,o),
(582,650,c),
(530,666,l),
(530,653,o),
(522,591,o),
(519,572,cs),
(455,135,ls),
(452,116,o),
(440,45,o),
(434,23,c)
);
}
);
width = 929.6;
}
);
unicode = 338;
},
{
color = 6;
glyphname = P;
kernLeft = UC_Stem;
kernRight = UC_F;
layers = (
{
anchors = (
{
name = bottom;
pos = (278.672,0);
},
{
name = top;
pos = (365.235,705);
}
);
color = 6;
layerId = "B953D09C-6DD0-450A-A78C-8C2188DD4016";
shapes = (
{
closed = 1;
nodes = (
(59,-3,o),
(127,0,o),
(156,0,cs),
(301,0,l),
(315,66,l),
(182,79,l),
(238,39,l),
(238,59,o),
(239,130,o),
(247,186,cs),
(298,541,ls),
(303,573,o),
(319,639,o),
(326,666,c),
(253,631,l),
(293,634,o),
(336,636,o),
(351,636,cs),
(430,636,o),
(469,599,o),
(469,526,cs),
(469,410,o),
(399,346,o),
(297,346,cs),
(260,346,o),
(207,346,o),
(175,346,c),
(164,274,l),
(217,273,o),
(269,272,o),
(322,272,cs),
(470,272,o),
(614,365,o),
(614,528,cs),
(614,645,o),
(534,710,o),
(413,710,cs),
(366,710,o),
(282,705,o),
(234,705,cs),
(215,705,o),
(155,708,o),
(115,710,c),
(100,640,l),
(220,618,l),
(164,666,l),
(164,641,o),
(164,573,o),
(157,526,cs),
(103,156,ls),
(99,130,o),
(82,73,o),
(75,47,c),
(138,83,l),
(14,60,l),
(10,-5,l)
);
}
);
width = 621;
},
{
anchors = (
{
name = bottom;
pos = (261,0);
},
{
name = top;
pos = (348,705);
}
);
layerId = "3088057A-3552-44D5-8A67-1301E2609A93";
shapes = (
{
closed = 1;
nodes = (
(54,-3,o),
(118,0,o),
(143,0,cs),
(275,0,l),
(289,53,l),
(158,63,l),
(192,27,l),
(190,59,o),
(196,130,o),
(201,165,cs),
(255,538,ls),
(261,580,o),
(279,657,o),
(286,681,c),
(235,655,ls),
(274,658,o),
(323,662,o),
(342,662,cs),
(432,662,o),
(488,616,o),
(488,530,cs),
(488,405,o),
(409,341,o),
(294,341,cs),
(253,341,o),
(199,349,o),
(159,355,c),
(151,298,l),
(206,295,o),
(261,293,o),
(317,293,cs),
(459,293,o),
(578,379,o),
(578,540,cs),
(578,652,o),
(497,710,o),
(379,710,cs),
(340,710,o),
(269,705,o),
(230,705,cs),
(212,705,o),
(153,708,o),
(115,710,c),
(102,658,l),
(210,640,l),
(176,681,l),
(177,658,o),
(176,590,o),
(174,572,cs),
(110,135,ls),
(107,116,o),
(88,49,o),
(81,22,c),
(125,67,l),
(11,44,l),
(9,-5,l)
);
}
);
width = 586.9;
}
);
unicode = 80;
},
{
color = 6;
glyphname = Thorn;
kernLeft = UC_Stem;
kernRight = UC_Thorn;
layers = (
{
anchors = (
{
name = bottom;
pos = (264.672,0);
},
{
name = top;
pos = (351.235,705);
}
);
color = 6;
layerId = "B953D09C-6DD0-450A-A78C-8C2188DD4016";
shapes = (
{
closed = 1;
nodes = (
(59,-3,o),
(127,0,o),
(156,0,cs),
(291,0,l),
(305,66,l),
(182,79,l),
(238,39,l),
(238,59,o),
(239,130,o),
(247,186,cs),
(298,541,ls),
(303,574,o),
(322,639,o),
(329,666,c),
(263,623,l),
(387,635,l),
(393,710,l),
(340,708,o),
(277,705,o),
(234,705,cs),
(215,705,o),
(155,708,o),
(115,710,c),
(100,640,l),
(220,618,l),
(164,666,l),
(164,641,o),
(164,573,o),
(157,526,cs),
(103,156,ls),
(99,130,o),
(82,73,o),
(75,47,c),
(138,83,l),
(14,60,l),
(10,-5,l)
);
},
{
closed = 1;
nodes = (
(440,162,o),
(568,241,o),
(568,382,cs),
(568,488,o),
(491,552,o),
(365,552,cs),
(335,552,o),
(283,549,o),
(270,548,c),
(260,477,l),
(272,477,o),
(289,477,o),
(298,477,cs),
(386,477,o),
(428,447,o),
(428,381,cs),
(428,287,o),
(360,238,o),
(259,238,cs),
(226,238,o),
(229,237,o),
(224,238,c),
(214,163,l),
(286,163,o),
(269,162,o),
(297,162,cs)
);
}
);
width = 590;
},
{
anchors = (
{
name = bottom;
pos = (242,0);
},
{
name = top;
pos = (328,705);
}
);
layerId = "3088057A-3552-44D5-8A67-1301E2609A93";
shapes = (
{
closed = 1;
nodes = (
(54,-3,o),
(118,0,o),
(143,0,cs),
(265,0,l),
(279,53,l),
(158,63,l),
(192,27,l),
(190,59,o),
(196,130,o),
(201,165,cs),
(255,538,ls),
(261,580,o),
(279,657,o),
(286,681,c),
(243,643,l),
(354,653,l),
(359,710,l),
(316,708,o),
(263,705,o),
(230,705,cs),
(212,705,o),
(153,708,o),
(115,710,c),
(102,658,l),
(210,640,l),
(176,681,l),
(177,658,o),
(176,590,o),
(174,572,cs),
(110,135,ls),
(107,116,o),
(88,49,o),
(81,22,c),
(125,67,l),
(11,44,l),
(9,-5,l)
);
},
{
closed = 1;
nodes = (
(392,166,o),
(520,245,o),
(520,390,cs),
(520,497,o),
(453,555,o),
(327,555,cs),
(301,555,o),
(259,553,o),
(222,551,c),
(215,503,l),
(245,506,o),
(270,508,o),
(284,508,cs),
(376,508,o),
(432,462,o),
(432,382,cs),
(432,272,o),
(353,214,o),
(240,214,cs),
(221,214,o),
(189,217,o),
(169,219,c),
(161,169,l),
(184,167,o),
(229,166,o),
(251,166,cs)
);
}
);
width = 544.9;
}
);
unicode = 222;
},
{
color = 6;
glyphname = Q;
kernLeft = UC_Round;
kernRight = UC_Q;
layers = (
{
anchors = (
{
name = bottom;
pos = (361,0);
},
{
name = top;
pos = (447,705);
}
);
color = 6;
layerId = "B953D09C-6DD0-450A-A78C-8C2188DD4016";
shapes = (
{
closed = 1;
nodes = (
(594,-15,o),
(753,164,o),
(753,414,cs),
(753,598,o),
(643,720,o),
(457,720,cs),
(218,720,o),
(59,541,o),
(59,290,cs),
(59,107,o),
(169,-15,o),
(355,-15,cs)
);
},
{
closed = 1;
nodes = (
(713,-108,l),
(665,-86,o),
(583,-49,o),
(570,-39,cs),
(500,17,l),
(365,-7,l),
(615,-224,l)
);
},
{
closed = 1;
nodes = (
(266,71,o),
(219,146,o),
(219,274,cs),
(219,479,o),
(288,634,o),
(448,634,cs),
(546,634,o),
(593,559,o),
(593,430,cs),
(593,225,o),
(523,71,o),
(365,71,cs)
);
}
);
width = 787;
},
{
anchors = (
{
name = bottom;
pos = (343,0);
},
{
name = top;
pos = (429,705);
}
);
layerId = "3088057A-3552-44D5-8A67-1301E2609A93";
shapes = (
{
closed = 1;
nodes = (
(581,-15,o),
(711,175,o),
(711,421,cs),
(711,598,o),
(620,720,o),
(438,720,cs),
(194,720,o),
(63,530,o),
(63,283,cs),
(63,107,o),
(155,-15,o),
(336,-15,cs)
);
},
{
closed = 1;
nodes = (
(665,-134,l),
(617,-111,o),
(536,-74,o),
(522,-62,cs),
(446,-1,l),
(374,-14,l),
(595,-224,l)
);
},
{
closed = 1;
nodes = (
(220,35,o),
(165,145,o),
(165,284,cs),
(165,481,o),
(261,670,o),
(434,670,cs),
(555,670,o),
(610,560,o),
(610,420,cs),
(610,223,o),
(513,35,o),
(341,35,cs)
);
}
);
width = 750.7;
}
);
unicode = 81;
},
{
color = 6;
glyphname = R;
kernLeft = UC_Stem;
kernRight = UC_R;
layers = (
{
anchors = (
{
name = bottom;
pos = (321,0);
},
{
name = top;
pos = (372,720);
}
);
color = 6;
layerId = "B953D09C-6DD0-450A-A78C-8C2188DD4016";
shapes = (
{
closed = 1;
nodes = (
(59,-3,o),
(127,0,o),
(156,0,cs),
(291,0,l),
(305,66,l),
(182,79,l),
(238,39,l),
(238,59,o),
(239,130,o),
(247,186,cs),
(298,541,ls),
(303,574,o),
(322,639,o),
(329,666,c),
(212,628,l),
(249,630,o),
(330,636,o),
(352,636,cs),
(431,636,o),
(474,601,o),
(474,530,cs),
(474,427,o),
(427,359,o),
(310,359,cs),
(269,359,o),
(225,360,o),
(170,362,c),
(167,292,l),
(218,289,o),
(284,283,o),
(320,283,cs),
(471,283,o),
(618,380,o),
(618,536,cs),
(618,646,o),
(537,710,o),
(415,710,cs),
(367,710,o),
(282,705,o),
(234,705,cs),
(215,705,o),
(155,708,o),
(115,710,c),
(100,640,l),
(220,618,l),
(164,666,l),
(164,641,o),
(164,573,o),
(157,526,cs),
(103,156,ls),
(99,130,o),
(82,73,o),
(75,47,c),
(138,83,l),
(14,60,l),
(10,-5,l)
);
},
{
closed = 1;
nodes = (
(606,0,l),
(620,67,l),
(511,76,l),
(584,41,l),
(573,60,o),
(546,114,o),
(539,129,cs),
(533,143,o),
(483,243,o),
(449,349,c),
(307,345,l),
(390,116,ls),
(401,85,o),
(414,34,o),
(423,0,c)
);
}
);
width = 673;
},
{
anchors = (
{
name = bottom;
pos = (305,0);
},
{
name = top;
pos = (337,720);
}
);
layerId = "3088057A-3552-44D5-8A67-1301E2609A93";
shapes = (
{
closed = 1;
nodes = (
(54,-3,o),
(118,0,o),
(143,0,cs),
(265,0,l),
(279,53,l),
(158,63,l),
(192,27,l),
(190,59,o),
(196,130,o),
(201,165,cs),
(255,538,ls),
(261,580,o),
(279,657,o),
(286,681,c),
(251,657,l),
(280,659,o),
(325,662,o),
(342,662,cs),
(432,662,o),
(488,616,o),
(488,534,cs),
(488,412,o),
(419,350,o),
(306,350,cs),
(256,350,o),
(207,358,o),
(159,364,c),
(151,307,l),
(206,306,o),
(261,303,o),
(318,303,cs),
(459,303,o),
(578,388,o),
(578,545,cs),
(578,653,o),
(497,710,o),
(379,710,cs),
(340,710,o),
(269,705,o),
(230,705,cs),
(212,705,o),
(153,708,o),
(115,710,c),
(102,658,l),
(210,640,l),
(176,681,l),
(177,658,o),
(176,590,o),
(174,572,cs),
(110,135,ls),
(107,116,o),
(88,49,o),
(81,22,c),
(125,67,l),
(11,44,l),
(9,-5,l)
);
},
{
closed = 1;
nodes = (
(573,0,l),
(587,53,l),
(482,64,l),
(525,45,l),
(516,61,o),
(488,111,o),
(479,131,cs),
(475,141,o),
(434,245,o),
(392,349,c),
(298,345,l),
(383,116,ls),
(397,81,o),
(407,44,o),
(420,0,c)
);
}
);
width = 642.2;
}
);
unicode = 82;
},
{
color = 6;
glyphname = S;
kernLeft = UC_S;
kernRight = UC_S;
layers = (
{
anchors = (
{
name = bottom;
pos = (244,0);
},
{
name = top;
pos = (359,720);
}
);
color = 6;
layerId = "B953D09C-6DD0-450A-A78C-8C2188DD4016";
shapes = (
{
closed = 1;
nodes = (
(400,-15,o),
(526,74,o),
(526,226,cs),
(526,420,o),
(250,415,o),
(250,538,cs),
(250,599,o),
(298,637,o),
(363,637,cs),
(417,637,o),
(451,610,o),
(478,592,c),
(432,674,l),
(439,642,o),
(451,589,o),
(451,576,cs),
(451,569,o),
(445,532,o),
(441,508,c),
(517,503,l),
(557,685,l),
(493,705,o),
(414,720,o),
(349,720,cs),
(206,720,o),
(96,635,o),
(96,497,cs),
(96,301,o),
(371,310,o),
(371,180,cs),
(371,110,o),
(316,73,o),
(251,73,cs),
(187,73,o),
(145,101,o),
(130,109,c),
(152,83,l),
(148,94,o),
(139,130,o),
(139,143,cs),
(139,148,o),
(148,212,o),
(148,212,c),
(72,218,l),
(30,34,l),
(92,3,o),
(171,-15,o),
(250,-15,cs)
);
}
);
width = 581;
},
{
anchors = (
{
name = bottom;
pos = (240,0);
},
{
name = top;
pos = (350,720);
}
);
layerId = "3088057A-3552-44D5-8A67-1301E2609A93";
shapes = (
{
closed = 1;
nodes = (
(375,-15,o),
(494,58,o),
(494,205,cs),
(494,399,o),
(198,403,o),
(198,542,cs),
(198,623,o),
(260,668,o),
(327,668,cs),
(380,668,o),
(416,663,o),
(468,633,c),
(440,665,l),
(441,648,o),
(446,609,o),
(446,593,cs),
(446,584,o),
(441,562,o),
(439,547,c),
(494,540,l),
(530,688,l),
(470,704,o),
(399,720,o),
(336,720,cs),
(204,720,o),
(100,645,o),
(100,514,cs),
(100,330,o),
(391,328,o),
(391,184,cs),
(391,97,o),
(331,42,o),
(242,42,cs),
(187,42,o),
(135,60,o),
(103,77,c),
(120,59,l),
(119,68,o),
(118,101,o),
(118,121,cs),
(118,135,o),
(126,183,o),
(126,183,c),
(63,189,l),
(27,38,l),
(90,1,o),
(163,-15,o),
(235,-15,cs)
);
}
);
width = 551.3;
}
);
unicode = 83;
},
{
color = 6;
glyphname = T;
kernLeft = UC_T;
kernRight = UC_T;
layers = (
{
anchors = (
{
name = bottom;
pos = (291,0);
},
{
name = center;
pos = (341,353);
},
{
name = top;
pos = (392,720);
}
);
color = 6;
layerId = "B953D09C-6DD0-450A-A78C-8C2188DD4016";
shapes = (
{
closed = 1;
nodes = (
(186,-3,o),
(266,0,o),
(294,0,cs),
(438,0,l),
(453,66,l),
(320,79,l),
(376,39,l),
(375,62,o),
(378,134,o),
(385,186,cs),
(436,541,ls),
(442,582,o),
(462,645,o),
(467,666,c),
(302,666,l),
(302,640,o),
(302,574,o),
(295,526,cs),
(241,156,ls),
(237,131,o),
(219,71,o),
(213,47,c),
(276,83,l),
(142,60,l),
(138,-5,l)
);
},
{
closed = 1;
nodes = (
(142,530,o),
(156,580,o),
(160,590,cs),
(163,596,o),
(188,649,o),
(201,677,c),
(129,623,l),
(159,625,o),
(223,630,o),
(257,630,cs),
(504,630,ls),
(534,630,o),
(579,626,o),
(607,623,c),
(565,678,l),
(574,651,o),
(588,599,o),
(589,589,cs),
(590,577,o),
(588,530,o),
(588,511,c),
(655,516,l),
(672,692,l),
(656,710,l),
(617,708,o),
(559,705,o),
(541,705,cs),
(238,705,ls),
(221,705,o),
(163,708,o),
(126,710,c),
(103,692,l),
(71,516,l),
(138,511,l)
);
}
);
width = 661;
},
{
anchors = (
{
name = bottom;
pos = (279,0);
},
{
name = center;
pos = (329,353);
},
{
name = top;
pos = (391,720);
}
);
layerId = "3088057A-3552-44D5-8A67-1301E2609A93";
shapes = (
{
closed = 1;
nodes = (
(187,-3,o),
(262,0,o),
(286,0,cs),
(418,0,l),
(432,53,l),
(301,63,l),
(335,27,l),
(333,59,o),
(340,130,o),
(344,165,cs),
(399,538,l),
(405,579,o),
(422,656,o),
(430,681,c),
(320,681,l),
(321,658,o),
(320,589,o),
(317,572,cs),
(253,135,ls),
(250,116,o),
(231,49,o),
(224,22,c),
(268,67,l),
(144,44,l),
(142,-5,l)
);
},
{
closed = 1;
nodes = (
(135,551,o),
(147,594,o),
(155,609,cs),
(160,620,o),
(191,660,o),
(205,678,c),
(143,645,l),
(166,647,o),
(223,651,o),
(258,651,cs),
(482,651,ls),
(507,651,o),
(558,647,o),
(576,645,c),
(544,671,l),
(561,653,o),
(575,616,o),
(575,609,cs),
(575,594,o),
(576,551,o),
(575,524,c),
(631,529,l),
(647,692,l),
(631,710,l),
(594,708,o),
(536,705,o),
(519,705,cs),
(237,705,ls),
(220,705,o),
(164,708,o),
(127,710,c),
(106,692,l),
(74,529,l),
(129,524,l)
);
}
);
width = 637.9;
}
);
unicode = 84;
},
{
color = 6;
glyphname = U;
kernLeft = UC_U;
kernRight = UC_U;
layers = (
{
anchors = (
{
name = bottom;
pos = (338,0);
},
{
name = horn;
pos = (628,460);
},
{
name = ogonek;
pos = (453,0);
},
{
name = top;
pos = (439,720);
},
{
name = topright;
pos = (782,705);
}
);
background = {
shapes = (
{
closed = 1;
nodes = (
(512,-15,o),
(624,93,o),
(650,268,cs),
(690,541,ls),
(695,574,o),
(712,634,o),
(721,664,c),
(655,623,l),
(778,635,l),
(785,710,l),
(735,708,o),
(672,705,o),
(636,705,cs),
(617,705,o),
(563,708,o),
(527,710,c),
(512,640,l),
(632,618,l),
(576,668,l),
(576,651,o),
(578,583,o),
(570,526,cs),
(531,261,ls),
(515,155,o),
(467,87,o),
(363,87,cs),
(268,87,o),
(226,162,o),
(241,261,cs),
(283,541,ls),
(288,575,o),
(307,637,o),
(314,665,c),
(248,623,l),
(371,635,l),
(378,710,l),
(324,708,o),
(252,705,o),
(216,705,cs),
(198,705,o),
(135,708,o),
(95,710,c),
(80,640,l),
(200,618,l),
(144,664,l),
(144,650,o),
(145,583,o),
(137,526,cs),
(100,267,ls),
(76,99,o),
(150,-15,o),
(334,-15,cs)
);
}
);
};
color = 6;
layerId = "B953D09C-6DD0-450A-A78C-8C2188DD4016";
shapes = (
{
closed = 1;
nodes = (
(512,-15,o),
(624,93,o),
(650,268,cs),
(690,541,ls),
(695,574,o),
(712,634,o),
(721,664,c),
(655,623,l),
(778,635,l),
(785,710,l),
(735,708,o),
(672,705,o),
(636,705,cs),
(617,705,o),
(563,708,o),
(527,710,c),
(512,640,l),
(632,618,l),
(576,668,l),
(576,651,o),
(578,583,o),
(570,526,cs),
(531,261,ls),
(515,155,o),
(467,87,o),
(363,87,cs),
(281,87,o),
(238,143,o),
(238,223,cs),
(238,247,o),
(242,269,o),
(283,541,cs),
(288,575,o),
(307,637,o),
(314,665,c),
(248,623,l),
(371,635,l),
(378,710,l),
(324,708,o),
(252,705,o),
(216,705,cs),
(198,705,o),
(135,708,o),
(95,710,c),
(80,640,l),
(200,618,l),
(144,664,l),
(144,650,o),
(145,583,o),
(137,526,cs),
(100,270,o),
(95,243,o),
(96,208,cs),
(96,73,o),
(172,-15,o),
(334,-15,cs)
);
}
);
width = 760;
},
{
anchors = (
{
name = bottom;
pos = (317,0);
},
{
name = horn;
pos = (606,460);
},
{
name = ogonek;
pos = (430,0);
},
{
name = top;
pos = (436,720);
},
{
name = topright;
pos = (746,705);
}
);
background = {
anchors = (
{
name = bottom;
pos = (317,0);
},
{
name = horn;
pos = (606,460);
},
{
name = ogonek;
pos = (430,0);
},
{
name = top;
pos = (436,720);
},
{
name = topright;
pos = (746,705);
}
);
shapes = (
{
closed = 1;
nodes = (
(479,-15,o),
(576,95,o),
(601,266,cs),
(641,538,ls),
(646,575,o),
(667,659,o),
(670,675,c),
(630,643,l),
(742,653,l),
(745,710,l),
(705,708,o),
(648,705,o),
(625,705,cs),
(607,705,o),
(553,708,o),
(517,710,c),
(504,658,l),
(613,640,l),
(579,671,l),
(579,653,o),
(581,589,o),
(579,572,cs),
(533,267,ls),
(514,139,o),
(444,45,o),
(327,45,cs),
(216,45,o),
(172,137,o),
(192,267,cs),
(231,538,ls),
(236,575,o),
(256,658,o),
(260,676,c),
(219,643,l),
(330,653,l),
(335,710,l),
(292,708,o),
(229,705,o),
(206,705,cs),
(188,705,o),
(130,708,o),
(92,710,c),
(79,658,l),
(187,640,l),
(153,675,l),
(153,664,o),
(153,589,o),
(150,572,cs),
(104,266,ls),
(79,99,o),
(149,-15,o),
(314,-15,cs)
);
}
);
};
layerId = "3088057A-3552-44D5-8A67-1301E2609A93";
shapes = (
{
closed = 1;
nodes = (
(479,-15,o),
(576,95,o),
(601,266,cs),
(641,538,ls),
(646,575,o),
(667,659,o),
(670,675,c),
(630,643,l),
(742,653,l),
(745,710,l),
(705,708,o),
(648,705,o),
(625,705,cs),
(607,705,o),
(553,708,o),
(517,710,c),
(504,658,l),
(613,640,l),
(579,671,l),
(579,653,o),
(581,589,o),
(579,572,cs),
(533,267,ls),
(514,139,o),
(444,45,o),
(327,45,cs),
(233,45,o),
(187,111,o),
(187,209,cs),
(188,243,o),
(193,275,o),
(231,538,cs),
(236,575,o),
(256,658,o),
(260,676,c),
(219,643,l),
(330,653,l),
(335,710,l),
(292,708,o),
(229,705,o),
(206,705,cs),
(188,705,o),
(130,708,o),
(92,710,c),
(79,658,l),
(187,640,l),
(153,675,l),
(153,664,o),
(153,589,o),
(150,572,cs),
(106,276,o),
(99,243,o),
(99,203,cs),
(99,71,o),
(171,-15,o),
(314,-15,cs)
);
}
);
width = 722.6;
}
);
unicode = 85;
},
{
color = 6;
glyphname = V;
kernLeft = UC_V;
kernRight = UC_V;
layers = (
{
anchors = (
{
name = bottom;
pos = (297,0);
},
{
name = top;
pos = (398,720);
}
);
color = 6;
layerId = "B953D09C-6DD0-450A-A78C-8C2188DD4016";
shapes = (
{
closed = 1;
nodes = (
(357,0,l),
(626,541,ls),
(646,581,o),
(691,642,o),
(701,656,c),
(626,620,l),
(706,635,l),
(713,710,l),
(666,708,o),
(610,705,o),
(584,705,cs),
(569,705,o),
(503,708,o),
(468,710,c),
(452,640,l),
(598,617,l),
(554,660,l),
(548,639,o),
(515,553,o),
(503,527,cs),
(323,141,l),
(356,137,l),
(286,541,ls),
(281,569,o),
(278,644,o),
(278,670,c),
(223,623,l),
(359,635,l),
(365,710,l),
(311,708,o),
(227,705,o),
(192,705,cs),
(173,705,o),
(132,708,o),
(92,710,c),
(77,640,l),
(171,618,l),
(109,652,l),
(114,634,o),
(135,560,o),
(142,526,cs),
(255,0,l)
);
}
);
width = 689;
},
{
anchors = (
{
name = bottom;
pos = (287,0);
},
{
name = top;
pos = (388,720);
}
);
layerId = "3088057A-3552-44D5-8A67-1301E2609A93";
shapes = (
{
closed = 1;
nodes = (
(328,0,l),
(585,538,ls),
(602,573,o),
(650,651,o),
(665,667,c),
(615,641,l),
(675,653,l),
(680,710,l),
(643,708,o),
(606,705,o),
(588,705,cs),
(571,705,o),
(493,708,o),
(456,710,c),
(442,657,l),
(589,640,l),
(561,664,l),
(557,649,o),
(541,593,o),
(532,572,cs),
(311,112,l),
(334,110,l),
(238,539,ls),
(229,575,o),
(224,656,o),
(223,680,c),
(191,643,l),
(337,653,l),
(341,710,l),
(296,708,o),
(208,705,o),
(183,705,cs),
(166,705,o),
(130,708,o),
(93,710,c),
(80,658,l),
(144,641,l),
(99,676,l),
(106,657,o),
(133,590,o),
(137,572,cs),
(270,0,l)
);
}
);
width = 657.1;
}
);
unicode = 86;
},
{
glyphname = Vturned;
kernLeft = UC_A;
kernRight = UC_A;
layers = (
{
anchors = (
{
name = bottom;
pos = (314,0);
},
{
name = top;
pos = (404,705);
}
);
background = {
shapes = (
{
closed = 1;
nodes = (
(96,-3,o),
(160,0,o),
(185,0,cs),
(270,0,l),
(275,53,l),
(170,68,l),
(201,42,l),
(204,68,o),
(205,100,o),
(214,128,cs),
(363,593,l),
(342,593,l),
(491,175,ls),
(508,131,o),
(516,89,o),
(524,41,c),
(552,74,l),
(446,42,l),
(449,-5,l),
(496,-3,o),
(563,0,o),
(588,0,cs),
(690,0,l),
(695,53,l),
(598,70,l),
(640,45,l),
(625,77,o),
(605,114,o),
(593,151,cs),
(386,715,l),
(331,705,l),
(154,160,ls),
(140,117,o),
(116,73,o),
(102,44,c),
(142,69,l),
(46,42,l),
(50,-5,l)
);
}
);
};
layerId = "3088057A-3552-44D5-8A67-1301E2609A93";
shapes = (
{
closed = 1;
nodes = (
(45,-3,o),
(108,0,o),
(133,0,cs),
(215,0,l),
(227,53,l),
(126,68,l),
(156,43,l),
(159,68,o),
(175,119,o),
(184,139,cs),
(385,576,l),
(375,576,l),
(454,170,ls),
(461,132,o),
(464,62,o),
(466,33,c),
(497,73,l),
(390,42,l),
(386,-5,l),
(433,-3,o),
(501,0,o),
(528,0,cs),
(623,0,l),
(635,53,l),
(542,69,l),
(584,41,l),
(579,54,o),
(558,118,o),
(554,138,cs),
(430,715,l),
(374,705,l),
(128,168,ls),
(111,130,o),
(68,57,o),
(59,45,c),
(101,69,l),
(4,42,l),
(1,-5,l)
);
}
);
width = 689;
},
{
anchors = (
{
name = bottom;
pos = (319,0);
},
{
name = top;
pos = (420,705);
}
);
background = {
shapes = (
{
closed = 1;
nodes = (
(89,-3,o),
(161,0,o),
(186,0,cs),
(286,0,l),
(291,67,l),
(165,81,l),
(225,22,l),
(225,64,o),
(229,91,o),
(237,118,cs),
(378,574,l),
(341,574,l),
(470,140,ls),
(480,108,o),
(484,80,o),
(492,7,c),
(546,87,l),
(418,60,l),
(423,-5,l),
(483,-3,o),
(587,0,o),
(612,0,cs),
(700,0,l),
(705,67,l),
(582,87,l),
(662,42,l),
(649,69,o),
(630,101,o),
(620,133,cs),
(419,716,l),
(320,705,l),
(134,161,ls),
(117,114,o),
(102,85,o),
(63,21,c),
(154,82,l),
(42,60,l),
(47,-5,l)
);
}
);
};
layerId = "B953D09C-6DD0-450A-A78C-8C2188DD4016";
shapes = (
{
closed = 1;
nodes = (
(43,-3,o),
(105,0,o),
(127,0,cs),
(235,0,l),
(249,67,l),
(135,80,l),
(188,35,l),
(190,62,o),
(194,97,o),
(204,120,cs),
(418,601,l),
(369,587,l),
(431,139,ls),
(435,113,o),
(429,61,o),
(427,44,c),
(486,85,l),
(369,61,l),
(363,-5,l),
(412,-3,o),
(480,0,o),
(510,0,cs),
(636,0,l),
(650,67,l),
(539,79,l),
(606,45,l),
(599,59,o),
(585,103,o),
(580,130,cs),
(467,716,l),
(366,705,l),
(109,162,ls),
(89,120,o),
(50,66,o),
(40,50,c),
(109,81,l),
(5,60,l),
(1,-5,l)
);
}
);
width = 700;
}
);
unicode = 581;
},
{
color = 6;
glyphname = W;
kernLeft = UC_V;
kernRight = UC_V;
layers = (
{
anchors = (
{
name = bottom;
pos = (458,0);
},
{
name = top;
pos = (544,705);
}
);
color = 6;
layerId = "B953D09C-6DD0-450A-A78C-8C2188DD4016";
shapes = (
{
closed = 1;
nodes = (
(328,0,l),
(545,496,l),
(514,499,l),
(592,0,l),
(694,0,l),
(936,541,ls),
(951,575,o),
(993,638,o),
(1007,656,c),
(936,620,l),
(1006,635,l),
(1013,710,l),
(966,708,o),
(920,705,o),
(894,705,cs),
(879,705,o),
(813,708,o),
(778,710,c),
(762,640,l),
(908,617,l),
(864,660,l),
(858,638,o),
(826,549,o),
(817,526,cs),
(661,140,l),
(688,136,l),
(619,678,l),
(520,678,l),
(294,141,l),
(321,136,l),
(280,541,ls),
(277,571,o),
(278,642,o),
(278,670,c),
(223,623,l),
(359,635,l),
(365,710,l),
(311,708,o),
(227,705,o),
(192,705,cs),
(173,705,o),
(132,708,o),
(92,710,c),
(77,640,l),
(171,618,l),
(109,652,l),
(115,631,o),
(130,559,o),
(136,526,cs),
(225,0,l)
);
}
);
width = 990;
},
{
anchors = (
{
name = bottom;
pos = (458,0);
},
{
name = top;
pos = (544,705);
}
);
layerId = "3088057A-3552-44D5-8A67-1301E2609A93";
shapes = (
{
closed = 1;
nodes = (
(306,0,l),
(540,543,l),
(521,546,l),
(617,0,l),
(675,0,l),
(910,538,ls),
(926,574,o),
(972,645,o),
(988,667,c),
(938,641,l),
(1010,653,l),
(1015,710,l),
(978,708,o),
(929,705,o),
(912,705,cs),
(894,705,o),
(827,708,o),
(790,710,c),
(776,657,l),
(912,640,l),
(884,664,l),
(880,649,o),
(863,593,o),
(854,572,cs),
(660,111,l),
(679,110,l),
(587,686,l),
(538,686,l),
(291,112,l),
(309,110,l),
(247,539,ls),
(242,573,o),
(234,657,o),
(233,680,c),
(201,643,l),
(336,653,l),
(340,710,l),
(295,708,o),
(218,705,o),
(193,705,cs),
(176,705,o),
(129,708,o),
(92,710,c),
(79,658,l),
(153,641,l),
(109,676,l),
(116,657,o),
(143,590,o),
(146,572,cs),
(248,0,l)
);
}
);
width = 991.1;
}
);
unicode = 87;
},
{
color = 6;
glyphname = X;
kernLeft = UC_X;
kernRight = UC_K;
layers = (
{
anchors = (
{
name = bottom;
pos = (343.672,0);
},
{
name = top;
pos = (430.235,705);
}
);
color = 6;
layerId = "B953D09C-6DD0-450A-A78C-8C2188DD4016";
shapes = (
{
closed = 1;
nodes = (
(53,-3,o),
(116,0,o),
(139,0,cs),
(250,0,l),
(265,67,l),
(157,80,l),
(193,42,l),
(208,67,o),
(237,113,o),
(253,134,cs),
(392,310,l),
(331,315,l),
(418,148,ls),
(432,121,o),
(452,65,o),
(459,40,c),
(504,83,l),
(399,61,l),
(394,-5,l),
(444,-3,o),
(515,0,o),
(545,0,cs),
(671,0,l),
(685,67,l),
(579,80,l),
(645,57,l),
(609,108,o),
(599,124,o),
(589,141,cs),
(435,425,l),
(427,331,l),
(603,558,ls),
(623,584,o),
(683,633,o),
(701,648,c),
(619,621,l),
(746,635,l),
(752,710,l),
(708,708,o),
(646,705,o),
(620,705,cs),
(600,705,o),
(547,708,o),
(510,710,c),
(495,639,l),
(595,620,l),
(560,664,l),
(547,640,o),
(509,585,o),
(494,564,cs),
(383,412,l),
(441,407,l),
(375,541,ls),
(357,578,o),
(338,634,o),
(334,655,c),
(285,623,l),
(390,634,l),
(396,710,l),
(344,708,o),
(274,705,o),
(240,705,cs),
(216,705,o),
(158,708,o),
(117,710,c),
(101,640,l),
(213,620,l),
(141,656,l),
(164,621,o),
(188,577,o),
(204,549,cs),
(339,296,l),
(348,390,l),
(164,165,ls),
(138,133,o),
(72,74,o),
(49,52,c),
(124,82,l),
(14,60,l),
(10,-5,l)
);
}
);
width = 746;
},
{
anchors = (
{
name = bottom;
pos = (339,0);
},
{
name = top;
pos = (424,705);
}
);
layerId = "3088057A-3552-44D5-8A67-1301E2609A93";
shapes = (
{
closed = 1;
nodes = (
(56,-3,o),
(126,0,o),
(154,0,cs),
(249,0,l),
(261,53,l),
(149,68,l),
(175,49,l),
(184,66,o),
(217,119,o),
(232,137,cs),
(387,332,l),
(349,335,l),
(438,169,ls),
(457,132,o),
(485,71,o),
(484,50,c),
(516,72,l),
(406,42,l),
(404,-5,l),
(458,-3,o),
(533,0,o),
(567,0,cs),
(659,0,l),
(671,53,l),
(575,69,l),
(620,49,l),
(609,61,o),
(566,117,o),
(556,137,cs),
(414,398,l),
(409,340,l),
(559,536,ls),
(587,572,o),
(663,640,o),
(678,651,c),
(637,642,l),
(739,653,l),
(744,710,l),
(703,708,o),
(652,705,o),
(619,705,cs),
(588,705,o),
(539,708,o),
(499,710,c),
(485,657,l),
(595,639,l),
(569,656,l),
(559,643,o),
(527,588,o),
(512,568,cs),
(380,391,l),
(417,388,l),
(337,538,ls),
(317,574,o),
(298,644,o),
(297,655,c),
(264,643,l),
(379,653,l),
(383,710,l),
(335,708,o),
(280,705,o),
(241,705,cs),
(208,705,o),
(158,708,o),
(116,710,c),
(103,658,l),
(212,643,l),
(170,660,l),
(178,649,o),
(208,594,o),
(221,570,cs),
(352,326,l),
(358,382,l),
(183,167,ls),
(153,131,o),
(85,71,o),
(63,51,c),
(106,70,l),
(11,42,l),
(8,-5,l)
);
}
);
width = 733.9;
}
);
unicode = 88;
},
{
color = 6;
glyphname = Y;
kernLeft = UC_V;
kernRight = UC_V;
layers = (
{
anchors = (
{
name = bottom;
pos = (300,0);
},
{
name = top;
pos = (401,720);
},
{
name = topleft;
pos = (87,705);
}
);
color = 6;
layerId = "B953D09C-6DD0-450A-A78C-8C2188DD4016";
shapes = (
{
closed = 1;
nodes = (
(397,218,l),
(605,541,ls),
(627,575,o),
(684,640,o),
(696,656,c),
(621,620,l),
(701,635,l),
(708,710,l),
(662,708,o),
(604,705,o),
(579,705,cs),
(564,705,o),
(508,708,o),
(473,710,c),
(458,640,l),
(594,617,l),
(549,660,l),
(543,638,o),
(496,548,o),
(483,527,cs),
(349,315,l),
(398,310,l),
(309,556,ls),
(302,575,o),
(292,647,o),
(292,670,c),
(232,623,l),
(358,635,l),
(364,710,l),
(310,708,o),
(234,705,o),
(201,705,cs),
(181,705,o),
(132,708,o),
(92,710,c),
(77,640,l),
(179,618,l),
(113,652,l),
(121,635,o),
(163,556,o),
(174,528,cs),
(295,218,l)
);
},
{
closed = 1;
nodes = (
(211,-3,o),
(290,0,o),
(318,0,cs),
(463,0,l),
(477,66,l),
(344,79,l),
(400,39,l),
(400,62,o),
(401,132,o),
(409,186,cs),
(430,328,l),
(291,328,l),
(265,156,ls),
(261,130,o),
(244,73,o),
(237,47,c),
(300,83,l),
(166,60,l),
(162,-5,l)
);
}
);
width = 683;
},
{
anchors = (
{
name = bottom;
pos = (273,0);
},
{
name = top;
pos = (374,720);
},
{
name = topleft;
pos = (87,705);
}
);
layerId = "3088057A-3552-44D5-8A67-1301E2609A93";
shapes = (
{
closed = 1;
nodes = (
(332,238,l),
(527,538,ls),
(551,575,o),
(613,650,o),
(626,667,c),
(577,641,l),
(648,653,l),
(653,710,l),
(616,708,o),
(568,705,o),
(550,705,cs),
(533,705,o),
(476,708,o),
(439,710,c),
(425,657,l),
(551,640,l),
(520,664,l),
(517,649,o),
(485,592,o),
(473,572,cs),
(313,313,l),
(343,310,l),
(256,537,ls),
(246,564,o),
(229,654,o),
(229,680,c),
(200,643,l),
(325,653,l),
(329,710,l),
(284,708,o),
(218,705,o),
(192,705,cs),
(176,705,o),
(129,708,o),
(92,710,c),
(79,658,l),
(153,641,l),
(106,676,l),
(116,657,o),
(149,590,o),
(155,572,cs),
(275,238,l)
);
},
{
closed = 1;
nodes = (
(182,-3,o),
(257,0,o),
(282,0,cs),
(414,0,l),
(428,53,l),
(297,63,l),
(331,27,l),
(329,59,o),
(335,130,o),
(340,165,cs),
(361,310,l),
(275,310,l),
(249,135,ls),
(246,116,o),
(226,49,o),
(219,22,c),
(264,67,l),
(140,44,l),
(138,-5,l)
);
}
);
width = 629.1;
}
);
unicode = 89;
},
{
color = 6;
glyphname = Z;
kernLeft = UC_Z;
kernRight = UC_Z;
layers = (
{
anchors = (
{
name = bottom;
pos = (276,0);
},
{
name = center;
pos = (326,353);
},
{
name = top;
pos = (367,720);
}
);
color = 6;
layerId = "B953D09C-6DD0-450A-A78C-8C2188DD4016";
shapes = (
{
closed = 1;
nodes = (
(529,14,l),
(567,192,l),
(504,197,l),
(500,181,o),
(489,148,o),
(483,134,cs),
(478,121,o),
(451,79,o),
(429,48,c),
(508,98,l),
(485,93,o),
(415,81,o),
(374,81,cs),
(157,81,l),
(194,50,l),
(224,98,o),
(267,171,o),
(289,201,cs),
(487,471,ls),
(520,516,o),
(564,572,o),
(611,631,c),
(612,705,l),
(253,705,ls),
(237,705,o),
(182,710,o),
(143,714,c),
(121,696,l),
(90,516,l),
(157,511,l),
(162,532,o),
(173,571,o),
(177,580,cs),
(183,593,o),
(208,635,o),
(227,666,c),
(173,618,l),
(184,618,o),
(236,624,o),
(279,624,cs),
(491,624,l),
(454,657,l),
(429,613,o),
(395,553,o),
(372,522,cs),
(158,232,ls),
(131,195,o),
(81,136,o),
(29,74,c),
(28,0,l),
(396,0,ls),
(415,0,o),
(469,-2,o),
(506,-4,c)
);
}
);
width = 623;
},
{
anchors = (
{
name = bottom;
pos = (245,0);
},
{
name = center;
pos = (306,353);
},
{
name = top;
pos = (347,720);
}
);
layerId = "3088057A-3552-44D5-8A67-1301E2609A93";
shapes = (
{
closed = 1;
nodes = (
(488,14,l),
(524,173,l),
(472,178,l),
(467,161,o),
(455,115,o),
(448,100,cs),
(442,86,o),
(421,61,o),
(406,44,c),
(466,72,l),
(449,68,o),
(374,55,o),
(337,55,cs),
(103,55,l),
(125,36,l),
(153,78,o),
(192,141,o),
(209,164,cs),
(451,496,ls),
(479,536,o),
(540,606,o),
(577,651,c),
(577,705,l),
(259,705,ls),
(241,705,o),
(185,708,o),
(149,710,c),
(128,692,l),
(96,529,l),
(153,524,l),
(159,547,o),
(171,594,o),
(178,610,cs),
(182,618,o),
(204,649,o),
(215,664,c),
(185,646,l),
(196,647,o),
(246,652,o),
(279,652,cs),
(497,652,l),
(475,671,l),
(449,628,o),
(414,572,o),
(390,540,cs),
(151,218,ls),
(132,192,o),
(66,106,o),
(22,55,c),
(21,0,l),
(358,0,ls),
(385,0,o),
(431,-2,o),
(468,-4,c)
);
}
);
width = 582.3;
}
);
unicode = 90;
},
{
color = 6;
glyphname = saltillo.case;
kernLeft = saltillo;
kernRight = saltillo;
layers = (
{
color = 6;
layerId = "B953D09C-6DD0-450A-A78C-8C2188DD4016";
shapes = (
{
closed = 1;
nodes = (
(192,638,l),
(176,655,l),
(77,655,l),
(77,655,o),
(73,458,o),
(71,443,c),
(37,260,l),
(113,253,l)
);
}
);
width = 167;
},
{
layerId = "3088057A-3552-44D5-8A67-1301E2609A93";
shapes = (
{
closed = 1;
nodes = (
(167,638,l),
(151,655,l),
(83,655,l),
(83,655,o),
(74,459,o),
(72,444,c),
(39,269,l),
(88,265,l)
);
}
);
width = 141.7;
}
);
userData = {
RMXScaler = {
source = saltillo;
};
};
},
{
category = Letter;
color = 6;
glyphname = C.ss02;
kernLeft = C.ss02;
kernRight = C.ss02;
layers = (
{
anchors = (
{
name = bottom;
pos = (405,34);
},
{
name = top;
pos = (484,669);
}
);
color = 6;
layerId = "B953D09C-6DD0-450A-A78C-8C2188DD4016";
shapes = (
{
closed = 1;
nodes = (
(470,20,o),
(546,36,o),
(607,50,c),
(620,212,l),
(546,210,l),
(546,210,o),
(539,178,o),
(537,168,c),
(536,155,o),
(504,104,o),
(491,83,c),
(570,139,l),
(493,122,o),
(456,115,o),
(402,115,cs),
(312,115,o),
(279,186,o),
(279,282,cs),
(279,464,o),
(352,585,o),
(462,585,cs),
(518,585,o),
(552,577,o),
(614,563,c),
(552,618,l),
(559,589,o),
(571,552,o),
(570,542,cs),
(565,482,l),
(640,478,l),
(674,650,l),
(615,667,o),
(556,681,o),
(474,681,cs),
(245,681,o),
(94,526,o),
(94,292,cs),
(94,129,o),
(192,20,o),
(391,20,cs)
);
},
{
closed = 1;
nodes = (
(683,0,l),
(695,60,l),
(34,60,l),
(31,0,l)
);
},
{
closed = 1;
nodes = (
(776,645,l),
(779,705,l),
(119,705,l),
(114,645,l)
);
}
);
userData = {
RMXScaler = {
height = 90;
verticalShift = 34;
width = 95;
};
};
width = 761;
},
{
anchors = (
{
name = bottom;
pos = (378,34);
},
{
name = top;
pos = (463,669);
}
);
layerId = "3088057A-3552-44D5-8A67-1301E2609A93";
shapes = (
{
closed = 1;
nodes = (
(449,21,o),
(517,37,o),
(577,51,c),
(590,190,l),
(535,188,l),
(535,188,o),
(529,155,o),
(527,146,c),
(525,134,o),
(508,99,o),
(493,70,c),
(529,104,l),
(486,89,o),
(425,78,o),
(379,78,cs),
(269,78,o),
(219,167,o),
(219,289,cs),
(219,483,o),
(318,625,o),
(453,625,cs),
(497,625,o),
(551,612,o),
(588,597,c),
(562,631,l),
(566,609,o),
(574,574,o),
(572,562,cs),
(566,517,l),
(621,513,l),
(650,651,l),
(590,667,o),
(538,682,o),
(462,682,cs),
(256,682,o),
(117,522,o),
(117,285,cs),
(117,126,o),
(201,21,o),
(372,21,cs)
);
},
{
closed = 1;
nodes = (
(629,0,l),
(640,42,l),
(14,42,l),
(13,0,l)
);
},
{
closed = 1;
nodes = (
(723,659,l),
(724,705,l),
(109,705,l),
(98,659,l)
);
}
);
userData = {
RMXScaler = {
height = 90;
verticalShift = 34;
width = 95;
};
};
width = 708.2;
}
);
script = latin;
subCategory = Other;
userData = {
RMXScaler = {
source = C;
};
};
},
{
category = Letter;
color = 6;
glyphname = D.ss02;
kernLeft = D.ss02;
kernRight = D.ss02;
layers = (
{
color = 6;
layerId = "B953D09C-6DD0-450A-A78C-8C2188DD4016";
shapes = (
{
closed = 1;
nodes = (
(613,26,o),
(758,183,o),
(758,405,cs),
(758,562,o),
(661,673,o),
(464,673,cs),
(212,673,l),
(216,610,o),
(216,550,o),
(212,513,cs),
(172,190,ls),
(170,178,o),
(169,163,o),
(134,37,c),
(384,31,ls)
);
},
{
closed = 1;
nodes = (
(734,0,l),
(747,60,l),
(18,60,l),
(15,0,l)
);
},
{
closed = 1;
nodes = (
(321,80,o),
(330,180,o),
(334,217,cs),
(368,486,ls),
(373,524,o),
(391,619,o),
(392,633,c),
(351,585,l),
(368,587,o),
(423,590,o),
(437,590,cs),
(548,590,o),
(586,513,o),
(586,413,cs),
(586,227,o),
(506,112,o),
(375,112,cs),
(345,112,o),
(303,114,o),
(288,115,c),
(323,64,l)
);
},
{
closed = 1;
nodes = (
(820,645,l),
(823,705,l),
(103,705,l),
(98,645,l)
);
}
);
userData = {
RMXScaler = {
height = 90;
verticalShift = 34;
width = 95;
};
};
width = 824;
},
{
layerId = "3088057A-3552-44D5-8A67-1301E2609A93";
shapes = (
{
closed = 1;
nodes = (
(515,30,o),
(667,185,o),
(667,409,cs),
(667,571,o),
(570,673,o),
(387,673,cs),
(181,673,l),
(179,632,o),
(179,549,o),
(178,542,cs),
(126,161,ls),
(124,146,o),
(104,76,o),
(91,29,c),
(299,30,l)
);
},
{
closed = 1;
nodes = (
(659,0,l),
(670,42,l),
(14,42,l),
(13,0,l)
);
},
{
closed = 1;
nodes = (
(214,86,o),
(213,131,o),
(222,188,cs),
(266,515,ls),
(271,552,o),
(288,629,o),
(293,642,c),
(270,615,l),
(291,615,o),
(332,615,o),
(380,615,cs),
(512,615,o),
(570,522,o),
(570,402,cs),
(570,218,o),
(461,87,o),
(309,87,cs),
(260,87,o),
(222,90,o),
(198,90,c),
(213,66,l)
);
},
{
closed = 1;
nodes = (
(754,659,l),
(756,705,l),
(109,705,l),
(97,659,l)
);
}
);
userData = {
RMXScaler = {
height = 90;
verticalShift = 34;
width = 95;
};
};
width = 743.7;
}
);
script = latin;
subCategory = Other;
userData = {
RMXScaler = {
source = D;
};
};
},
{
category = Letter;
color = 6;
glyphname = I.ss02;
kernLeft = I.ss02;
kernRight = I.ss02;
layers = (
{
anchors = (
{
name = bottom;
pos = (258,34);
},
{
name = ogonek;
pos = (258,34);
},
{
name = top;
pos = (339,669);
}
);
color = 6;
layerId = "B953D09C-6DD0-450A-A78C-8C2188DD4016";
shapes = (
{
closed = 1;
nodes = (
(335,54,l),
(333,87,o),
(335,172,o),
(340,217,cs),
(374,486,ls),
(381,539,o),
(397,605,o),
(414,660,c),
(219,657,l),
(224,617,o),
(221,542,o),
(218,513,cs),
(176,190,ls),
(172,159,o),
(152,89,o),
(142,54,c)
);
},
{
closed = 1;
nodes = (
(446,0,l),
(459,60,l),
(18,60,l),
(15,0,l)
);
},
{
closed = 1;
nodes = (
(531,645,l),
(534,705,l),
(103,705,l),
(98,645,l)
);
}
);
userData = {
RMXScaler = {
height = 90;
verticalShift = 34;
width = 95;
};
};
width = 523;
},
{
anchors = (
{
name = bottom;
pos = (191,34);
},
{
name = ogonek;
pos = (191,34);
},
{
name = top;
pos = (288,669);
}
);
layerId = "3088057A-3552-44D5-8A67-1301E2609A93";
shapes = (
{
closed = 1;
nodes = (
(249,36,l),
(248,57,o),
(254,138,o),
(261,188,cs),
(310,515,ls),
(317,561,o),
(338,651,o),
(345,672,c),
(229,671,l),
(230,650,o),
(224,563,o),
(221,542,cs),
(164,161,ls),
(161,140,o),
(138,54,o),
(132,36,c)
);
},
{
closed = 1;
nodes = (
(379,0,l),
(390,42,l),
(8,42,l),
(6,0,l)
);
},
{
closed = 1;
nodes = (
(484,659,l),
(487,705,l),
(114,705,l),
(104,659,l)
);
}
);
userData = {
RMXScaler = {
height = 90;
verticalShift = 34;
width = 95;
};
};
width = 462.5;
}
);
script = latin;
subCategory = Other;
userData = {
RMXScaler = {
source = I;
};
};
},
{
category = Letter;
color = 6;
glyphname = L.ss02;
kernLeft = L.ss02;
kernRight = L.ss02;
layers = (
{
anchors = (
{
name = bottom;
pos = (289,34);
},
{
name = center;
pos = (228,354);
},
{
name = centerright;
pos = (488,352);
},
{
name = top;
pos = (368,669);
},
{
name = topright;
pos = (503,479);
}
);
color = 6;
layerId = "B953D09C-6DD0-450A-A78C-8C2188DD4016";
shapes = (
{
closed = 1;
nodes = (
(393,34,l),
(411,34,o),
(499,30,o),
(499,30,c),
(519,47,l),
(553,214,l),
(485,218,l),
(481,202,o),
(476,189,o),
(468,169,cs),
(461,151,o),
(443,117,o),
(400,70,c),
(472,136,l),
(461,133,o),
(420,123,o),
(376,123,cs),
(256,123,l),
(294,54,l),
(292,87,o),
(291,168,o),
(298,217,cs),
(332,486,ls),
(340,546,o),
(357,612,o),
(371,660,c),
(177,657,l),
(183,614,o),
(179,543,o),
(176,513,cs),
(136,190,ls),
(132,158,o),
(111,86,o),
(102,54,c),
(99,30,l)
);
},
{
closed = 1;
nodes = (
(569,0,l),
(582,60,l),
(13,60,l),
(10,0,l)
);
},
{
closed = 1;
nodes = (
(644,645,l),
(646,705,l),
(107,705,l),
(102,645,l)
);
}
);
userData = {
RMXScaler = {
height = 90;
verticalShift = 34;
width = 95;
};
};
width = 647;
},
{
anchors = (
{
name = bottom;
pos = (233,34);
},
{
name = center;
pos = (182,354);
},
{
name = centerright;
pos = (442,352);
},
{
name = top;
pos = (316,669);
},
{
name = topright;
pos = (458,479);
}
);
layerId = "3088057A-3552-44D5-8A67-1301E2609A93";
shapes = (
{
closed = 1;
nodes = (
(358,34,l),
(375,34,o),
(463,30,o),
(463,30,c),
(478,28,l),
(515,187,l),
(463,191,l),
(460,179,o),
(447,147,o),
(442,132,cs),
(437,119,o),
(423,103,o),
(397,72,c),
(434,101,l),
(419,98,o),
(374,90,o),
(336,90,cs),
(196,90,l),
(229,58,l),
(228,77,o),
(227,132,o),
(234,188,cs),
(277,515,ls),
(284,567,o),
(301,635,o),
(307,661,c),
(194,660,l),
(196,635,o),
(193,557,o),
(191,542,cs),
(142,161,ls),
(139,140,o),
(121,81,o),
(114,58,c),
(111,30,l)
);
},
{
closed = 1;
nodes = (
(554,0,l),
(564,42,l),
(15,42,l),
(14,0,l)
);
},
{
closed = 1;
nodes = (
(625,659,l),
(626,705,l),
(107,705,l),
(95,659,l)
);
}
);
userData = {
RMXScaler = {
height = 90;
verticalShift = 34;
width = 95;
};
};
width = 628.3;
}
);
script = latin;
subCategory = Other;
userData = {
RMXScaler = {
source = L;
};
};
},
{
category = Letter;
color = 6;
glyphname = M.ss02;
kernLeft = M.ss02;
kernRight = M.ss02;
layers = (
{
anchors = (
{
name = bottom;
pos = (512,34);
}
);
color = 6;
layerId = "B953D09C-6DD0-450A-A78C-8C2188DD4016";
shapes = (
{
closed = 1;
nodes = (
(234,48,l),
(236,93,o),
(240,163,o),
(250,217,cs),
(310,543,l),
(286,540,l),
(426,100,l),
(519,100,l),
(775,539,l),
(751,543,l),
(725,190,ls),
(723,160,o),
(705,76,o),
(700,48,c),
(871,48,l),
(868,64,o),
(864,162,o),
(866,215,cs),
(878,486,ls),
(880,535,o),
(891,600,o),
(900,673,c),
(729,669,l),
(707,651,l),
(707,651,o),
(664,552,o),
(653,532,cs),
(485,222,l),
(525,222,l),
(442,517,ls),
(432,552,o),
(417,651,o),
(417,651,c),
(399,669,l),
(208,673,l),
(204,600,o),
(201,529,o),
(198,512,cs),
(135,190,ls),
(129,160,o),
(110,97,o),
(93,48,c)
);
},
{
closed = 1;
nodes = (
(944,0,l),
(957,60,l),
(11,60,l),
(8,0,l)
);
},
{
closed = 1;
nodes = (
(1006,645,l),
(1008,705,l),
(115,705,l),
(110,645,l)
);
}
);
userData = {
RMXScaler = {
height = 90;
verticalShift = 34;
};
};
width = 1017;
},
{
anchors = (
{
name = bottom;
pos = (424,34);
}
);
layerId = "3088057A-3552-44D5-8A67-1301E2609A93";
shapes = (
{
closed = 1;
nodes = (
(177,36,l),
(176,53,o),
(182,158,o),
(187,188,cs),
(265,586,l),
(251,584,l),
(416,100,l),
(449,100,l),
(741,584,l),
(727,586,l),
(702,161,ls),
(700,130,o),
(678,52,o),
(674,36,c),
(800,36,l),
(795,67,o),
(791,169,o),
(792,188,cs),
(808,515,ls),
(809,536,o),
(815,571,o),
(832,673,c),
(729,669,l),
(707,651,l),
(707,651,o),
(650,539,o),
(637,519,c),
(448,200,l),
(473,200,l),
(369,510,l),
(364,534,o),
(336,650,o),
(336,650,c),
(320,669,l),
(201,673,l),
(203,629,o),
(200,564,o),
(196,542,cs),
(121,161,ls),
(117,141,o),
(84,54,o),
(77,36,c)
);
},
{
closed = 1;
nodes = (
(851,0,l),
(861,42,l),
(15,42,l),
(15,0,l)
);
},
{
closed = 1;
nodes = (
(943,659,l),
(944,705,l),
(106,705,l),
(95,659,l)
);
}
);
userData = {
RMXScaler = {
height = 90;
verticalShift = 34;
};
};
width = 929;
}
);
script = latin;
subCategory = Other;
userData = {
RMXScaler = {
source = M;
};
};
},
{
category = Letter;
color = 6;
glyphname = V.ss02;
kernLeft = V.ss02;
kernRight = V.ss02;
layers = (
{
anchors = (
{
name = bottom;
pos = (397,34);
},
{
name = top;
pos = (476,669);
}
);
color = 6;
layerId = "B953D09C-6DD0-450A-A78C-8C2188DD4016";
shapes = (
{
closed = 1;
nodes = (
(460,56,l),
(701,505,ls),
(720,540,o),
(783,633,o),
(795,648,c),
(629,648,l),
(624,628,o),
(595,552,o),
(585,531,cs),
(415,200,l),
(454,200,l),
(382,509,ls),
(378,527,o),
(362,619,o),
(365,649,c),
(173,648,l),
(177,638,o),
(203,573,o),
(210,546,cs),
(344,56,l)
);
},
{
closed = 1;
nodes = (
(742,0,l),
(755,60,l),
(67,60,l),
(64,0,l)
);
},
{
closed = 1;
nodes = (
(880,646,l),
(882,706,l),
(94,706,l),
(89,646,l)
);
}
);
userData = {
RMXScaler = {
height = 90;
verticalShift = 34;
};
};
width = 856;
},
{
anchors = (
{
name = bottom;
pos = (390,34);
},
{
name = top;
pos = (473,669);
}
);
layerId = "3088057A-3552-44D5-8A67-1301E2609A93";
shapes = (
{
closed = 1;
nodes = (
(431,37,l),
(696,550,l),
(726,604,o),
(758,647,o),
(771,666,c),
(664,668,l),
(660,648,o),
(653,603,o),
(641,579,cs),
(414,145,l),
(438,145,l),
(316,541,l),
(301,582,o),
(298,642,o),
(298,667,c),
(173,661,l),
(180,646,o),
(204,604,o),
(217,564,cs),
(375,37,l)
);
},
{
closed = 1;
nodes = (
(722,0,l),
(733,42,l),
(49,42,l),
(49,0,l)
);
},
{
closed = 1;
nodes = (
(851,659,l),
(852,705,l),
(102,705,l),
(90,659,l)
);
}
);
userData = {
RMXScaler = {
height = 90;
verticalShift = 34;
};
};
width = 827.4;
}
);
script = latin;
subCategory = Other;
userData = {
RMXScaler = {
source = V;
};
};
},
{
category = Letter;
color = 6;
glyphname = X.ss02;
kernLeft = X.ss02;
kernRight = X.ss02;
layers = (
{
color = 6;
layerId = "B953D09C-6DD0-450A-A78C-8C2188DD4016";
shapes = (
{
closed = 1;
nodes = (
(278,58,o),
(304,98,o),
(321,123,cs),
(448,299,l),
(374,299,l),
(456,132,ls),
(471,101,o),
(487,60,o),
(496,39,c),
(710,42,l),
(686,72,o),
(668,103,o),
(656,123,cs),
(492,431,l),
(481,322,l),
(665,575,ls),
(675,589,o),
(703,622,o),
(737,655,c),
(598,677,l),
(551,601,o),
(555,609,o),
(539,584,cs),
(428,417,l),
(498,417,l),
(436,564,ls),
(422,598,o),
(410,631,o),
(402,655,c),
(182,655,l),
(203,624,o),
(225,592,o),
(238,566,cs),
(382,284,l),
(396,393,l),
(214,152,ls),
(195,127,o),
(135,70,o),
(116,51,c),
(265,37,l)
);
},
{
closed = 1;
nodes = (
(740,0,l),
(752,60,l),
(19,60,l),
(15,0,l)
);
},
{
closed = 1;
nodes = (
(825,646,l),
(829,706,l),
(103,706,l),
(101,646,l)
);
}
);
userData = {
RMXScaler = {
height = 90;
verticalShift = 34;
width = 95;
};
};
width = 816;
},
{
layerId = "3088057A-3552-44D5-8A67-1301E2609A93";
shapes = (
{
closed = 1;
nodes = (
(202,65,o),
(227,104,o),
(242,123,cs),
(396,328,l),
(361,328,l),
(454,132,ls),
(469,100,o),
(482,64,o),
(491,42,c),
(625,42,l),
(605,67,o),
(573,110,o),
(566,123,cs),
(429,397,l),
(422,335,l),
(578,550,ls),
(588,564,o),
(662,650,o),
(675,664,c),
(579,662,l),
(536,596,o),
(541,606,o),
(527,584,cs),
(392,390,l),
(432,391,l),
(352,564,ls),
(337,597,o),
(322,653,o),
(317,665,c),
(185,663,l),
(194,649,o),
(234,590,o),
(246,566,cs),
(363,321,l),
(369,382,l),
(191,152,ls),
(171,126,o),
(98,56,o),
(84,42,c),
(189,44,l)
);
},
{
closed = 1;
nodes = (
(687,0,l),
(697,42,l),
(15,42,l),
(13,0,l)
);
},
{
closed = 1;
nodes = (
(778,659,l),
(781,705,l),
(105,705,l),
(97,659,l)
);
}
);
userData = {
RMXScaler = {
height = 90;
verticalShift = 34;
width = 95;
};
};
width = 764.3;
}
);
script = latin;
subCategory = Other;
userData = {
RMXScaler = {
source = X;
};
};
},
{
color = 6;
glyphname = A;
kernLeft = UC_A;
kernRight = UC_A;
layers = (
{
anchors = (
{
name = bottom;
pos = (319,0);
},
{
name = ogonek;
pos = (585,10);
},
{
name = top;
pos = (420,705);
}
);
color = 6;
layerId = "B953D09C-6DD0-450A-A78C-8C2188DD4016";
shapes = (
{
closed = 1;
nodes = (
(43,-3,o),
(105,0,o),
(127,0,cs),
(235,0,l),
(249,67,l),
(135,80,l),
(188,35,l),
(190,62,o),
(194,97,o),
(204,120,cs),
(418,601,l),
(369,587,l),
(431,139,ls),
(435,113,o),
(429,61,o),
(427,44,c),
(486,85,l),
(369,61,l),
(363,-5,l),
(412,-3,o),
(480,0,o),
(510,0,cs),
(636,0,l),
(650,67,l),
(539,79,l),
(606,45,l),
(599,59,o),
(585,103,o),
(580,130,cs),
(467,716,l),
(366,705,l),
(109,162,ls),
(89,120,o),
(50,66,o),
(40,50,c),
(109,81,l),
(5,60,l),
(1,-5,l)
);
},
{
closed = 1;
nodes = (
(447,192,l),
(437,269,l),
(247,266,l),
(215,192,l)
);
}
);
width = 700;
},
{
anchors = (
{
name = bottom;
pos = (314,0);
},
{
name = ogonek;
pos = (574,10);
},
{
name = top;
pos = (404,705);
}
);
layerId = "3088057A-3552-44D5-8A67-1301E2609A93";
shapes = (
{
closed = 1;
nodes = (
(45,-3,o),
(108,0,o),
(133,0,cs),
(215,0,l),
(227,53,l),
(126,68,l),
(156,43,l),
(159,68,o),
(175,119,o),
(184,139,cs),
(385,576,l),
(375,576,l),
(454,170,ls),
(461,132,o),
(464,62,o),
(466,33,c),
(497,73,l),
(390,42,l),
(386,-5,l),
(433,-3,o),
(501,0,o),
(528,0,cs),
(623,0,l),
(635,53,l),
(542,69,l),
(584,41,l),
(579,54,o),
(558,118,o),
(554,138,cs),
(430,715,l),
(374,705,l),
(128,168,ls),
(111,130,o),
(68,57,o),
(59,45,c),
(101,69,l),
(4,42,l),
(1,-5,l)
);
},
{
closed = 1;
nodes = (
(451,236,l),
(448,288,l),
(235,284,l),
(214,236,l)
);
}
);
width = 689;
}
);
subCategory = Uppercase;
unicode = 65;
},
{
color = 6;
glyphname = Schwa;
kernLeft = UC_Schwa;
kernRight = UC_Round;
layers = (
{
color = 6;
layerId = "B953D09C-6DD0-450A-A78C-8C2188DD4016";
shapes = (
{
closed = 1;
nodes = (
(182,71,o),
(153,139,o),
(200,209,cs),
(239,267,o),
(342,320,o),
(480,332,c),
(480,412,l),
(193,376,o),
(28,275,o),
(28,120,cs),
(28,-96,o),
(420,-43,o),
(552,151,cs),
(607,232,o),
(654,333,o),
(654,452,cs),
(654,620,o),
(570,712,o),
(416,712,cs),
(293,712,o),
(173,639,o),
(88,523,c),
(148,473,l),
(212,536,o),
(291,596,o),
(377,596,cs),
(441,596,o),
(473,545,o),
(473,443,cs),
(473,239,o),
(401,113,o),
(287,91,cs)
);
}
);
userData = {
RMXScaler = {
height = 140;
weight = 40;
width = 153;
};
};
width = 681;
},
{
layerId = "3088057A-3552-44D5-8A67-1301E2609A93";
shapes = (
{
closed = 1;
nodes = (
(162,67,o),
(143,123,o),
(177,189,cs),
(218,269,o),
(342,323,o),
(490,343,c),
(490,400,l),
(219,356,o),
(48,237,o),
(48,94,cs),
(48,-75,o),
(380,-31,o),
(494,128,cs),
(559,219,o),
(608,329,o),
(608,459,cs),
(608,617,o),
(530,703,o),
(396,703,cs),
(257,703,o),
(154,646,o),
(72,516,c),
(113,487,l),
(193,588,o),
(286,637,o),
(370,637,cs),
(456,637,o),
(494,585,o),
(494,461,cs),
(494,225,o),
(380,50,o),
(244,60,cs)
);
}
);
userData = {
RMXScaler = {
height = 140;
weight = 30;
width = 153;
};
};
width = 638.1;
}
);
subCategory = Uppercase;
unicode = 399;
userData = {
RMXScaler = {
source = schwa;
};
};
},
{
color = 6;
glyphname = Nhookleft;
kernLeft = UC_J;
kernRight = UC_N;
layers = (
{
anchors = (
{
name = bottom;
pos = (350,0);
},
{
name = top;
pos = (449,705);
}
);
color = 6;
layerId = "B953D09C-6DD0-450A-A78C-8C2188DD4016";
shapes = (
{
closed = 1;
nodes = (
(72,-202,o),
(180,-122,o),
(195,-3,cs),
(213,139,o),
(236,294,o),
(268,512,c),
(229,505,l),
(503,0,l),
(640,0,l),
(719,542,ls),
(723,571,o),
(738,617,o),
(752,657,c),
(677,617,l),
(804,629,l),
(811,710,l),
(769,708,o),
(687,705,o),
(655,705,cs),
(640,705,o),
(585,708,o),
(550,710,c),
(534,635,l),
(657,611,l),
(595,672,l),
(595,644,o),
(597,581,o),
(587,512,cs),
(537,168,l),
(576,175,l),
(380,537,l),
(317,685,l),
(302,705,l),
(223,705,ls),
(203,705,o),
(143,708,o),
(103,710,c),
(87,635,l),
(210,611,l),
(148,666,l),
(148,644,o),
(151,580,o),
(140,512,cs),
(113,339,o),
(94,199,o),
(64,23,cs),
(50,-58,o),
(23,-109,o),
(-25,-109,c),
(-42,-189,l)
);
}
);
width = 787;
},
{
anchors = (
{
name = bottom;
pos = (317,0);
},
{
name = top;
pos = (416,705);
}
);
layerId = "3088057A-3552-44D5-8A67-1301E2609A93";
shapes = (
{
closed = 1;
nodes = (
(19,-193,o),
(109,-144,o),
(129,6,cs),
(140,87,o),
(180,342,o),
(216,600,c),
(196,596,l),
(510,0,l),
(570,0,l),
(650,538,ls),
(656,575,o),
(682,654,o),
(689,668,c),
(647,643,l),
(758,653,l),
(763,710,l),
(731,708,o),
(673,705,o),
(642,705,cs),
(626,705,o),
(570,708,o),
(534,710,c),
(521,658,l),
(628,641,l),
(595,675,l),
(596,654,o),
(596,589,o),
(594,574,cs),
(527,123,l),
(547,127,l),
(329,529,l),
(258,685,l),
(242,705,l),
(208,705,ls),
(189,705,o),
(131,708,o),
(92,710,c),
(79,658,l),
(187,641,l),
(154,680,l),
(154,664,o),
(154,589,o),
(152,574,cs),
(105,255,o),
(92,152,o),
(71,11,cs),
(57,-80,o),
(14,-144,o),
(-70,-151,c),
(-76,-195,l)
);
}
);
width = 738.6;
}
);
subCategory = Uppercase;
unicode = 413;
},
{
color = 6;
glyphname = Germandbls;
kernLeft = UC_Round;
kernRight = UC_G;
layers = (
{
color = 6;
layerId = "B953D09C-6DD0-450A-A78C-8C2188DD4016";
shapes = (
{
closed = 1;
nodes = (
(53,-3,o),
(122,0,o),
(153,0,cs),
(200,0,l),
(225,24,l),
(226,49,o),
(238,148,o),
(243,186,cs),
(282,459,ls),
(307,631,o),
(422,674,o),
(629,605,c),
(625,666,l),
(386,353,l),
(487,320,l),
(746,660,l),
(732,701,l),
(332,754,o),
(180,691,o),
(146,465,cs),
(100,156,ls),
(95,122,o),
(78,62,o),
(70,29,c),
(134,83,l),
(5,60,l),
(2,-5,l)
);
},
{
closed = 1;
nodes = (
(622,-15,o),
(719,71,o),
(724,216,cs),
(728,319,o),
(679,364,o),
(609,406,cs),
(494,475,l),
(386,353,l),
(490,291,ls),
(533,265,o),
(571,236,o),
(571,179,cs),
(571,67,o),
(469,34,o),
(385,101,c),
(413,58,l),
(409,70,o),
(404,126,o),
(403,142,c),
(413,212,l),
(335,217,l),
(293,34,l),
(359,3,o),
(435,-15,o),
(472,-15,cs)
);
}
);
width = 773;
},
{
layerId = "3088057A-3552-44D5-8A67-1301E2609A93";
shapes = (
{
closed = 1;
nodes = (
(49,-3,o),
(103,0,o),
(142,0,cs),
(166,0,l),
(185,16,l),
(188,39,o),
(195,139,o),
(199,165,cs),
(239,439,ls),
(263,606,o),
(351,710,o),
(632,639,c),
(635,670,l),
(339,385,l),
(420,384,l),
(714,668,l),
(707,698,l),
(407,755,o),
(192,714,o),
(156,465,cs),
(108,135,ls),
(105,114,o),
(85,48,o),
(80,28,c),
(122,67,l),
(4,44,l),
(2,-5,l)
);
},
{
closed = 1;
nodes = (
(558,-15,o),
(640,70,o),
(655,162,cs),
(672,274,o),
(621,339,o),
(536,391,cs),
(440,451,l),
(339,385,l),
(449,323,ls),
(517,285,o),
(553,239,o),
(553,183,cs),
(553,58,o),
(436,-1,o),
(319,82,c),
(351,37,l),
(351,47,o),
(347,103,o),
(347,120,c),
(355,182,l),
(290,188,l),
(252,36,l),
(319,-1,o),
(389,-15,o),
(425,-15,cs)
);
}
);
width = 714.7;
}
);
subCategory = Uppercase;
unicode = 7838;
},
{
color = 6;
glyphname = Saltillo;
kernLeft = saltillo;
kernRight = saltillo;
layers = (
{
color = 6;
layerId = "B953D09C-6DD0-450A-A78C-8C2188DD4016";
shapes = (
{
closed = 1;
nodes = (
(237,688,l),
(221,705,l),
(115,705,l),
(115,705,o),
(102,508,o),
(100,493,c),
(65,308,l),
(145,300,l)
);
}
);
width = 230;
},
{
layerId = "3088057A-3552-44D5-8A67-1301E2609A93";
shapes = (
{
closed = 1;
nodes = (
(202,688,l),
(186,705,l),
(114,705,l),
(114,705,o),
(106,509,o),
(104,494,c),
(67,318,l),
(113,314,l)
);
}
);
width = 197;
}
);
subCategory = Uppercase;
unicode = 42891;
},
{
category = Letter;
color = 6;
glyphname = U.horn;
kernLeft = U.horn;
kernRight = U.horn;
layers = (
{
anchors = (
{
name = bottom;
pos = (326,0);
},
{
name = ogonek;
pos = (624,10);
},
{
name = top;
pos = (425,705);
},
{
name = topright;
pos = (589,695);
}
);
background = {
anchors = (
{
name = bottom;
pos = (326,0);
},
{
name = ogonek;
pos = (624,10);
},
{
name = top;
pos = (425,705);
},
{
name = topright;
pos = (589,695);
}
);
shapes = (
{
closed = 1;
nodes = (
(507,-15,o),
(621,97,o),
(646,268,cs),
(686,542,ls),
(691,572,o),
(721,673,o),
(731,705,c),
(621,695,l),
(601,695,o),
(545,695,o),
(509,695,c),
(496,635,l),
(619,611,l),
(557,667,l),
(557,652,o),
(559,581,o),
(549,512,cs),
(512,260,ls),
(498,160,o),
(455,99,o),
(355,99,cs),
(264,99,o),
(225,170,o),
(238,260,cs),
(280,542,ls),
(285,572,o),
(305,635,o),
(312,661,c),
(238,617,l),
(365,629,l),
(372,710,l),
(315,708,o),
(241,705,o),
(201,705,cs),
(181,705,o),
(119,708,o),
(78,710,c),
(62,635,l),
(185,611,l),
(123,661,l),
(123,644,o),
(125,581,o),
(115,512,cs),
(80,268,ls),
(55,97,o),
(134,-15,o),
(321,-15,cs)
);
}
);
};
color = 6;
layerId = "B953D09C-6DD0-450A-A78C-8C2188DD4016";
shapes = (
{
closed = 1;
nodes = (
(507,-15,o),
(621,97,o),
(646,268,cs),
(686,542,ls),
(691,572,o),
(721,673,o),
(731,705,c),
(621,695,l),
(601,695,o),
(545,695,o),
(509,695,c),
(496,635,l),
(619,611,l),
(557,667,l),
(557,652,o),
(559,581,o),
(549,512,cs),
(512,260,ls),
(498,160,o),
(455,99,o),
(355,99,cs),
(275,99,o),
(236,153,o),
(236,227,cs),
(235,249,o),
(238,259,o),
(280,542,cs),
(285,572,o),
(305,635,o),
(312,661,c),
(238,617,l),
(365,629,l),
(372,710,l),
(315,708,o),
(241,705,o),
(201,705,cs),
(181,705,o),
(119,708,o),
(78,710,c),
(62,635,l),
(185,611,l),
(123,661,l),
(123,644,o),
(125,581,o),
(115,512,cs),
(83,286,o),
(76,250,o),
(75,209,cs),
(75,72,o),
(156,-15,o),
(321,-15,cs)
);
}
);
width = 711;
},
{
anchors = (
{
name = bottom;
pos = (298,0);
},
{
name = ogonek;
pos = (579,10);
},
{
name = top;
pos = (397,705);
},
{
name = topright;
pos = (576,701);
}
);
layerId = "3088057A-3552-44D5-8A67-1301E2609A93";
shapes = (
{
closed = 1;
nodes = (
(460,-15,o),
(555,95,o),
(580,266,cs),
(620,538,ls),
(624,564,o),
(636,622,o),
(657,705,c),
(606,701,l),
(588,701,o),
(532,701,o),
(496,701,c),
(485,658,l),
(594,641,l),
(560,671,l),
(560,655,o),
(562,589,o),
(560,574,cs),
(514,267,ls),
(495,138,o),
(424,44,o),
(307,44,cs),
(212,44,o),
(166,110,o),
(166,209,cs),
(167,245,o),
(172,274,o),
(211,538,cs),
(216,575,o),
(235,656,o),
(240,676,c),
(200,643,l),
(310,653,l),
(315,710,l),
(272,708,o),
(209,705,o),
(187,705,cs),
(169,705,o),
(110,708,o),
(73,710,c),
(60,658,l),
(168,641,l),
(134,675,l),
(134,663,o),
(134,589,o),
(132,574,cs),
(88,277,o),
(81,244,o),
(81,203,cs),
(81,68,o),
(154,-15,o),
(295,-15,cs)
);
}
);
width = 646;
}
);
script = latin;
subCategory = Ligature;
},
{
category = Letter;
color = 6;
glyphname = W.i;
kernLeft = W.i;
kernRight = W.i;
layers = (
{
anchors = (
{
name = bottom;
pos = (459,0);
},
{
name = top;
pos = (558,705);
}
);
color = 6;
layerId = "B953D09C-6DD0-450A-A78C-8C2188DD4016";
shapes = (
{
closed = 1;
nodes = (
(339,0,l),
(551,481,l),
(517,485,l),
(589,0,l),
(704,0,l),
(949,542,ls),
(964,576,o),
(1006,638,o),
(1017,653,c),
(940,614,l),
(1018,627,l),
(1025,708,l),
(976,706,o),
(922,705,o),
(893,705,cs),
(878,705,o),
(824,708,o),
(789,710,c),
(773,635,l),
(912,610,l),
(863,658,l),
(856,635,o),
(822,539,o),
(811,512,cs),
(666,149,l),
(696,144,l),
(633,675,l),
(519,675,l),
(300,149,l),
(329,144,l),
(295,542,ls),
(293,569,o),
(296,642,o),
(297,667,c),
(235,617,l),
(361,629,l),
(368,710,l),
(311,708,o),
(234,705,o),
(197,705,cs),
(176,705,o),
(115,708,o),
(74,710,c),
(58,635,l),
(181,611,l),
(114,645,l),
(118,629,o),
(132,546,o),
(138,512,cs),
(223,0,l)
);
}
);
width = 985;
},
{
anchors = (
{
name = bottom;
pos = (445,0);
},
{
name = top;
pos = (544,705);
}
);
layerId = "3088057A-3552-44D5-8A67-1301E2609A93";
shapes = (
{
closed = 1;
nodes = (
(296,0,l),
(530,545,l),
(512,548,l),
(609,0,l),
(666,0,l),
(900,538,ls),
(916,574,o),
(963,648,o),
(979,667,c),
(929,642,l),
(989,650,l),
(994,707,l),
(957,705,o),
(920,705,o),
(903,705,cs),
(886,705,o),
(828,708,o),
(791,710,c),
(777,657,l),
(903,641,l),
(875,665,l),
(871,649,o),
(856,594,o),
(846,574,cs),
(651,111,l),
(670,109,l),
(577,686,l),
(529,686,l),
(281,112,l),
(299,109,l),
(237,539,ls),
(231,577,o),
(223,654,o),
(222,680,c),
(191,643,l),
(316,653,l),
(320,710,l),
(275,708,o),
(209,705,o),
(184,705,cs),
(167,705,o),
(111,708,o),
(74,710,c),
(61,658,l),
(144,642,l),
(100,677,l),
(107,658,o),
(134,591,o),
(137,574,cs),
(240,0,l)
);
}
);
width = 952;
}
);
script = latin;
subCategory = Ligature;
},
{
color = 6;
glyphname = ordfeminine.case;
kernLeft = ordfeminine.case;
kernRight = ordfeminine.case;
layers = (
{
anchors = (
{
name = bottom;
pos = (231,450);
},
{
name = ogonek;
pos = (339,450);
},
{
name = top;
pos = (277,771);
}
);
color = 6;
layerId = "B953D09C-6DD0-450A-A78C-8C2188DD4016";
shapes = (
{
closed = 1;
nodes = (
(210,438,o),
(276,523,o),
(316,627,c),
(308,637,l),
(307,584,o),
(277,504,o),
(258,450,c),
(282,438,l),
(418,465,l),
(421,501,l),
(326,510,l),
(367,472,l),
(370,590,o),
(388,676,o),
(410,763,c),
(383,782,l),
(303,762,l),
(302,733,ls),
(298,624,o),
(230,528,o),
(197,528,cs),
(182,528,o),
(179,543,o),
(179,565,cs),
(179,641,o),
(205,708,o),
(228,708,cs),
(264,708,o),
(311,686,o),
(318,685,c),
(333,768,l),
(320,768,o),
(264,782,o),
(239,782,cs),
(161,782,o),
(84,653,o),
(84,540,cs),
(84,490,o),
(100,438,o),
(137,438,cs)
);
}
);
userData = {
RMXScaler = {
height = 65;
verticalShift = 450;
weight = -45;
width = 67;
};
};
width = 421;
},
{
anchors = (
{
name = bottom;
pos = (211,450);
},
{
name = ogonek;
pos = (308,450);
},
{
name = top;
pos = (253,749);
}
);
layerId = "3088057A-3552-44D5-8A67-1301E2609A93";
shapes = (
{
closed = 1;
nodes = (
(197,441,o),
(251,507,o),
(287,594,c),
(281,605,l),
(276,547,o),
(261,493,o),
(248,450,c),
(267,440,l),
(376,466,l),
(378,493,l),
(296,500,l),
(326,473,l),
(328,580,o),
(344,655,o),
(366,743,c),
(347,758,l),
(285,743,l),
(284,714,ls),
(280,613,o),
(211,503,o),
(178,503,cs),
(164,503,o),
(157,519,o),
(157,549,cs),
(157,619,o),
(189,706,o),
(215,706,cs),
(248,706,o),
(293,683,o),
(299,681,c),
(309,746,l),
(296,747,o),
(246,758,o),
(224,758,cs),
(159,758,o),
(85,633,o),
(85,533,cs),
(85,482,o),
(102,441,o),
(140,441,cs)
);
}
);
userData = {
RMXScaler = {
height = 61;
verticalShift = 450;
weight = -24;
width = 62;
};
};
width = 381.4;
}
);
userData = {
RMXScaler = {
source = a;
};
};
},
{
color = 6;
glyphname = ordmasculine.case;
kernLeft = ordmasculine.case;
kernRight = ordmasculine.case;
layers = (
{
color = 6;
layerId = "B953D09C-6DD0-450A-A78C-8C2188DD4016";
shapes = (
{
closed = 1;
nodes = (
(300,438,o),
(387,536,o),
(387,660,cs),
(387,740,o),
(348,782,o),
(276,782,cs),
(170,782,o),
(82,684,o),
(82,560,cs),
(82,479,o),
(122,438,o),
(193,438,cs)
);
},
{
closed = 1;
nodes = (
(194,502,o),
(181,525,o),
(181,565,cs),
(181,664,o),
(207,718,o),
(255,718,cs),
(275,718,o),
(288,695,o),
(288,655,cs),
(288,556,o),
(262,502,o),
(215,502,cs)
);
}
);
userData = {
RMXScaler = {
adjustSpace = 9;
height = 65;
verticalShift = 450;
weight = -45;
width = 67;
};
};
width = 380;
},
{
layerId = "3088057A-3552-44D5-8A67-1301E2609A93";
shapes = (
{
closed = 1;
nodes = (
(273,441,o),
(350,536,o),
(350,648,cs),
(350,719,o),
(315,758,o),
(254,758,cs),
(161,758,o),
(84,663,o),
(84,551,cs),
(84,479,o),
(119,441,o),
(180,441,cs)
);
},
{
closed = 1;
nodes = (
(172,488,o),
(159,511,o),
(159,552,cs),
(159,649,o),
(191,710,o),
(239,710,cs),
(262,710,o),
(274,687,o),
(274,647,cs),
(274,551,o),
(243,488,o),
(195,488,cs)
);
}
);
userData = {
RMXScaler = {
adjustSpace = 10;
height = 61;
verticalShift = 450;
weight = -24;
width = 62;
};
};
width = 348.1;
}
);
userData = {
RMXScaler = {
source = o;
};
};
},
{
color = 6;
glyphname = a;
kernLeft = lc_Round;
kernRight = lc_ShortStem;
layers = (
{
anchors = (
{
name = bottom;
pos = (248,0);
},
{
name = ogonek;
pos = (406,0);
},
{
name = top;
pos = (318,494);
}
);
color = 6;
layerId = "B953D09C-6DD0-450A-A78C-8C2188DD4016";
shapes = (
{
closed = 1;
nodes = (
(218,-15,o),
(316,113,o),
(375,266,c),
(363,282,l),
(361,198,o),
(320,86,o),
(290,3,c),
(325,-15,l),
(526,27,l),
(530,80,l),
(389,93,l),
(450,38,l),
(454,215,o),
(482,351,o),
(516,485,c),
(476,513,l),
(358,484,l),
(356,438,ls),
(349,273,o),
(246,114,o),
(197,114,cs),
(174,114,o),
(170,140,o),
(170,175,cs),
(170,292,o),
(210,407,o),
(245,407,cs),
(299,407,o),
(370,372,o),
(380,370,c),
(403,492,l),
(383,493,o),
(300,513,o),
(262,513,cs),
(146,513,o),
(30,312,o),
(30,140,cs),
(30,62,o),
(53,-15,o),
(110,-15,cs)
);
}
);
width = 568;
},
{
anchors = (
{
name = bottom;
pos = (214,0);
},
{
name = ogonek;
pos = (370,0);
},
{
name = top;
pos = (283,494);
}
);
layerId = "3088057A-3552-44D5-8A67-1301E2609A93";
shapes = (
{
closed = 1;
nodes = (
(204,-10,o),
(281,80,o),
(333,196,c),
(329,220,l),
(314,117,o),
(311,63,o),
(301,5,c),
(325,-10,l),
(468,35,l),
(471,68,l),
(349,74,l),
(379,45,l),
(381,217,o),
(409,343,o),
(446,495,c),
(424,508,l),
(354,492,l),
(352,441,ls),
(346,286,o),
(216,43,o),
(157,43,cs),
(130,43,o),
(111,86,o),
(111,146,cs),
(111,267,o),
(183,461,o),
(234,461,cs),
(287,461,o),
(365,416,o),
(378,410,c),
(379,494,l),
(359,495,o),
(282,508,o),
(248,508,cs),
(156,508,o),
(29,291,o),
(29,140,cs),
(29,39,o),
(65,-10,o),
(132,-10,cs)
);
}
);
width = 507.5;
}
);
unicode = 97;
},
{
color = 3;
glyphname = aogonek;
kernLeft = lc_Round;
kernRight = lc_ShortStem;
layers = (
{
color = 3;
layerId = "B953D09C-6DD0-450A-A78C-8C2188DD4016";
shapes = (
{
closed = 1;
nodes = (
(525,24,l),
(529,77,l),
(388,90,l),
(449,35,l),
(453,212,o),
(481,348,o),
(515,482,c),
(475,510,l),
(357,481,l),
(355,435,ls),
(348,270,o),
(246,111,o),
(196,111,cs),
(173,111,o),
(169,137,o),
(169,172,cs),
(169,289,o),
(209,404,o),
(244,404,cs),
(298,404,o),
(369,369,o),
(379,367,c),
(402,489,l),
(382,490,o),
(299,510,o),
(261,510,cs),
(145,510,o),
(29,309,o),
(29,137,cs),
(29,59,o),
(52,-18,o),
(109,-18,cs),
(217,-18,o),
(315,110,o),
(374,263,c),
(362,279,l),
(360,195,o),
(319,83,o),
(289,0,c),
(324,-18,l)
);
},
{
pos = (181,0);
ref = ogonekcomb;
}
);
width = 568;
},
{
layerId = "3088057A-3552-44D5-8A67-1301E2609A93";
shapes = (
{
closed = 1;
nodes = (
(468,30,l),
(471,63,l),
(348,69,l),
(379,44,l),
(382,215,o),
(410,338,o),
(446,490,c),
(424,502,l),
(354,487,l),
(352,437,ls),
(346,283,o),
(217,44,o),
(158,44,cs),
(130,44,o),
(111,86,o),
(111,146,cs),
(111,267,o),
(183,455,o),
(234,455,cs),
(286,455,o),
(365,411,o),
(378,404,c),
(379,489,l),
(359,490,o),
(283,502,o),
(248,502,cs),
(156,502,o),
(29,290,o),
(29,139,cs),
(29,39,o),
(65,-9,o),
(132,-9,cs),
(205,-9,o),
(281,80,o),
(333,196,c),
(328,214,l),
(313,113,o),
(310,60,o),
(300,0,c),
(324,-15,l)
);
},
{
alignment = -1;
pos = (188,1);
ref = ogonekcomb;
}
);
width = 509.7;
}
);
unicode = 261;
},
{
color = 6;
glyphname = ae;
kernLeft = lc_Round;
kernRight = lc_e;
layers = (
{
anchors = (
{
name = bottom;
pos = (308,0);
},
{
name = ogonek;
pos = (505,0);
},
{
name = top;
pos = (378,494);
}
);
color = 6;
layerId = "B953D09C-6DD0-450A-A78C-8C2188DD4016";
shapes = (
{
closed = 1;
nodes = (
(221,-15,o),
(427,244,o),
(427,405,cs),
(427,495,o),
(389,513,o),
(315,513,cs),
(252,513,o),
(159,476,o),
(104,422,c),
(145,376,l),
(207,422,o),
(314,449,o),
(314,382,cs),
(314,350,o),
(308,310,o),
(297,277,cs),
(268,190,o),
(222,108,o),
(175,108,cs),
(133,108,o),
(144,178,o),
(155,197,cs),
(168,219,o),
(222,246,o),
(331,256,c),
(340,325,l),
(282,317,ls),
(120,295,o),
(20,242,o),
(11,131,cs),
(6,72,o),
(20,-15,o),
(104,-15,cs)
);
},
{
closed = 1;
nodes = (
(497,-15,o),
(598,44,o),
(656,124,c),
(610,164,l),
(574,127,o),
(512,82,o),
(470,82,cs),
(439,82,o),
(416,102,o),
(416,154,cs),
(416,270,o),
(466,423,o),
(514,423,cs),
(553,423,o),
(567,413,o),
(567,395,cs),
(567,339,o),
(495,263,o),
(379,253,c),
(378,191,l),
(574,215,o),
(695,310,o),
(695,424,cs),
(695,483,o),
(639,513,o),
(534,513,cs),
(429,513,o),
(278,299,o),
(278,138,cs),
(278,28,o),
(339,-15,o),
(413,-15,cs)
);
}
);
width = 706;
},
{
anchors = (
{
name = bottom;
pos = (311,0);
},
{
name = ogonek;
pos = (491,0);
},
{
name = top;
pos = (381,494);
}
);
layerId = "3088057A-3552-44D5-8A67-1301E2609A93";
shapes = (
{
closed = 1;
nodes = (
(256,-10,o),
(369,180,o),
(402,330,cs),
(426,441,o),
(373,509,o),
(289,509,cs),
(227,509,o),
(149,469,o),
(83,387,c),
(111,364,l),
(208,459,o),
(306,469,o),
(317,386,cs),
(322,352,o),
(315,291,o),
(311,270,cs),
(291,149,o),
(197,46,o),
(143,46,cs),
(97,46,o),
(97,125,o),
(111,165,cs),
(120,190,o),
(210,226,o),
(323,241,c),
(324,287,l),
(255,274,ls),
(141,253,o),
(23,229,o),
(14,145,cs),
(8,89,o),
(18,-10,o),
(108,-10,cs)
);
},
{
closed = 1;
nodes = (
(490,-10,o),
(567,39,o),
(623,131,c),
(592,152,l),
(542,82,o),
(485,47,o),
(436,47,cs),
(395,47,o),
(374,83,o),
(374,149,cs),
(374,269,o),
(448,453,o),
(499,453,cs),
(544,453,o),
(565,438,o),
(565,405,cs),
(565,332,o),
(482,273,o),
(361,255,c),
(360,213,l),
(538,245,o),
(646,327,o),
(646,430,cs),
(646,481,o),
(594,508,o),
(501,508,cs),
(415,508,o),
(292,291,o),
(292,140,cs),
(292,42,o),
(331,-10,o),
(404,-10,cs)
);
}
);
width = 666.4;
}
);
unicode = 230;
},
{
color = 6;
glyphname = b;
kernLeft = lc_LongtStem;
kernRight = lc_Round;
layers = (
{
anchors = (
{
name = bottom;
pos = (233,0);
},
{
name = top;
pos = (340,756);
}
);
color = 6;
layerId = "B953D09C-6DD0-450A-A78C-8C2188DD4016";
shapes = (
{
closed = 1;
nodes = (
(213,13,l),
(129,6,l),
(140,7,o),
(233,-15,o),
(273,-15,cs),
(389,-15,o),
(505,186,o),
(505,358,cs),
(505,436,o),
(482,513,o),
(425,513,cs),
(333,513,o),
(243,412,o),
(179,247,c),
(190,255,l),
(209,379,o),
(252,578,o),
(289,742,c),
(255,770,l),
(57,737,l),
(60,684,l),
(190,667,l),
(129,692,l),
(124,611,o),
(87,232,o),
(21,3,c),
(56,-15,l)
);
},
{
closed = 1;
nodes = (
(186,225,o),
(288,384,o),
(338,384,cs),
(361,384,o),
(364,358,o),
(364,323,cs),
(364,206,o),
(325,90,o),
(290,90,cs),
(242,90,o),
(170,122,o),
(130,140,c),
(179,60,l)
);
}
);
width = 535;
},
{
anchors = (
{
name = bottom;
pos = (200,0);
},
{
name = top;
pos = (272,468);
}
);
layerId = "3088057A-3552-44D5-8A67-1301E2609A93";
shapes = (
{
closed = 1;
nodes = (
(140,17,l),
(97,8,l),
(109,8,o),
(190,-10,o),
(224,-10,cs),
(314,-10,o),
(442,204,o),
(442,358,cs),
(442,459,o),
(406,506,o),
(341,506,cs),
(269,506,o),
(192,419,o),
(145,322,c),
(156,329,l),
(175,460,o),
(197,582,o),
(225,752,c),
(204,770,l),
(45,743,l),
(48,707,l),
(165,689,l),
(135,712,l),
(121,515,o),
(72,177,o),
(28,5,c),
(52,-10,l)
);
},
{
closed = 1;
nodes = (
(126,211,o),
(252,457,o),
(315,457,cs),
(341,457,o),
(361,413,o),
(361,352,cs),
(361,228,o),
(289,38,o),
(237,38,cs),
(193,38,o),
(122,74,o),
(98,87,c),
(120,56,l)
);
}
);
width = 471.2;
}
);
unicode = 98;
},
{
color = 6;
glyphname = c;
kernLeft = lc_Round;
kernRight = lc_c;
layers = (
{
anchors = (
{
name = bottom;
pos = (158,0);
},
{
name = top;
pos = (283,494);
}
);
color = 6;
layerId = "B953D09C-6DD0-450A-A78C-8C2188DD4016";
shapes = (
{
closed = 1;
nodes = (
(244,-15,o),
(331,42,o),
(385,122,c),
(338,162,l),
(289,113,o),
(248,86,o),
(215,86,cs),
(182,86,o),
(165,109,o),
(165,152,cs),
(165,270,o),
(211,415,o),
(250,415,cs),
(284,415,o),
(322,403,o),
(380,376,c),
(326,462,l),
(326,305,l),
(381,302,l),
(416,465,l),
(391,504,l),
(361,508,o),
(294,513,o),
(256,513,cs),
(157,513,o),
(26,298,o),
(26,138,cs),
(26,41,o),
(76,-15,o),
(159,-15,cs)
);
}
);
width = 434;
},
{
anchors = (
{
name = bottom;
pos = (143,0);
},
{
name = top;
pos = (278,494);
}
);
layerId = "3088057A-3552-44D5-8A67-1301E2609A93";
shapes = (
{
closed = 1;
nodes = (
(226,-10,o),
(307,39,o),
(363,134,c),
(334,154,l),
(285,84,o),
(227,46,o),
(174,46,cs),
(135,46,o),
(112,83,o),
(112,150,cs),
(112,266,o),
(181,447,o),
(228,447,cs),
(247,447,o),
(268,442,o),
(357,410,c),
(312,454,l),
(321,328,l),
(354,326,l),
(392,472,l),
(379,493,l),
(301,503,o),
(251,508,o),
(230,508,cs),
(147,508,o),
(30,293,o),
(30,141,cs),
(30,44,o),
(67,-10,o),
(141,-10,cs)
);
}
);
width = 409.8;
}
);
unicode = 99;
},
{
color = 6;
glyphname = d;
kernLeft = lc_Round;
kernRight = lc_LongtStem;
layers = (
{
anchors = (
{
name = bottom;
pos = (245,0);
},
{
name = center;
pos = (412,585);
},
{
name = top;
pos = (354,756);
},
{
name = topright;
pos = (606,494);
}
);
color = 6;
layerId = "B953D09C-6DD0-450A-A78C-8C2188DD4016";
shapes = (
{
closed = 1;
nodes = (
(218,-15,o),
(316,113,o),
(375,266,c),
(363,279,l),
(361,195,o),
(320,83,o),
(290,0,c),
(325,-18,l),
(526,27,l),
(530,80,l),
(389,90,l),
(439,46,l),
(454,172,o),
(491,458,o),
(549,742,c),
(515,770,l),
(306,737,l),
(309,684,l),
(451,668,l),
(391,713,l),
(390,676,o),
(378,555,o),
(366,479,c),
(356,438,l),
(349,273,o),
(247,114,o),
(197,114,cs),
(174,114,o),
(170,140,o),
(170,175,cs),
(170,292,o),
(210,407,o),
(245,407,cs),
(299,407,o),
(370,372,o),
(380,370,c),
(403,492,l),
(383,493,o),
(300,513,o),
(262,513,cs),
(146,513,o),
(30,312,o),
(30,140,cs),
(30,62,o),
(53,-15,o),
(110,-15,cs)
);
}
);
width = 567;
},
{
anchors = (
{
name = bottom;
pos = (246,0);
},
{
name = center;
pos = (380,610);
},
{
name = top;
pos = (286,468);
},
{
name = topright;
pos = (533,500);
}
);
layerId = "3088057A-3552-44D5-8A67-1301E2609A93";
shapes = (
{
closed = 1;
nodes = (
(205,-10,o),
(281,80,o),
(333,196,c),
(329,215,l),
(313,110,o),
(311,67,o),
(302,6,c),
(326,-9,l),
(468,35,l),
(471,68,l),
(348,75,l),
(381,49,l),
(375,305,o),
(435,514,o),
(473,752,c),
(452,770,l),
(294,743,l),
(296,707,l),
(411,689,l),
(381,710,l),
(377,628,o),
(366,551,o),
(357,477,c),
(352,441,l),
(346,287,o),
(222,43,o),
(157,43,cs),
(130,43,o),
(111,86,o),
(111,146,cs),
(111,267,o),
(183,461,o),
(234,461,cs),
(287,461,o),
(365,416,o),
(378,410,c),
(379,494,l),
(359,495,o),
(282,508,o),
(248,508,cs),
(157,508,o),
(27,294,o),
(29,140,cs),
(30,39,o),
(64,-10,o),
(132,-10,cs)
);
}
);
width = 507.6;
}
);
unicode = 100;
},
{
color = 6;
glyphname = eth;
kernLeft = lc_Round;
kernRight = lc_eth;
layers = (
{
color = 6;
layerId = "B953D09C-6DD0-450A-A78C-8C2188DD4016";
shapes = (
{
closed = 1;
nodes = (
(394,-15,o),
(489,219,o),
(489,389,cs),
(489,540,o),
(423,663,o),
(308,770,c),
(236,739,l),
(293,662,o),
(353,584,o),
(353,397,cs),
(353,240,o),
(314,77,o),
(224,77,cs),
(183,77,o),
(174,125,o),
(174,182,cs),
(174,296,o),
(214,429,o),
(328,429,cs),
(348,429,o),
(395,422,o),
(429,391,c),
(420,487,l),
(398,501,o),
(333,506,o),
(306,506,cs),
(162,506,o),
(29,348,o),
(29,171,cs),
(29,65,o),
(71,-15,o),
(196,-15,cs)
);
},
{
closed = 1;
nodes = (
(509,689,l),
(483,746,l),
(175,597,l),
(202,542,l)
);
}
);
width = 518;
},
{
layerId = "3088057A-3552-44D5-8A67-1301E2609A93";
shapes = (
{
closed = 1;
nodes = (
(349,-10,o),
(437,221,o),
(437,392,cs),
(437,539,o),
(388,655,o),
(289,768,c),
(242,748,l),
(295,672,o),
(356,591,o),
(356,400,cs),
(356,269,o),
(310,42,o),
(188,42,cs),
(131,42,o),
(125,117,o),
(125,174,cs),
(125,288,o),
(170,459,o),
(284,459,cs),
(299,459,o),
(347,454,o),
(385,421,c),
(366,489,l),
(344,503,o),
(310,508,o),
(283,508,cs),
(135,508,o),
(33,322,o),
(33,168,cs),
(33,62,o),
(72,-10,o),
(181,-10,cs)
);
},
{
closed = 1;
nodes = (
(500,699,l),
(479,741,l),
(171,590,l),
(192,551,l)
);
}
);
width = 471.8;
}
);
unicode = 240;
},
{
color = 6;
glyphname = e;
kernLeft = lc_Round;
kernRight = lc_e;
layers = (
{
anchors = (
{
name = bottom;
pos = (153,0);
},
{
name = ogonek;
pos = (252,0);
},
{
name = top;
pos = (293,494);
}
);
color = 6;
layerId = "B953D09C-6DD0-450A-A78C-8C2188DD4016";
shapes = (
{
closed = 1;
nodes = (
(242,-15,o),
(343,44,o),
(401,124,c),
(355,164,l),
(319,127,o),
(257,82,o),
(215,82,cs),
(184,82,o),
(161,102,o),
(161,154,cs),
(161,270,o),
(210,423,o),
(258,423,cs),
(297,423,o),
(311,413,o),
(311,395,cs),
(311,339,o),
(242,270,o),
(126,260,c),
(125,198,l),
(321,222,o),
(439,310,o),
(439,424,cs),
(439,483,o),
(383,513,o),
(278,513,cs),
(173,513,o),
(23,299,o),
(23,138,cs),
(23,28,o),
(84,-15,o),
(158,-15,cs)
);
}
);
width = 450;
},
{
anchors = (
{
name = bottom;
pos = (126,0);
},
{
name = ogonek;
pos = (228,0);
},
{
name = top;
pos = (240,494);
}
);
layerId = "3088057A-3552-44D5-8A67-1301E2609A93";
shapes = (
{
closed = 1;
nodes = (
(226,-10,o),
(305,39,o),
(360,133,c),
(330,153,l),
(279,82,o),
(221,47,o),
(173,47,cs),
(132,47,o),
(112,84,o),
(112,150,cs),
(112,270,o),
(185,453,o),
(235,453,cs),
(281,453,o),
(301,438,o),
(301,404,cs),
(301,330,o),
(218,270,o),
(97,252,c),
(96,210,l),
(274,242,o),
(382,325,o),
(382,430,cs),
(382,481,o),
(330,508,o),
(237,508,cs),
(152,508,o),
(30,295,o),
(30,141,cs),
(30,43,o),
(69,-10,o),
(142,-10,cs)
);
}
);
width = 403.8;
}
);
unicode = 101;
},
{
color = 6;
glyphname = schwa;
kernLeft = lc_s;
kernRight = lc_s;
layers = (
{
color = 6;
layerId = "B953D09C-6DD0-450A-A78C-8C2188DD4016";
shapes = (
{
closed = 1;
nodes = (
(221,-15,o),
(328,33,o),
(379,113,cs),
(416,171,o),
(447,247,o),
(447,328,cs),
(447,449,o),
(390,513,o),
(283,513,cs),
(215,513,o),
(138,458,o),
(85,378,c),
(131,338,l),
(162,375,o),
(201,420,o),
(251,420,cs),
(281,420,o),
(301,385,o),
(301,324,cs),
(301,181,o),
(267,93,o),
(202,74,cs),
(121,50,o),
(101,104,o),
(136,154,cs),
(163,193,o),
(225,229,o),
(307,236,c),
(308,298,l),
(112,274,o),
(6,204,o),
(6,90,cs),
(6,18,o),
(63,-15,o),
(134,-15,cs)
);
}
);
width = 476;
},
{
layerId = "3088057A-3552-44D5-8A67-1301E2609A93";
shapes = (
{
closed = 1;
nodes = (
(186,-10,o),
(277,30,o),
(321,94,cs),
(364,160,o),
(396,239,o),
(396,335,cs),
(396,445,o),
(346,508,o),
(254,508,cs),
(174,508,o),
(109,464,o),
(59,373,c),
(90,349,l),
(133,418,o),
(185,454,o),
(232,454,cs),
(283,454,o),
(304,415,o),
(304,337,cs),
(304,168,o),
(241,46,o),
(155,48,cs),
(92,50,o),
(82,93,o),
(106,140,cs),
(134,193,o),
(207,233,o),
(304,248,c),
(305,291,l),
(122,260,o),
(10,175,o),
(10,69,cs),
(10,15,o),
(55,-10,o),
(112,-10,cs)
);
}
);
width = 429.8;
}
);
unicode = 601;
},
{
color = 6;
glyphname = f;
kernLeft = lc_f;
kernRight = lc_f;
layers = (
{
anchors = (
{
name = bottom;
pos = (146,0);
},
{
name = top;
pos = (238,756);
}
);
color = 6;
layerId = "B953D09C-6DD0-450A-A78C-8C2188DD4016";
shapes = (
{
closed = 1;
nodes = (
(23,-229,o),
(128,-168,o),
(179,-49,cs),
(217,39,o),
(221,222,o),
(268,476,c),
(195,420,l),
(349,420,l),
(370,497,l),
(210,497,l),
(262,432,l),
(262,527,o),
(247,617,o),
(260,634,cs),
(275,653,o),
(346,664,o),
(414,661,c),
(442,770,l),
(285,769,o),
(173,681,o),
(146,550,cs),
(145,544,o),
(139,521,o),
(124,511,cs),
(108,500,o),
(75,488,o),
(43,478,c),
(37,420,l),
(188,420,l),
(129,452,l),
(108,298,o),
(75,-59,o),
(24,-102,cs),
(8,-116,o),
(-26,-125,o),
(-69,-126,c),
(-103,-235,l)
);
}
);
width = 354;
},
{
anchors = (
{
name = bottom;
pos = (123,0);
},
{
name = top;
pos = (181,468);
}
);
layerId = "3088057A-3552-44D5-8A67-1301E2609A93";
shapes = (
{
closed = 1;
nodes = (
(9,-222,o),
(107,-149,o),
(132,-35,cs),
(155,73,o),
(170,278,o),
(203,456,c),
(168,426,l),
(307,426,l),
(319,477,l),
(176,477,l),
(204,454,l),
(222,629,o),
(245,680,o),
(261,704,cs),
(279,732,o),
(322,747,o),
(385,745,c),
(400,802,l),
(295,794,o),
(172,732,o),
(146,574,cs),
(134,504,o),
(136,495,o),
(128,490,cs),
(112,479,o),
(52,465,o),
(41,464,c),
(37,426,l),
(156,426,l),
(128,451,l),
(112,239,o),
(66,-82,o),
(30,-135,cs),
(18,-151,o),
(-49,-176,o),
(-97,-177,c),
(-115,-234,l)
);
}
);
width = 305.6;
}
);
unicode = 102;
},
{
color = 6;
glyphname = g;
kernLeft = lc_Round;
kernRight = lc_descender;
layers = (
{
anchors = (
{
name = center;
pos = (318,-36);
},
{
name = top;
pos = (336,494);
}
);
color = 6;
layerId = "B953D09C-6DD0-450A-A78C-8C2188DD4016";
shapes = (
{
closed = 1;
nodes = (
(208,-283,o),
(408,-201,o),
(435,15,cs),
(457,191,o),
(483,351,o),
(517,485,c),
(477,513,l),
(358,481,l),
(356,435,ls),
(349,270,o),
(246,114,o),
(197,114,cs),
(174,114,o),
(170,140,o),
(170,175,cs),
(170,292,o),
(210,407,o),
(245,407,cs),
(299,407,o),
(370,372,o),
(380,370,c),
(403,492,l),
(383,493,o),
(300,513,o),
(262,513,cs),
(146,513,o),
(30,312,o),
(30,140,cs),
(30,62,o),
(53,-15,o),
(110,-15,cs),
(218,-15,o),
(316,113,o),
(375,266,c),
(363,279,l),
(358,195,o),
(329,76,o),
(304,-7,c),
(304,-18,o),
(305,-88,o),
(288,-102,cs),
(241,-142,o),
(131,-136,o),
(27,-89,c),
(-16,-208,l)
);
}
);
width = 543;
},
{
anchors = (
{
name = center;
pos = (284,-77);
},
{
name = top;
pos = (305,494);
}
);
layerId = "3088057A-3552-44D5-8A67-1301E2609A93";
shapes = (
{
closed = 1;
nodes = (
(193,-282,o),
(351,-171,o),
(371,7,cs),
(393,195,o),
(413,357,o),
(447,495,c),
(426,508,l),
(356,492,l),
(354,442,ls),
(348,288,o),
(220,43,o),
(159,43,cs),
(130,43,o),
(111,88,o),
(111,146,cs),
(111,268,o),
(180,461,o),
(235,461,cs),
(285,461,o),
(367,416,o),
(379,410,c),
(381,494,l),
(361,495,o),
(281,508,o),
(248,508,cs),
(155,508,o),
(29,291,o),
(29,140,cs),
(29,40,o),
(65,-10,o),
(132,-10,cs),
(205,-10,o),
(281,78,o),
(334,196,c),
(329,215,l),
(313,109,o),
(309,61,o),
(301,-8,c),
(297,-75,o),
(282,-121,o),
(270,-132,cs),
(220,-178,o),
(91,-179,o),
(-7,-147,c),
(-35,-217,l)
);
}
);
width = 479.2;
}
);
unicode = 103;
},
{
color = 3;
glyphname = gstroke;
kernLeft = lc_Round;
kernRight = lc_gstroke;
layers = (
{
anchors = (
{
name = center;
pos = (313,-36);
},
{
name = top;
pos = (331,494);
}
);
color = 3;
layerId = "B953D09C-6DD0-450A-A78C-8C2188DD4016";
shapes = (
{
closed = 1;
nodes = (
(203,-283,o),
(403,-201,o),
(430,15,cs),
(452,191,o),
(477,348,o),
(511,482,c),
(471,510,l),
(353,481,l),
(351,435,ls),
(344,270,o),
(254,165,o),
(204,165,cs),
(181,165,o),
(166,191,o),
(168,226,cs),
(173,313,o),
(208,404,o),
(243,404,cs),
(297,404,o),
(365,369,o),
(375,367,c),
(398,489,l),
(378,490,o),
(295,510,o),
(257,510,cs),
(171,510,o),
(57,386,o),
(28,191,cs),
(15,103,o),
(60,36,o),
(117,36,cs),
(225,36,o),
(323,164,o),
(382,317,c),
(358,317,l),
(357,207,o),
(324,76,o),
(299,-7,c),
(299,-18,o),
(300,-88,o),
(283,-102,cs),
(236,-142,o),
(126,-136,o),
(22,-89,c),
(-21,-208,l)
);
},
{
pos = (-45,-628);
ref = barcomp;
}
);
width = 543;
},
{
anchors = (
{
name = center;
pos = (284,-75);
},
{
name = top;
pos = (306,494);
}
);
layerId = "3088057A-3552-44D5-8A67-1301E2609A93";
shapes = (
{
closed = 1;
nodes = (
(193,-281,o),
(351,-170,o),
(372,7,cs),
(393,188,o),
(410,340,o),
(446,490,c),
(426,502,l),
(355,487,l),
(353,437,ls),
(347,284,o),
(219,39,o),
(158,39,cs),
(129,39,o),
(111,82,o),
(111,140,cs),
(110,264,o),
(183,455,o),
(235,455,cs),
(285,455,o),
(366,411,o),
(378,404,c),
(380,489,l),
(360,490,o),
(283,502,o),
(249,502,cs),
(153,502,o),
(26,282,o),
(29,134,cs),
(30,35,o),
(64,-15,o),
(131,-15,cs),
(204,-15,o),
(280,73,o),
(333,191,c),
(328,210,l),
(313,109,o),
(310,61,o),
(301,-8,c),
(298,-71,o),
(282,-121,o),
(271,-132,cs),
(222,-178,o),
(93,-179,o),
(-7,-146,c),
(-34,-217,l)
);
},
{
alignment = -1;
pos = (17,-681);
ref = barcomp;
}
);
width = 478.1;
}
);
unicode = 485;
},
{
color = 6;
glyphname = h;
kernLeft = lc_LongtStem;
kernRight = lc_Shoulder;
layers = (
{
anchors = (
{
name = bottom;
pos = (261,0);
},
{
name = center;
pos = (212,585);
},
{
name = top;
pos = (225,756);
}
);
color = 6;
layerId = "B953D09C-6DD0-450A-A78C-8C2188DD4016";
shapes = (
{
closed = 1;
nodes = (
(173,3,l),
(174,10,o),
(175,16,o),
(176,23,c),
(201,187,o),
(284,385,o),
(353,385,cs),
(372,385,o),
(374,360,o),
(374,341,cs),
(374,282,o),
(332,125,o),
(297,3,c),
(331,-15,l),
(532,27,l),
(536,80,l),
(404,90,l),
(464,40,l),
(468,179,o),
(519,332,o),
(519,431,cs),
(519,478,o),
(491,513,o),
(439,513,cs),
(347,513,o),
(255,405,o),
(191,240,c),
(192,240,l),
(211,364,o),
(252,578,o),
(289,742,c),
(255,770,l),
(57,737,l),
(60,684,l),
(190,667,l),
(129,692,l),
(124,611,o),
(87,232,o),
(21,3,c),
(58,-15,l)
);
}
);
width = 579;
},
{
anchors = (
{
name = bottom;
pos = (223,0);
},
{
name = center;
pos = (179,610);
},
{
name = top;
pos = (154,718);
}
);
layerId = "3088057A-3552-44D5-8A67-1301E2609A93";
shapes = (
{
closed = 1;
nodes = (
(110,5,l),
(115,50,o),
(117,81,o),
(125,137,c),
(178,338,o),
(286,441,o),
(329,441,cs),
(356,441,o),
(363,415,o),
(363,386,cs),
(363,290,o),
(329,131,o),
(301,5,c),
(324,-10,l),
(490,35,l),
(492,68,l),
(363,75,l),
(394,46,l),
(398,180,o),
(449,329,o),
(449,424,cs),
(449,470,o),
(427,508,o),
(377,508,cs),
(267,508,o),
(179,378,o),
(142,306,c),
(150,303,l),
(173,460,o),
(200,607,o),
(225,752,c),
(204,770,l),
(45,743,l),
(48,707,l),
(165,689,l),
(135,712,l),
(121,515,o),
(72,177,o),
(28,5,c),
(51,-10,l)
);
}
);
width = 529.5;
}
);
unicode = 104;
},
{
color = 6;
glyphname = idotless;
kernLeft = lc_ShortStem;
kernRight = lc_ShortStem;
layers = (
{
anchors = (
{
name = bottom;
pos = (162,0);
},
{
name = ogonek;
pos = (157,0);
},
{
name = top;
pos = (196,494);
}
);
color = 6;
layerId = "B953D09C-6DD0-450A-A78C-8C2188DD4016";
shapes = (
{
closed = 1;
nodes = (
(276,27,l),
(280,80,l),
(139,91,l),
(198,44,l),
(211,191,o),
(245,376,o),
(273,485,c),
(234,513,l),
(44,469,l),
(44,419,l),
(176,410,l),
(115,451,l),
(109,317,o),
(90,185,o),
(42,3,c),
(76,-15,l)
);
}
);
width = 319;
},
{
anchors = (
{
name = bottom;
pos = (133,0);
},
{
name = ogonek;
pos = (124,0);
},
{
name = top;
pos = (162,491);
}
);
layerId = "3088057A-3552-44D5-8A67-1301E2609A93";
shapes = (
{
closed = 1;
nodes = (
(238,35,l),
(242,68,l),
(118,75,l),
(146,47,l),
(171,226,o),
(196,385,o),
(225,488,c),
(203,508,l),
(41,463,l),
(42,426,l),
(158,420,l),
(127,447,l),
(111,276,o),
(101,199,o),
(53,5,c),
(77,-10,l)
);
}
);
width = 278.3;
}
);
unicode = 305;
},
{
color = 3;
glyphname = iogonek;
kernLeft = lc_ShortStem;
kernRight = lc_ShortStem;
layers = (
{
color = 3;
layerId = "B953D09C-6DD0-450A-A78C-8C2188DD4016";
shapes = (
{
closed = 1;
nodes = (
(267,510,l),
(77,467,l),
(77,415,l),
(209,407,l),
(148,448,l),
(142,314,o),
(123,182,o),
(75,0,c),
(109,-18,l),
(309,24,l),
(313,77,l),
(172,88,l),
(231,41,l),
(244,188,o),
(278,373,o),
(306,482,c)
);
},
{
pos = (67,20);
ref = dotaccentcomb;
},
{
pos = (-39,0);
ref = ogonekcomb;
}
);
width = 353;
},
{
layerId = "3088057A-3552-44D5-8A67-1301E2609A93";
shapes = (
{
closed = 1;
nodes = (
(215,503,l),
(53,460,l),
(54,423,l),
(171,417,l),
(139,444,l),
(123,276,o),
(115,194,o),
(66,0,c),
(90,-15,l),
(251,30,l),
(254,64,l),
(130,70,l),
(160,42,l),
(184,218,o),
(209,385,o),
(237,484,c)
);
},
{
alignment = -1;
pos = (14,31);
ref = dotaccentcomb;
},
{
alignment = -1;
pos = (-37,1);
ref = ogonekcomb;
}
);
width = 292.5;
}
);
unicode = 303;
},
{
color = 6;
glyphname = jdotless;
kernLeft = lc_j;
kernRight = lc_descender;
layers = (
{
anchors = (
{
name = top;
pos = (186,494);
}
);
color = 6;
layerId = "B953D09C-6DD0-450A-A78C-8C2188DD4016";
shapes = (
{
closed = 1;
nodes = (
(54,-177,o),
(184,-56,o),
(189,-15,cs),
(217,214,o),
(231,308,o),
(273,485,c),
(234,513,l),
(44,470,l),
(44,418,l),
(176,410,l),
(115,455,l),
(111,313,o),
(80,143,o),
(49,14,cs),
(46,0,o),
(-4,-117,o),
(-51,-201,c),
(-4,-235,l)
);
}
);
width = 299;
},
{
anchors = (
{
name = top;
pos = (162,494);
}
);
layerId = "3088057A-3552-44D5-8A67-1301E2609A93";
shapes = (
{
closed = 1;
nodes = (
(33,-177,o),
(130,-56,o),
(137,-16,cs),
(176,214,o),
(195,383,o),
(226,489,c),
(204,509,l),
(42,465,l),
(43,427,l),
(160,421,l),
(128,445,l),
(118,303,o),
(91,128,o),
(63,13,cs),
(53,-30,o),
(-3,-143,o),
(-42,-209,c),
(-13,-235,l)
);
}
);
width = 255;
}
);
unicode = 567;
},
{
color = 6;
glyphname = k;
kernLeft = lc_LongtStem;
kernRight = lc_k;
layers = (
{
anchors = (
{
name = bottom;
pos = (259,0);
},
{
name = top;
pos = (351,746);
}
);
color = 6;
layerId = "B953D09C-6DD0-450A-A78C-8C2188DD4016";
shapes = (
{
closed = 1;
nodes = (
(176,3,l),
(178,23,o),
(179,39,o),
(182,57,c),
(208,226,o),
(306,406,o),
(374,406,cs),
(390,406,o),
(400,395,o),
(400,378,cs),
(400,318,o),
(341,263,o),
(243,229,c),
(243,180,l),
(358,-15,l),
(527,27,l),
(531,80,l),
(400,95,l),
(489,65,l),
(440,103,o),
(383,184,o),
(347,255,c),
(313,195,l),
(466,253,o),
(539,326,o),
(539,429,cs),
(539,486,o),
(510,513,o),
(451,513,cs),
(337,513,o),
(234,373,o),
(175,197,c),
(185,198,l),
(206,337,o),
(251,572,o),
(289,742,c),
(255,770,l),
(57,737,l),
(60,684,l),
(190,667,l),
(130,713,l),
(119,503,o),
(66,157,o),
(22,3,c),
(60,-15,l)
);
}
);
width = 578;
},
{
anchors = (
{
name = bottom;
pos = (216,0);
},
{
name = top;
pos = (295,750);
}
);
layerId = "3088057A-3552-44D5-8A67-1301E2609A93";
shapes = (
{
closed = 1;
nodes = (
(110,5,l),
(110,5,o),
(122,98,o),
(128,140,c),
(171,313,o),
(270,437,o),
(345,437,cs),
(360,437,o),
(371,426,o),
(371,406,cs),
(371,337,o),
(300,271,o),
(176,233,c),
(176,197,l),
(306,-10,l),
(446,35,l),
(450,68,l),
(324,68,l),
(368,54,l),
(326,94,o),
(272,169,o),
(237,229,c),
(221,209,l),
(354,244,o),
(440,335,o),
(440,428,cs),
(440,476,o),
(418,508,o),
(376,508,cs),
(293,508,o),
(204,436,o),
(144,306,c),
(153,310,l),
(174,457,o),
(183,493,o),
(226,752,c),
(206,770,l),
(46,743,l),
(47,707,l),
(165,689,l),
(136,712,l),
(117,483,o),
(67,160,o),
(28,5,c),
(51,-10,l)
);
}
);
width = 490;
}
);
unicode = 107;
},
{
color = 6;
glyphname = kgreenlandic;
kernLeft = lc_LongtStem;
kernRight = lc_k;
layers = (
{
anchors = (
{
name = bottom;
pos = (264,0);
},
{
name = top;
pos = (324,494);
}
);
color = 6;
layerId = "B953D09C-6DD0-450A-A78C-8C2188DD4016";
shapes = (
{
closed = 1;
nodes = (
(535,27,l),
(539,80,l),
(408,95,l),
(497,65,l),
(448,103,o),
(391,184,o),
(355,255,c),
(321,195,l),
(474,253,o),
(547,326,o),
(547,429,cs),
(547,486,o),
(518,513,o),
(459,513,cs),
(345,513,o),
(242,373,o),
(183,197,c),
(190,57,l),
(216,226,o),
(314,406,o),
(382,406,cs),
(398,406,o),
(408,395,o),
(408,378,cs),
(408,318,o),
(349,263,o),
(251,229,c),
(251,180,l),
(366,-15,l)
);
},
{
closed = 1;
nodes = (
(186,3,l),
(206,243,l),
(230,363,o),
(253,416,o),
(276,485,c),
(237,513,l),
(46,470,l),
(46,418,l),
(177,410,l),
(116,450,l),
(111,318,o),
(84,183,o),
(36,3,c),
(70,-15,l)
);
}
);
width = 586;
},
{
anchors = (
{
name = bottom;
pos = (282,0);
},
{
name = top;
pos = (352,494);
}
);
associatedMasterId = "B953D09C-6DD0-450A-A78C-8C2188DD4016";
background = {
shapes = (
{
closed = 1;
nodes = (
(391,422,l),
(247,265,l),
(311,110,l),
(326,68,l),
(329,60,l),
(348,0,l),
(443,0,ls),
(499,0,o),
(552,-5,o),
(552,-5,c),
(568,71,l),
(511,77,l),
(486,110,o),
(452,151,o),
(448,162,cs),
(392,280,l),
(469,366,ls),
(484,383,o),
(524,405,o),
(557,423,c),
(609,428,l),
(622,498,l),
(622,498,o),
(547,494,o),
(508,494,cs),
(440,494,o),
(355,499,o),
(355,499,c),
(339,428,l)
);
},
{
closed = 1;
nodes = (
(278,71,l),
(216,77,l),
(216,77,o),
(218,143,o),
(225,193,cs),
(240,295,ls),
(247,345,o),
(276,477,o),
(276,477,c),
(258,496,l),
(173,494,ls),
(132,494,o),
(60,503,o),
(60,503,c),
(41,429,l),
(111,412,l),
(111,412,o),
(111,345,o),
(108,325,cs),
(85,163,ls),
(82,143,o),
(63,77,o),
(63,77,c),
(-3,65,l),
(-8,-5,l),
(-8,-5,o),
(44,0,o),
(90,0,cs),
(200,0,o),
(263,-5,o),
(263,-5,c)
);
}
);
};
color = 6;
layerId = "6ACBCF70-C8C2-4DFE-9957-DD7377ABFF92";
name = "Nov 26 19, 10:08";
shapes = (
{
closed = 1;
nodes = (
(177,0,l),
(179,20,o),
(181,39,o),
(184,57,c),
(210,226,o),
(307,403,o),
(375,403,cs),
(391,403,o),
(401,392,o),
(401,375,cs),
(401,315,o),
(342,260,o),
(244,226,c),
(244,177,l),
(358,-18,l),
(528,24,l),
(532,77,l),
(401,92,l),
(490,62,l),
(441,100,o),
(384,181,o),
(348,252,c),
(314,192,l),
(467,250,o),
(540,323,o),
(540,426,cs),
(540,483,o),
(511,510,o),
(452,510,cs),
(333,510,o),
(243,372,o),
(193,240,c),
(194,240,l),
(214,369,o),
(253,572,o),
(291,742,c),
(257,770,l),
(59,737,l),
(62,684,l),
(192,667,l),
(132,713,l),
(121,503,o),
(67,154,o),
(23,0,c),
(61,-18,l)
);
}
);
width = 638;
},
{
anchors = (
{
name = bottom;
pos = (230,0);
},
{
name = top;
pos = (290,494);
}
);
layerId = "3088057A-3552-44D5-8A67-1301E2609A93";
shapes = (
{
closed = 1;
nodes = (
(476,35,l),
(480,68,l),
(354,68,l),
(398,54,l),
(356,94,o),
(302,169,o),
(267,229,c),
(251,209,l),
(384,244,o),
(470,335,o),
(470,428,cs),
(470,476,o),
(448,508,o),
(406,508,cs),
(323,508,o),
(234,436,o),
(174,306,c),
(158,140,l),
(201,313,o),
(300,437,o),
(375,437,cs),
(390,437,o),
(401,426,o),
(401,406,cs),
(401,337,o),
(330,271,o),
(206,233,c),
(206,197,l),
(336,-10,l)
);
},
{
closed = 1;
nodes = (
(138,5,l),
(183,299,l),
(195,370,o),
(206,444,o),
(219,489,c),
(200,508,l),
(39,463,l),
(39,428,l),
(156,422,l),
(127,448,l),
(109,270,o),
(107,216,o),
(55,5,c),
(79,-10,l)
);
}
);
width = 520;
}
);
unicode = 312;
},
{
color = 6;
glyphname = l;
kernLeft = lc_LongtStem;
kernRight = lc_LongtStem;
layers = (
{
anchors = (
{
name = bottom;
pos = (151,0);
},
{
name = center;
pos = (154,382);
},
{
name = centerright;
pos = (368,410);
},
{
name = top;
pos = (185,756);
},
{
name = topright;
pos = (342,494);
}
);
background = {
shapes = (
{
ref = ldot;
}
);
};
color = 6;
layerId = "B953D09C-6DD0-450A-A78C-8C2188DD4016";
shapes = (
{
closed = 1;
nodes = (
(256,27,l),
(260,80,l),
(122,93,l),
(183,65,l),
(193,182,o),
(233,439,o),
(288,742,c),
(254,770,l),
(56,737,l),
(59,684,l),
(189,667,l),
(128,692,l),
(123,611,o),
(87,232,o),
(21,3,c),
(56,-15,l)
);
}
);
width = 299;
},
{
anchors = (
{
name = bottom;
pos = (141,0);
},
{
name = center;
pos = (144,386);
},
{
name = centerright;
pos = (327,414);
},
{
name = top;
pos = (151,756);
},
{
name = topright;
pos = (289,500);
}
);
background = {
shapes = (
{
ref = ldot;
}
);
};
layerId = "3088057A-3552-44D5-8A67-1301E2609A93";
shapes = (
{
closed = 1;
nodes = (
(207,35,l),
(209,68,l),
(87,74,l),
(115,49,l),
(147,321,o),
(189,541,o),
(226,752,c),
(206,770,l),
(46,743,l),
(49,707,l),
(166,689,l),
(136,712,l),
(122,515,o),
(72,177,o),
(28,5,c),
(52,-10,l)
);
}
);
width = 246.2;
}
);
unicode = 108;
},
{
color = 6;
glyphname = m;
kernLeft = lc_ShortStem;
kernRight = lc_Shoulder;
layers = (
{
anchors = (
{
name = bottom;
pos = (416,0);
},
{
name = top;
pos = (476,494);
}
);
color = 6;
layerId = "B953D09C-6DD0-450A-A78C-8C2188DD4016";
shapes = (
{
closed = 1;
nodes = (
(187,3,l),
(189,19,o),
(192,35,o),
(194,51,c),
(218,193,o),
(311,384,o),
(379,384,cs),
(399,384,o),
(401,359,o),
(401,340,cs),
(401,281,o),
(358,125,o),
(323,3,c),
(358,-15,l),
(473,3,l),
(474,13,o),
(475,22,o),
(476,31,c),
(496,176,o),
(595,384,o),
(665,384,cs),
(684,384,o),
(686,359,o),
(686,340,cs),
(686,281,o),
(644,125,o),
(609,3,c),
(643,-15,l),
(844,27,l),
(848,80,l),
(716,90,l),
(776,40,l),
(780,179,o),
(831,331,o),
(831,430,cs),
(831,477,o),
(803,513,o),
(751,513,cs),
(623,513,o),
(527,333,o),
(477,233,c),
(482,222,l),
(533,358,o),
(588,513,o),
(465,513,cs),
(330,513,o),
(238,337,o),
(190,221,c),
(195,222,l),
(219,342,o),
(252,416,o),
(277,485,c),
(238,513,l),
(47,470,l),
(47,418,l),
(178,410,l),
(116,450,l),
(110,318,o),
(85,183,o),
(36,3,c),
(71,-15,l)
);
}
);
width = 891;
},
{
anchors = (
{
name = bottom;
pos = (381,0);
},
{
name = top;
pos = (441,494);
}
);
layerId = "3088057A-3552-44D5-8A67-1301E2609A93";
shapes = (
{
closed = 1;
nodes = (
(138,5,l),
(142,42,o),
(147,79,o),
(153,116,c),
(203,326,o),
(310,442,o),
(355,442,cs),
(384,442,o),
(391,416,o),
(391,387,cs),
(391,294,o),
(357,137,o),
(326,5,c),
(350,-10,l),
(410,5,l),
(416,55,o),
(424,118,o),
(429,145,c),
(486,351,o),
(585,442,o),
(623,442,cs),
(651,442,o),
(660,417,o),
(660,387,cs),
(660,292,o),
(624,135,o),
(594,5,c),
(619,-10,l),
(785,35,l),
(788,68,l),
(661,75,l),
(690,52,l),
(694,187,o),
(743,330,o),
(743,426,cs),
(743,470,o),
(724,508,o),
(673,508,cs),
(560,508,o),
(482,378,o),
(440,299,c),
(458,300,l),
(486,403,o),
(487,508,o),
(405,508,cs),
(306,508,o),
(220,400,o),
(180,312,c),
(185,303,l),
(198,381,o),
(206,444,o),
(219,489,c),
(200,508,l),
(39,463,l),
(39,428,l),
(156,422,l),
(127,448,l),
(111,277,o),
(104,203,o),
(55,5,c),
(79,-10,l)
);
}
);
width = 823.9;
}
);
unicode = 109;
},
{
color = 6;
glyphname = n;
kernLeft = lc_ShortStem;
kernRight = lc_Shoulder;
layers = (
{
anchors = (
{
name = bottom;
pos = (279,0);
},
{
name = top;
pos = (349,494);
}
);
color = 6;
layerId = "B953D09C-6DD0-450A-A78C-8C2188DD4016";
shapes = (
{
closed = 1;
nodes = (
(186,3,l),
(188,17,o),
(190,34,o),
(193,50,c),
(217,192,o),
(313,384,o),
(381,384,cs),
(401,384,o),
(403,359,o),
(403,340,cs),
(403,281,o),
(361,125,o),
(325,3,c),
(361,-15,l),
(562,27,l),
(566,80,l),
(433,93,l),
(493,42,l),
(496,179,o),
(548,331,o),
(548,430,cs),
(548,477,o),
(519,513,o),
(467,513,cs),
(337,513,o),
(245,357,o),
(191,222,c),
(195,222,l),
(219,342,o),
(253,416,o),
(276,485,c),
(237,513,l),
(46,470,l),
(46,418,l),
(177,410,l),
(116,450,l),
(111,318,o),
(84,183,o),
(36,3,c),
(70,-15,l)
);
}
);
width = 608;
},
{
anchors = (
{
name = bottom;
pos = (239,0);
},
{
name = top;
pos = (321,494);
}
);
layerId = "3088057A-3552-44D5-8A67-1301E2609A93";
shapes = (
{
closed = 1;
nodes = (
(139,5,l),
(143,43,o),
(147,75,o),
(154,115,c),
(207,336,o),
(314,442,o),
(355,442,cs),
(383,442,o),
(390,415,o),
(390,387,cs),
(390,290,o),
(355,136,o),
(327,5,c),
(350,-10,l),
(516,35,l),
(519,68,l),
(391,74,l),
(421,51,l),
(426,187,o),
(474,330,o),
(474,426,cs),
(474,470,o),
(455,508,o),
(404,508,cs),
(301,508,o),
(215,386,o),
(181,312,c),
(186,303,l),
(198,375,o),
(206,442,o),
(220,489,c),
(201,508,l),
(40,463,l),
(40,428,l),
(157,422,l),
(128,448,l),
(110,270,o),
(108,216,o),
(56,5,c),
(80,-10,l)
);
}
);
width = 556;
}
);
unicode = 110;
},
{
color = 3;
glyphname = napostrophe;
kernLeft = lc_ShortStem;
kernRight = lc_Shoulder;
layers = (
{
anchors = (
{
name = bottom;
pos = (358,0);
},
{
name = top;
pos = (428,494);
}
);
color = 3;
layerId = "B953D09C-6DD0-450A-A78C-8C2188DD4016";
shapes = (
{
closed = 1;
nodes = (
(275,0,l),
(277,14,o),
(279,31,o),
(282,47,c),
(306,189,o),
(402,381,o),
(470,381,cs),
(490,381,o),
(492,356,o),
(492,337,cs),
(492,278,o),
(450,122,o),
(414,0,c),
(450,-18,l),
(651,24,l),
(655,77,l),
(522,90,l),
(582,39,l),
(585,176,o),
(637,328,o),
(637,427,cs),
(637,474,o),
(608,510,o),
(556,510,cs),
(426,510,o),
(340,363,o),
(292,248,c),
(297,229,l),
(321,349,o),
(342,413,o),
(365,482,c),
(326,510,l),
(206,483,l),
(206,337,o),
(170,168,o),
(125,0,c),
(159,-18,l)
);
},
{
pos = (-43,-160);
ref = apostrophemod;
}
);
width = 698;
},
{
anchors = (
{
name = bottom;
pos = (322,0);
},
{
name = top;
pos = (392,494);
}
);
layerId = "3088057A-3552-44D5-8A67-1301E2609A93";
shapes = (
{
closed = 1;
nodes = (
(220,0,l),
(225,35,o),
(230,71,o),
(235,106,c),
(285,317,o),
(390,432,o),
(434,432,cs),
(463,432,o),
(469,407,o),
(469,379,cs),
(469,288,o),
(434,130,o),
(404,0,c),
(428,-15,l),
(596,30,l),
(599,64,l),
(471,70,l),
(504,45,l),
(508,179,o),
(558,327,o),
(558,422,cs),
(558,469,o),
(538,503,o),
(487,503,cs),
(384,503,o),
(299,387,o),
(258,298,c),
(263,291,l),
(276,366,o),
(288,436,o),
(302,484,c),
(281,503,l),
(209,484,l),
(194,317,o),
(183,196,o),
(132,0,c),
(157,-15,l)
);
},
{
alignment = -1;
pos = (-41,-160);
ref = apostrophemod;
}
);
width = 637.5;
}
);
unicode = 329;
},
{
color = 6;
glyphname = nhookleft;
kernLeft = lc_j;
kernRight = lc_Shoulder;
layers = (
{
color = 6;
layerId = "B953D09C-6DD0-450A-A78C-8C2188DD4016";
shapes = (
{
closed = 1;
nodes = (
(45,-199,o),
(139,-128,o),
(180,-17,cs),
(189,9,o),
(192,34,o),
(196,65,c),
(221,205,o),
(323,384,o),
(384,384,cs),
(404,384,o),
(406,359,o),
(406,340,cs),
(406,281,o),
(364,125,o),
(328,3,c),
(364,-15,l),
(565,27,l),
(569,80,l),
(436,93,l),
(496,42,l),
(499,179,o),
(551,331,o),
(551,430,cs),
(551,477,o),
(522,513,o),
(470,513,cs),
(347,513,o),
(264,382,o),
(214,271,c),
(224,269,l),
(238,341,o),
(254,406,o),
(272,485,c),
(233,513,l),
(43,470,l),
(43,418,l),
(175,410,l),
(114,455,l),
(111,361,o),
(96,258,o),
(78,162,cs),
(56,25,o),
(30,-109,o),
(-49,-109,c),
(-69,-188,l)
);
}
);
width = 610;
},
{
layerId = "3088057A-3552-44D5-8A67-1301E2609A93";
shapes = (
{
closed = 1;
nodes = (
(55,-194,o),
(123,-99,o),
(139,7,cs),
(147,53,o),
(151,78,o),
(158,117,c),
(210,325,o),
(312,436,o),
(355,436,cs),
(384,436,o),
(391,411,o),
(391,384,cs),
(391,293,o),
(354,134,o),
(325,5,c),
(349,-10,l),
(517,35,l),
(520,68,l),
(392,74,l),
(425,49,l),
(429,186,o),
(480,330,o),
(480,426,cs),
(480,473,o),
(459,508,o),
(408,508,cs),
(307,508,o),
(222,396,o),
(181,303,c),
(187,294,l),
(197,374,o),
(209,437,o),
(224,488,c),
(202,508,l),
(40,463,l),
(41,426,l),
(157,420,l),
(126,443,l),
(119,357,o),
(108,259,o),
(95,169,cs),
(64,-26,o),
(43,-144,o),
(-68,-144,c),
(-73,-195,l)
);
}
);
width = 556.1;
}
);
unicode = 626;
},
{
color = 6;
glyphname = eng;
kernLeft = lc_Round;
kernRight = lc_descender;
layers = (
{
color = 6;
layerId = "B953D09C-6DD0-450A-A78C-8C2188DD4016";
shapes = (
{
closed = 1;
nodes = (
(317,-174,o),
(460,-30,o),
(474,9,cs),
(481,29,o),
(497,110,o),
(512,195,cs),
(528,284,o),
(549,367,o),
(549,430,cs),
(549,477,o),
(520,513,o),
(468,513,cs),
(338,513,o),
(252,366,o),
(204,251,c),
(209,232,l),
(233,352,o),
(254,416,o),
(277,485,c),
(238,513,l),
(47,470,l),
(47,418,l),
(178,410,l),
(117,450,l),
(112,318,o),
(85,183,o),
(37,3,c),
(71,-15,l),
(187,3,l),
(189,17,o),
(191,34,o),
(194,50,c),
(218,192,o),
(314,384,o),
(382,384,cs),
(402,384,o),
(404,359,o),
(404,340,cs),
(404,284,o),
(374,155,o),
(331,18,cs),
(326,2,o),
(258,-113,o),
(211,-198,c),
(258,-232,l)
);
}
);
width = 586;
},
{
layerId = "3088057A-3552-44D5-8A67-1301E2609A93";
shapes = (
{
closed = 1;
nodes = (
(354,-94,o),
(396,-29,o),
(400,-3,cs),
(408,47,o),
(423,116,o),
(427,139,cs),
(447,240,o),
(474,359,o),
(474,426,cs),
(474,470,o),
(455,508,o),
(404,508,cs),
(304,508,o),
(217,390,o),
(179,307,c),
(184,300,l),
(196,371,o),
(206,438,o),
(220,489,c),
(201,508,l),
(40,463,l),
(40,428,l),
(157,422,l),
(128,448,l),
(110,270,o),
(108,216,o),
(56,5,c),
(80,-10,l),
(139,5,l),
(143,43,o),
(147,75,o),
(154,115,c),
(207,336,o),
(314,442,o),
(355,442,cs),
(383,442,o),
(390,415,o),
(390,387,cs),
(390,288,o),
(354,131,o),
(329,16,cs),
(317,-33,o),
(261,-134,o),
(215,-212,c),
(243,-238,l)
);
}
);
width = 516.7;
}
);
unicode = 331;
},
{
color = 6;
glyphname = o;
kernLeft = lc_Round;
kernRight = lc_Round;
layers = (
{
anchors = (
{
name = bottom;
pos = (221,0);
},
{
name = center;
pos = (256,247);
},
{
name = ogonek;
pos = (290,5);
},
{
name = top;
pos = (311,494);
},
{
name = topright;
pos = (386,440);
}
);
color = 6;
layerId = "B953D09C-6DD0-450A-A78C-8C2188DD4016";
shapes = (
{
closed = 1;
nodes = (
(353,-15,o),
(483,138,o),
(483,328,cs),
(483,449,o),
(426,513,o),
(319,513,cs),
(160,513,o),
(29,360,o),
(29,170,cs),
(29,49,o),
(87,-15,o),
(193,-15,cs)
);
},
{
closed = 1;
nodes = (
(195,78,o),
(175,113,o),
(175,174,cs),
(175,331,o),
(215,420,o),
(287,420,cs),
(317,420,o),
(337,385,o),
(337,324,cs),
(337,167,o),
(297,78,o),
(226,78,cs)
);
}
);
width = 512;
},
{
anchors = (
{
name = bottom;
pos = (198,0);
},
{
name = center;
pos = (233,249);
},
{
name = ogonek;
pos = (253,2);
},
{
name = top;
pos = (277,494);
},
{
name = topright;
pos = (377,444);
}
);
layerId = "3088057A-3552-44D5-8A67-1301E2609A93";
shapes = (
{
closed = 1;
nodes = (
(311,-10,o),
(431,153,o),
(431,337,cs),
(431,445,o),
(381,508,o),
(290,508,cs),
(153,508,o),
(33,345,o),
(33,163,cs),
(33,57,o),
(84,-10,o),
(174,-10,cs)
);
},
{
closed = 1;
nodes = (
(143,41,o),
(121,82,o),
(121,158,cs),
(121,326,o),
(186,459,o),
(276,459,cs),
(323,459,o),
(344,417,o),
(344,341,cs),
(344,170,o),
(277,41,o),
(189,41,cs)
);
}
);
width = 463.6;
}
);
unicode = 111;
},
{
color = 3;
glyphname = oslash;
kernLeft = lc_Round;
kernRight = lc_Round;
layers = (
{
anchors = (
{
name = top;
pos = (304,494);
}
);
color = 3;
layerId = "B953D09C-6DD0-450A-A78C-8C2188DD4016";
shapes = (
{
closed = 1;
nodes = (
(448,602,l),
(15,-75,l),
(66,-103,l),
(500,574,l)
);
},
{
pos = (3,0);
ref = o;
}
);
width = 517;
},
{
anchors = (
{
name = top;
pos = (269,494);
}
);
layerId = "3088057A-3552-44D5-8A67-1301E2609A93";
shapes = (
{
closed = 1;
nodes = (
(447,598,l),
(-11,-81,l),
(23,-99,l),
(481,580,l)
);
},
{
alignment = -1;
pos = (4,0);
ref = o;
}
);
width = 473;
}
);
unicode = 248;
},
{
color = 6;
glyphname = oe;
kernLeft = lc_Round;
kernRight = lc_e;
layers = (
{
anchors = (
{
name = bottom;
pos = (347,0);
},
{
name = top;
pos = (409,498);
}
);
color = 6;
layerId = "B953D09C-6DD0-450A-A78C-8C2188DD4016";
shapes = (
{
closed = 1;
nodes = (
(353,-15,o),
(483,138,o),
(483,328,cs),
(483,449,o),
(426,513,o),
(319,513,cs),
(160,513,o),
(29,360,o),
(29,170,cs),
(29,49,o),
(87,-15,o),
(193,-15,cs)
);
},
{
closed = 1;
nodes = (
(195,78,o),
(175,113,o),
(175,174,cs),
(175,331,o),
(215,420,o),
(287,420,cs),
(317,420,o),
(337,385,o),
(337,324,cs),
(337,167,o),
(297,78,o),
(226,78,cs)
);
},
{
closed = 1;
nodes = (
(547,-15,o),
(648,44,o),
(706,124,c),
(660,164,l),
(624,127,o),
(562,82,o),
(520,82,cs),
(489,82,o),
(466,102,o),
(466,154,cs),
(466,270,o),
(516,423,o),
(564,423,cs),
(603,423,o),
(617,413,o),
(617,395,cs),
(617,339,o),
(545,263,o),
(429,253,c),
(428,191,l),
(624,215,o),
(745,310,o),
(745,424,cs),
(745,483,o),
(689,513,o),
(584,513,cs),
(479,513,o),
(328,299,o),
(328,138,cs),
(328,28,o),
(389,-15,o),
(463,-15,cs)
);
}
);
width = 756;
},
{
anchors = (
{
name = bottom;
pos = (413,0);
},
{
name = top;
pos = (475,498);
}
);
layerId = "3088057A-3552-44D5-8A67-1301E2609A93";
shapes = (
{
closed = 1;
nodes = (
(311,-10,o),
(431,153,o),
(431,337,cs),
(431,445,o),
(381,508,o),
(290,508,cs),
(153,508,o),
(33,345,o),
(33,163,cs),
(33,57,o),
(84,-10,o),
(174,-10,cs)
);
},
{
closed = 1;
nodes = (
(143,41,o),
(121,82,o),
(121,158,cs),
(121,326,o),
(186,459,o),
(276,459,cs),
(323,459,o),
(344,417,o),
(344,341,cs),
(344,170,o),
(277,41,o),
(189,41,cs)
);
},
{
closed = 1;
nodes = (
(523,-10,o),
(602,39,o),
(658,133,c),
(627,153,l),
(577,82,o),
(518,47,o),
(471,47,cs),
(430,47,o),
(409,84,o),
(409,150,cs),
(409,270,o),
(482,453,o),
(532,453,cs),
(578,453,o),
(598,438,o),
(598,404,cs),
(598,330,o),
(515,271,o),
(395,253,c),
(394,211,l),
(571,243,o),
(679,325,o),
(679,430,cs),
(679,481,o),
(627,508,o),
(535,508,cs),
(449,508,o),
(327,295,o),
(327,141,cs),
(327,43,o),
(366,-10,o),
(439,-10,cs)
);
}
);
width = 701;
}
);
unicode = 339;
},
{
color = 6;
glyphname = p;
kernLeft = lc_LongtStem;
kernRight = lc_Round;
layers = (
{
anchors = (
{
name = bottom;
pos = (241,0);
},
{
name = top;
pos = (311,494);
}
);
color = 6;
layerId = "B953D09C-6DD0-450A-A78C-8C2188DD4016";
shapes = (
{
closed = 1;
nodes = (
(156,-256,l),
(168,-147,o),
(180,-54,o),
(193,36,c),
(189,210,o),
(299,384,o),
(352,384,cs),
(374,384,o),
(378,358,o),
(378,323,cs),
(378,206,o),
(338,91,o),
(304,91,cs),
(264,91,o),
(213,111,o),
(188,122,c),
(173,2,l),
(206,-4,o),
(259,-15,o),
(286,-15,cs),
(402,-15,o),
(519,186,o),
(519,358,cs),
(519,436,o),
(495,513,o),
(439,513,cs),
(318,513,o),
(246,366,o),
(185,245,c),
(193,247,l),
(212,338,o),
(249,428,o),
(271,485,c),
(231,513,l),
(40,470,l),
(40,418,l),
(173,410,l),
(112,440,l),
(105,301,o),
(65,-38,o),
(6,-256,c),
(40,-274,l)
);
}
);
width = 548;
},
{
anchors = (
{
name = bottom;
pos = (218,0);
},
{
name = top;
pos = (288,494);
}
);
layerId = "3088057A-3552-44D5-8A67-1301E2609A93";
shapes = (
{
closed = 1;
nodes = (
(98,-263,l),
(111,-145,o),
(124,-51,o),
(138,55,c),
(163,227,o),
(274,456,o),
(339,456,cs),
(367,456,o),
(388,410,o),
(388,352,cs),
(388,230,o),
(315,38,o),
(262,38,cs),
(218,38,o),
(137,78,o),
(129,81,c),
(121,4,l),
(143,0,o),
(215,-10,o),
(249,-10,cs),
(339,-10,o),
(468,206,o),
(468,358,cs),
(468,458,o),
(432,508,o),
(365,508,cs),
(307,508,o),
(234,449,o),
(182,345,c),
(192,345,l),
(204,418,o),
(208,437,o),
(220,489,c),
(200,508,l),
(40,463,l),
(40,428,l),
(157,422,l),
(126,439,l),
(113,270,o),
(58,-67,o),
(16,-263,c),
(40,-277,l)
);
}
);
width = 497.4;
}
);
unicode = 112;
},
{
color = 6;
glyphname = thorn;
kernLeft = lc_LongStem;
kernRight = lc_Round;
layers = (
{
anchors = (
{
name = bottom;
pos = (237,0);
},
{
name = top;
pos = (297,494);
}
);
color = 6;
layerId = "B953D09C-6DD0-450A-A78C-8C2188DD4016";
shapes = (
{
closed = 1;
nodes = (
(149,-259,l),
(167,0,o),
(170,190,o),
(289,741,c),
(255,769,l),
(57,736,l),
(60,683,l),
(190,666,l),
(129,691,l),
(122,552,o),
(58,-41,o),
(-1,-259,c),
(33,-277,l)
);
},
{
closed = 1;
nodes = (
(390,-15,o),
(507,187,o),
(507,358,cs),
(507,437,o),
(483,513,o),
(426,513,cs),
(281,513,o),
(153,282,o),
(117,61,c),
(183,80,l),
(195,237,o),
(292,386,o),
(341,386,cs),
(364,386,o),
(368,360,o),
(368,324,cs),
(368,207,o),
(327,89,o),
(292,89,cs),
(237,89,o),
(163,127,o),
(163,127,c),
(132,6,l),
(148,6,o),
(236,-15,o),
(275,-15,cs)
);
}
);
width = 537;
},
{
anchors = (
{
name = bottom;
pos = (204,0);
},
{
name = top;
pos = (264,494);
}
);
layerId = "3088057A-3552-44D5-8A67-1301E2609A93";
shapes = (
{
closed = 1;
nodes = (
(73,-262,l),
(111,46,o),
(192,551,o),
(225,752,c),
(204,770,l),
(45,744,l),
(48,708,l),
(165,690,l),
(141,712,l),
(114,433,o),
(68,59,o),
(-9,-262,c),
(15,-277,l)
);
},
{
closed = 1;
nodes = (
(312,-8,o),
(441,208,o),
(441,358,cs),
(441,461,o),
(403,508,o),
(336,508,cs),
(223,508,o),
(99,281,o),
(65,61,c),
(119,80,l),
(136,235,o),
(254,461,o),
(316,461,cs),
(343,461,o),
(364,416,o),
(364,355,cs),
(364,230,o),
(289,35,o),
(236,35,cs),
(192,35,o),
(114,74,o),
(114,74,c),
(89,5,l),
(104,5,o),
(185,-8,o),
(222,-8,cs)
);
}
);
width = 469.9;
}
);
metricLeft = "=b";
unicode = 254;
},
{
color = 6;
glyphname = q;
kernLeft = lc_Round;
kernRight = lc_LongtStem;
layers = (
{
anchors = (
{
name = bottom;
pos = (227,0);
},
{
name = top;
pos = (287,494);
}
);
color = 6;
layerId = "B953D09C-6DD0-450A-A78C-8C2188DD4016";
shapes = (
{
closed = 1;
nodes = (
(394,-253,l),
(410,-94,o),
(458,313,o),
(506,485,c),
(466,513,l),
(358,484,l),
(356,438,ls),
(349,273,o),
(246,114,o),
(197,114,cs),
(174,114,o),
(170,140,o),
(170,175,cs),
(170,292,o),
(210,407,o),
(245,407,cs),
(299,407,o),
(370,372,o),
(380,370,c),
(396,492,l),
(376,493,o),
(301,513,o),
(263,513,cs),
(147,513,o),
(30,312,o),
(30,140,cs),
(30,62,o),
(53,-15,o),
(110,-15,cs),
(218,-15,o),
(316,113,o),
(375,266,c),
(363,282,l),
(356,198,o),
(323,79,o),
(298,-4,c),
(280,-96,o),
(259,-186,o),
(240,-259,c),
(275,-277,l)
);
}
);
width = 532;
},
{
anchors = (
{
name = bottom;
pos = (207,0);
},
{
name = top;
pos = (267,494);
}
);
layerId = "3088057A-3552-44D5-8A67-1301E2609A93";
shapes = (
{
closed = 1;
nodes = (
(337,-257,l),
(345,-64,o),
(399,315,o),
(448,495,c),
(426,508,l),
(354,492,l),
(352,441,ls),
(346,286,o),
(217,43,o),
(157,43,cs),
(130,43,o),
(111,86,o),
(111,146,cs),
(111,267,o),
(183,461,o),
(234,461,cs),
(287,461,o),
(365,416,o),
(378,410,c),
(380,494,l),
(360,495,o),
(282,508,o),
(248,508,cs),
(157,508,o),
(27,294,o),
(29,140,cs),
(30,39,o),
(64,-10,o),
(132,-10,cs),
(205,-10,o),
(281,80,o),
(333,196,c),
(328,215,l),
(312,106,o),
(303,64,o),
(291,-6,c),
(277,-91,o),
(262,-176,o),
(248,-262,c),
(271,-277,l)
);
}
);
width = 473.7;
}
);
unicode = 113;
},
{
color = 6;
glyphname = r;
kernLeft = lc_ShortStem;
kernRight = lc_r;
layers = (
{
anchors = (
{
name = bottom;
pos = (161,0);
},
{
name = top;
pos = (241,494);
}
);
color = 6;
layerId = "B953D09C-6DD0-450A-A78C-8C2188DD4016";
shapes = (
{
closed = 1;
nodes = (
(186,3,l),
(188,55,o),
(192,110,o),
(203,159,c),
(217,213,o),
(271,340,o),
(326,340,cs),
(341,340,o),
(373,325,o),
(387,318,c),
(428,497,l),
(421,504,o),
(409,512,o),
(398,512,cs),
(338,512,o),
(244,368,o),
(167,187,c),
(187,206,l),
(202,300,o),
(233,382,o),
(276,485,c),
(237,513,l),
(46,470,l),
(46,418,l),
(177,410,l),
(116,447,l),
(110,326,o),
(89,201,o),
(36,3,c),
(70,-15,l)
);
}
);
width = 423;
},
{
anchors = (
{
name = bottom;
pos = (108,0);
},
{
name = top;
pos = (289,494);
}
);
associatedMasterId = "B953D09C-6DD0-450A-A78C-8C2188DD4016";
background = {
anchors = (
{
name = bottom;
pos = (108,0);
},
{
name = top;
pos = (289,494);
}
);
shapes = (
{
closed = 1;
nodes = (
(347,510,o),
(257,410,o),
(200,282,c),
(214,348,o),
(231,396,o),
(267,482,c),
(228,510,l),
(37,467,l),
(37,415,l),
(105,411,l),
(97,300,o),
(75,180,o),
(27,0,c),
(61,-18,l),
(177,0,l),
(193,116,l),
(227,233,o),
(302,349,o),
(354,373,c),
(355,280,l),
(410,277,l),
(453,466,l),
(428,505,l),
(417,508,o),
(410,510,o),
(403,510,cs)
);
},
{
closed = 1;
nodes = (
(328,504,o),
(254,434,o),
(201,324,c),
(210,379,o),
(222,433,o),
(237,484,c),
(214,504,l),
(49,461,l),
(49,422,l),
(132,418,l),
(116,252,o),
(102,168,o),
(60,0,c),
(86,-15,l),
(154,0,l),
(168,104,l),
(186,236,o),
(267,387,o),
(343,430,c),
(340,270,l),
(377,267,l),
(431,476,l),
(414,500,l),
(413,501,o),
(401,504,o),
(391,504,cs)
);
}
);
};
color = 6;
layerId = "48DDDB51-FB75-49FC-9835-0F451F2EDB82";
name = "Bold Extended Italic Jul 3 15, 13:45";
shapes = (
{
closed = 1;
nodes = (
(347,510,o),
(257,410,o),
(200,282,c),
(214,348,o),
(231,396,o),
(267,482,c),
(228,510,l),
(37,467,l),
(37,415,l),
(105,411,l),
(97,300,o),
(75,180,o),
(27,0,c),
(61,-18,l),
(177,0,l),
(193,116,l),
(227,233,o),
(302,349,o),
(354,373,c),
(330,240,l),
(385,237,l),
(453,466,l),
(428,505,l),
(417,508,o),
(410,510,o),
(403,510,cs)
);
}
);
width = 425;
},
{
anchors = (
{
name = bottom;
pos = (108,0);
},
{
name = top;
pos = (289,494);
}
);
associatedMasterId = "B953D09C-6DD0-450A-A78C-8C2188DD4016";
background = {
shapes = (
{
closed = 1;
nodes = (
(445,77,l),
(367,84,l),
(374,238,o),
(400,361,o),
(431,482,c),
(391,510,l),
(310,490,l),
(281,494,o),
(211,510,o),
(177,510,cs),
(61,510,o),
(-55,309,o),
(-55,137,cs),
(-55,59,o),
(-32,-18,o),
(25,-18,cs),
(122,-18,o),
(210,84,o),
(270,215,c),
(258,137,o),
(205,0,o),
(205,0,c),
(240,-18,l),
(441,24,l)
);
}
);
};
color = 6;
layerId = "26827896-1E6F-4D70-B04D-585B2F78ADDA";
name = "Bold Extended Italic Jul 3 15, 14:07";
shapes = (
{
closed = 1;
nodes = (
(392,509,o),
(381,509,cs),
(322,509,o),
(264,423,o),
(199,287,c),
(213,353,o),
(231,396,o),
(267,482,c),
(228,510,l),
(37,467,l),
(37,415,l),
(105,411,l),
(97,300,o),
(75,180,o),
(27,0,c),
(61,-18,l),
(177,0,l),
(181,52,o),
(186,104,o),
(194,156,c),
(226,272,o),
(290,342,o),
(338,342,cs),
(362,342,o),
(373,335,o),
(391,325,c),
(430,455,l),
(416,498,l),
(404,505,o)
);
}
);
width = 405;
},
{
anchors = (
{
name = bottom;
pos = (108,0);
},
{
name = top;
pos = (289,494);
}
);
associatedMasterId = "B953D09C-6DD0-450A-A78C-8C2188DD4016";
background = {
shapes = (
{
closed = 1;
nodes = (
(451,77,l),
(373,84,l),
(380,238,o),
(406,361,o),
(437,482,c),
(397,510,l),
(316,490,l),
(287,494,o),
(217,510,o),
(183,510,cs),
(67,510,o),
(-49,309,o),
(-49,137,cs),
(-49,59,o),
(-26,-18,o),
(31,-18,cs),
(128,-18,o),
(216,84,o),
(276,215,c),
(264,137,o),
(211,0,o),
(211,0,c),
(246,-18,l),
(447,24,l)
);
}
);
};
color = 6;
layerId = "310CB22E-00DA-40FA-9B04-945B7E4ECD49";
name = "Bold Extended Italic Jul 3 15, 14:08";
shapes = (
{
closed = 1;
nodes = (
(386,509,o),
(381,509,cs),
(322,509,o),
(264,423,o),
(199,287,c),
(213,353,o),
(231,396,o),
(267,482,c),
(228,510,l),
(37,467,l),
(37,415,l),
(105,411,l),
(97,300,o),
(75,180,o),
(27,0,c),
(61,-18,l),
(177,0,l),
(181,52,o),
(186,104,o),
(194,156,c),
(226,272,o),
(290,342,o),
(338,342,cs),
(362,342,o),
(373,335,o),
(391,325,c),
(437,482,l),
(401,507,l),
(395,508,o)
);
}
);
width = 405;
},
{
anchors = (
{
name = bottom;
pos = (108,0);
},
{
name = top;
pos = (279,494);
}
);
associatedMasterId = "B953D09C-6DD0-450A-A78C-8C2188DD4016";
background = {
shapes = (
{
closed = 1;
nodes = (
(400,505,o),
(389,509,o),
(378,509,cs),
(325,509,o),
(267,429,o),
(199,287,c),
(213,353,o),
(231,396,o),
(267,482,c),
(228,510,l),
(37,467,l),
(37,415,l),
(105,411,l),
(97,300,o),
(75,180,o),
(27,0,c),
(61,-18,l),
(177,0,l),
(181,52,o),
(181,107,o),
(194,156,cs),
(208,210,o),
(271,337,o),
(326,337,cs),
(342,337,o),
(368,330,o),
(383,325,c),
(422,455,l),
(411,498,l)
);
}
);
};
color = 6;
layerId = "47C738EB-1E92-4E1C-8CCE-1AC5388126F2";
name = "Bold Extended Italic Jul 3 15, 14:22";
shapes = (
{
closed = 1;
nodes = (
(400,505,o),
(389,509,o),
(378,509,cs),
(325,509,o),
(267,429,o),
(199,287,c),
(213,353,o),
(231,396,o),
(267,482,c),
(228,510,l),
(37,467,l),
(37,415,l),
(105,411,l),
(97,300,o),
(75,180,o),
(27,0,c),
(61,-18,l),
(177,0,l),
(181,52,o),
(181,107,o),
(194,156,cs),
(208,210,o),
(271,337,o),
(326,337,cs),
(343,337,o),
(367,330,o),
(383,325,c),
(422,455,l),
(411,498,l)
);
}
);
width = 397;
},
{
anchors = (
{
name = bottom;
pos = (149,0);
},
{
name = top;
pos = (217,494);
}
);
layerId = "3088057A-3552-44D5-8A67-1301E2609A93";
shapes = (
{
closed = 1;
nodes = (
(137,5,l),
(143,37,o),
(146,66,o),
(151,100,c),
(194,310,o),
(267,388,o),
(318,388,cs),
(327,388,o),
(342,386,o),
(355,382,c),
(390,496,l),
(383,500,o),
(372,508,o),
(355,508,cs),
(294,508,o),
(234,422,o),
(178,308,c),
(188,314,l),
(195,367,o),
(209,433,o),
(219,489,c),
(200,508,l),
(39,463,l),
(39,428,l),
(156,422,l),
(128,453,l),
(110,250,o),
(93,167,o),
(54,5,c),
(78,-10,l)
);
}
);
width = 379;
}
);
unicode = 114;
},
{
color = 6;
glyphname = s;
kernLeft = lc_s;
kernRight = lc_s;
layers = (
{
anchors = (
{
name = bottom;
pos = (169,0);
},
{
name = top;
pos = (249,494);
}
);
color = 6;
layerId = "B953D09C-6DD0-450A-A78C-8C2188DD4016";
shapes = (
{
closed = 1;
nodes = (
(291,-15,o),
(372,53,o),
(372,153,cs),
(372,266,o),
(206,334,o),
(206,398,cs),
(206,425,o),
(225,444,o),
(247,444,cs),
(284,444,o),
(309,426,o),
(349,382,c),
(308,481,l),
(313,335,l),
(364,332,l),
(402,460,l),
(381,498,l),
(344,505,o),
(301,513,o),
(259,513,cs),
(145,513,o),
(72,456,o),
(72,365,cs),
(72,232,o),
(228,182,o),
(228,115,cs),
(228,76,o),
(208,57,o),
(176,57,cs),
(140,57,o),
(108,78,o),
(67,129,c),
(105,27,l),
(109,180,l),
(62,193,l),
(14,76,l),
(23,32,l),
(76,-1,o),
(123,-15,o),
(178,-15,cs)
);
}
);
width = 426;
},
{
anchors = (
{
name = bottom;
pos = (146,0);
},
{
name = top;
pos = (226,494);
}
);
layerId = "3088057A-3552-44D5-8A67-1301E2609A93";
shapes = (
{
closed = 1;
nodes = (
(237,-10,o),
(319,55,o),
(319,151,cs),
(319,276,o),
(141,314,o),
(141,391,cs),
(141,432,o),
(185,461,o),
(225,461,cs),
(253,461,o),
(267,451,o),
(290,446,c),
(265,484,l),
(286,349,l),
(324,346,l),
(356,471,l),
(335,493,l),
(293,501,o),
(259,508,o),
(223,508,cs),
(146,508,o),
(73,446,o),
(73,369,cs),
(73,223,o),
(245,206,o),
(245,123,cs),
(245,68,o),
(205,39,o),
(155,39,cs),
(115,39,o),
(100,58,o),
(68,85,c),
(83,37,l),
(98,165,l),
(63,174,l),
(13,77,l),
(12,46,l),
(33,18,o),
(93,-10,o),
(144,-10,cs)
);
}
);
width = 377.6;
}
);
unicode = 115;
},
{
color = 6;
glyphname = germandbls;
kernLeft = lc_germandbls;
kernRight = lc_s;
layers = (
{
color = 6;
layerId = "B953D09C-6DD0-450A-A78C-8C2188DD4016";
shapes = (
{
closed = 1;
nodes = (
(2,-225,o),
(99,-170,o),
(151,-40,cs),
(167,0,o),
(237,574,o),
(278,634,cs),
(295,659,o),
(380,667,o),
(417,663,cs),
(438,661,o),
(459,653,o),
(459,622,cs),
(459,540,o),
(308,473,o),
(303,360,cs),
(298,244,o),
(428,174,o),
(428,107,cs),
(428,81,o),
(412,67,o),
(394,64,cs),
(363,59,o),
(328,85,o),
(290,134,c),
(330,26,l),
(333,182,l),
(285,195,l),
(237,76,l),
(247,31,l),
(303,-3,o),
(348,-15,o),
(401,-15,cs),
(508,-15,o),
(574,52,o),
(574,153,cs),
(574,265,o),
(430,328,o),
(430,394,cs),
(430,508,o),
(602,541,o),
(602,660,cs),
(602,750,o),
(523,767,o),
(465,769,cs),
(308,774,o),
(154,702,o),
(118,550,cs),
(96,458,o),
(88,352,o),
(77,269,cs),
(54,92,o),
(27,-73,o),
(-4,-101,cs),
(-21,-116,o),
(-54,-126,o),
(-99,-126,c),
(-133,-235,l)
);
}
);
width = 611;
},
{
layerId = "3088057A-3552-44D5-8A67-1301E2609A93";
shapes = (
{
closed = 1;
nodes = (
(-30,-222,o),
(75,-151,o),
(100,-35,cs),
(134,110,o),
(168,603,o),
(219,668,cs),
(244,702,o),
(312,713,o),
(358,713,cs),
(397,712,o),
(433,694,o),
(433,634,cs),
(433,507,o),
(251,499,o),
(251,356,cs),
(252,230,o),
(395,205,o),
(395,125,cs),
(395,68,o),
(359,36,o),
(307,37,cs),
(271,37,o),
(252,53,o),
(220,81,c),
(233,36,l),
(251,161,l),
(215,171,l),
(164,76,l),
(165,45,l),
(181,22,o),
(235,-10,o),
(303,-10,cs),
(382,-10,o),
(465,60,o),
(465,161,cs),
(465,273,o),
(318,303,o),
(318,381,cs),
(318,471,o),
(502,510,o),
(502,651,cs),
(502,729,o),
(455,769,o),
(381,769,cs),
(286,769,o),
(134,714,o),
(111,541,cs),
(87,365,o),
(78,243,o),
(61,132,cs),
(38,-18,o),
(14,-110,o),
(-1,-131,cs),
(-17,-153,o),
(-86,-173,o),
(-129,-173,c),
(-146,-233,l)
);
}
);
width = 502.1;
}
);
unicode = 223;
},
{
color = 6;
glyphname = t;
kernLeft = lc_t;
kernRight = lc_t;
layers = (
{
anchors = (
{
name = bottom;
pos = (164,0);
},
{
name = center;
pos = (168,270);
},
{
name = top;
pos = (227,550);
},
{
name = topright;
pos = (375,543);
}
);
background = {
shapes = (
{
closed = 1;
nodes = (
(276,27,l),
(280,80,l),
(139,91,l),
(198,44,l),
(211,191,o),
(245,376,o),
(273,485,c),
(234,513,l),
(44,469,l),
(44,419,l),
(176,410,l),
(115,451,l),
(109,317,o),
(90,185,o),
(42,3,c),
(76,-15,l)
);
}
);
};
color = 6;
layerId = "B953D09C-6DD0-450A-A78C-8C2188DD4016";
shapes = (
{
closed = 1;
nodes = (
(331,161,l),
(266,76,o),
(201,44,o),
(214,143,cs),
(227,244,o),
(239,329,o),
(261,457,c),
(185,418,l),
(379,418,l),
(399,497,l),
(207,497,l),
(260,455,l),
(280,591,l),
(214,612,l),
(214,612,o),
(169,534,o),
(151,522,cs),
(127,506,o),
(74,488,o),
(44,478,c),
(37,418,l),
(177,418,l),
(119,460,l),
(105,333,o),
(90,236,o),
(69,126,cs),
(33,-62,o),
(257,-66,o),
(380,121,c)
);
}
);
width = 415;
},
{
anchors = (
{
name = bottom;
pos = (154,0);
},
{
name = center;
pos = (143,273);
},
{
name = top;
pos = (189,539);
},
{
name = topright;
pos = (348,549);
}
);
background = {
shapes = (
{
closed = 1;
nodes = (
(321,153,l),
(279,31,o),
(139,7,o),
(160,133,cs),
(181,266,o),
(199,361,o),
(217,464,c),
(176,426,l),
(356,426,l),
(370,477,l),
(186,477,l),
(217,470,l),
(239,603,l),
(203,614,l),
(203,614,o),
(160,507,o),
(138,493,cs),
(114,480,o),
(75,472,o),
(42,467,c),
(38,426,l),
(163,426,l),
(141,466,l),
(119,289,o),
(116,266,o),
(92,145,cs),
(53,-53,o),
(264,-58,o),
(350,133,c)
);
},
{
closed = 1;
nodes = (
(246,35,l),
(250,68,l),
(126,75,l),
(154,47,l),
(179,226,o),
(204,385,o),
(233,488,c),
(211,508,l),
(49,463,l),
(50,426,l),
(166,420,l),
(135,447,l),
(119,276,o),
(109,199,o),
(61,5,c),
(85,-10,l)
);
}
);
};
layerId = "3088057A-3552-44D5-8A67-1301E2609A93";
shapes = (
{
closed = 1;
nodes = (
(321,153,l),
(279,31,o),
(150,7,o),
(168,133,cs),
(187,266,o),
(205,361,o),
(223,464,c),
(176,426,l),
(356,426,l),
(370,477,l),
(186,477,l),
(223,470,l),
(245,603,l),
(203,614,l),
(203,614,o),
(160,507,o),
(138,493,cs),
(114,480,o),
(75,472,o),
(42,467,c),
(38,426,l),
(163,426,l),
(141,466,l),
(117,289,o),
(112,266,o),
(90,145,cs),
(54,-54,o),
(264,-58,o),
(350,133,c)
);
}
);
width = 386;
}
);
unicode = 116;
},
{
color = 6;
glyphname = u;
kernLeft = lc_u;
kernRight = lc_ShortStem;
layers = (
{
anchors = (
{
name = bottom;
pos = (260,0);
},
{
name = horn;
pos = (433,492);
},
{
name = ogonek;
pos = (424,0);
},
{
name = top;
pos = (350,494);
},
{
name = topright;
pos = (596,494);
}
);
color = 6;
layerId = "B953D09C-6DD0-450A-A78C-8C2188DD4016";
shapes = (
{
closed = 1;
nodes = (
(266,-15,o),
(352,140,o),
(391,254,c),
(379,253,l),
(380,183,o),
(339,80,o),
(309,3,c),
(344,-15,l),
(545,27,l),
(549,80,l),
(409,93,l),
(469,52,l),
(472,177,o),
(507,307,o),
(553,485,c),
(514,513,l),
(404,495,l),
(397,446,l),
(380,357,o),
(340,250,o),
(297,182,cs),
(269,137,o),
(244,114,o),
(220,114,cs),
(205,114,o),
(203,137,o),
(203,155,cs),
(203,213,o),
(235,339,o),
(277,485,c),
(236,513,l),
(46,470,l),
(46,418,l),
(177,410,l),
(116,459,l),
(120,318,o),
(56,168,o),
(56,66,cs),
(56,20,o),
(83,-15,o),
(132,-15,cs)
);
}
);
width = 592;
},
{
anchors = (
{
name = bottom;
pos = (229,0);
},
{
name = horn;
pos = (421,500);
},
{
name = ogonek;
pos = (373,0);
},
{
name = top;
pos = (296,494);
},
{
name = topright;
pos = (543,500);
}
);
layerId = "3088057A-3552-44D5-8A67-1301E2609A93";
shapes = (
{
closed = 1;
nodes = (
(214,-10,o),
(297,76,o),
(356,206,c),
(348,207,l),
(334,125,o),
(324,71,o),
(306,5,c),
(330,-10,l),
(489,35,l),
(492,68,l),
(371,72,l),
(399,47,l),
(415,238,o),
(431,305,o),
(478,495,c),
(457,508,l),
(391,493,l),
(382,428,l),
(353,302,o),
(324,220,o),
(283,156,cs),
(242,91,o),
(211,58,o),
(185,58,cs),
(157,58,o),
(151,82,o),
(151,112,cs),
(151,187,o),
(178,329,o),
(220,489,c),
(201,508,l),
(41,463,l),
(41,428,l),
(157,422,l),
(128,449,l),
(120,296,o),
(67,169,o),
(67,80,cs),
(67,35,o),
(89,-10,o),
(133,-10,cs)
);
}
);
width = 529.3;
}
);
unicode = 117;
},
{
color = 6;
glyphname = v;
kernLeft = lc_u;
kernRight = lc_v;
layers = (
{
anchors = (
{
name = bottom;
pos = (230,0);
},
{
name = top;
pos = (300,494);
}
);
color = 6;
layerId = "B953D09C-6DD0-450A-A78C-8C2188DD4016";
shapes = (
{
closed = 1;
nodes = (
(320,-15,o),
(514,241,o),
(527,485,c),
(488,513,l),
(319,470,l),
(319,418,l),
(445,410,l),
(380,436,l),
(384,399,o),
(387,366,o),
(387,354,cs),
(387,236,o),
(301,97,o),
(229,97,cs),
(215,97,o),
(205,106,o),
(205,118,cs),
(205,157,o),
(245,340,o),
(245,380,cs),
(245,485,l),
(204,513,l),
(41,470,l),
(41,418,l),
(170,410,l),
(105,436,l),
(107,419,o),
(109,363,o),
(109,342,cs),
(109,287,o),
(64,111,o),
(64,56,cs),
(64,8,o),
(91,-15,o),
(148,-15,cs)
);
}
);
width = 531;
},
{
anchors = (
{
name = bottom;
pos = (207,0);
},
{
name = top;
pos = (275,494);
}
);
layerId = "3088057A-3552-44D5-8A67-1301E2609A93";
shapes = (
{
closed = 1;
nodes = (
(300,-10,o),
(458,237,o),
(462,495,c),
(442,508,l),
(292,463,l),
(298,428,l),
(410,422,l),
(376,437,l),
(380,412,o),
(383,364,o),
(383,355,cs),
(383,239,o),
(270,61,o),
(194,61,cs),
(177,61,o),
(171,71,o),
(171,95,cs),
(171,165,o),
(205,340,o),
(205,376,cs),
(205,495,l),
(184,508,l),
(40,463,l),
(45,428,l),
(159,422,l),
(127,434,l),
(129,408,o),
(130,355,o),
(130,349,cs),
(130,273,o),
(83,109,o),
(83,56,cs),
(83,14,o),
(104,-10,o),
(140,-10,cs)
);
}
);
width = 474.9;
}
);
unicode = 118;
},
{
glyphname = vturned;
kernLeft = lc_vturned;
kernRight = lc_vturned;
layers = (
{
anchors = (
{
name = bottom;
pos = (213,0);
},
{
name = top;
pos = (299,494);
}
);
annotations = (
{
pos = (6,74);
type = Text;
}
);
background = {
shapes = (
{
closed = 0;
nodes = (
(15,3,l),
(35,-10,l),
(185,35,l),
(179,70,l),
(67,76,l)
);
},
{
closed = 0;
nodes = (
(67,76,l),
(101,61,l),
(97,86,o),
(94,134,o),
(94,143,cs),
(94,259,o),
(207,437,o),
(283,437,cs),
(300,437,o),
(306,427,o),
(306,403,cs),
(306,333,o),
(272,158,o),
(272,122,cs),
(272,3,l),
(293,-10,l),
(437,35,l),
(432,70,l),
(318,76,l),
(350,64,l),
(348,90,o),
(347,143,o),
(347,149,cs),
(347,225,o),
(394,389,o),
(394,442,cs),
(394,484,o),
(373,508,o),
(337,508,cs),
(177,508,o),
(19,261,o),
(15,3,c)
);
},
{
pos = (-50,0);
ref = n;
}
);
};
layerId = "3088057A-3552-44D5-8A67-1301E2609A93";
shapes = (
{
closed = 1;
nodes = (
(88,6,l),
(88,6,o),
(85,92,o),
(95,167,cs),
(110,282,o),
(212,437,o),
(283,437,cs),
(300,437,o),
(306,427,o),
(306,403,cs),
(306,333,o),
(272,158,o),
(272,122,cs),
(272,5,l),
(296,-10,l),
(471,45,l),
(436,1,l),
(445,102,l),
(476,66,l),
(320,74,l),
(350,64,l),
(348,90,o),
(347,143,o),
(347,149,cs),
(347,225,o),
(394,389,o),
(394,442,cs),
(394,484,o),
(373,508,o),
(337,508,cs),
(201,508,o),
(65,326,o),
(25,118,cs),
(18,80,o),
(7,5,o),
(7,5,c),
(32,-11,l)
);
}
);
width = 482;
},
{
anchors = (
{
name = bottom;
pos = (231,0);
},
{
name = top;
pos = (356,494);
}
);
background = {
shapes = (
{
closed = 1;
nodes = (
(213,28,l),
(213,80,l),
(87,88,l),
(152,62,l),
(148,99,o),
(145,132,o),
(145,144,cs),
(145,262,o),
(231,401,o),
(303,401,cs),
(317,401,o),
(327,392,o),
(327,380,cs),
(327,341,o),
(287,158,o),
(287,118,cs),
(287,13,l),
(328,-15,l),
(491,28,l),
(491,80,l),
(362,88,l),
(427,62,l),
(425,79,o),
(423,135,o),
(423,156,cs),
(423,211,o),
(468,387,o),
(468,442,cs),
(468,490,o),
(441,513,o),
(384,513,cs),
(212,513,o),
(18,257,o),
(5,13,c),
(44,-15,l)
);
},
{
pos = (-34,0);
ref = n;
}
);
};
layerId = "B953D09C-6DD0-450A-A78C-8C2188DD4016";
shapes = (
{
closed = 1;
nodes = (
(150,2,l),
(150,2,o),
(137,57,o),
(145,144,cs),
(158,282,o),
(231,401,o),
(303,401,cs),
(317,401,o),
(327,392,o),
(327,380,cs),
(327,341,o),
(287,158,o),
(287,118,cs),
(287,3,l),
(322,-15,l),
(511,32,l),
(485,4,l),
(493,105,l),
(514,81,l),
(386,93,l),
(427,62,l),
(425,79,o),
(423,135,o),
(423,156,cs),
(423,211,o),
(468,387,o),
(468,442,cs),
(468,490,o),
(441,513,o),
(384,513,cs),
(245,513,o),
(91,346,o),
(29,148,cs),
(15,101,o),
(6,52,o),
(3,3,c),
(38,-15,l)
);
}
);
width = 530;
}
);
unicode = 652;
},
{
color = 6;
glyphname = w;
kernLeft = lc_u;
kernRight = lc_v;
layers = (
{
anchors = (
{
name = bottom;
pos = (378,0);
},
{
name = top;
pos = (438,494);
}
);
color = 6;
layerId = "B953D09C-6DD0-450A-A78C-8C2188DD4016";
shapes = (
{
closed = 1;
nodes = (
(240,-15,o),
(327,53,o),
(388,147,c),
(361,173,l),
(361,115,o),
(359,79,o),
(359,55,cs),
(359,14,o),
(378,-15,o),
(430,-15,cs),
(632,-15,o),
(796,266,o),
(810,485,c),
(771,513,l),
(607,470,l),
(606,418,l),
(728,410,l),
(660,450,l),
(664,413,o),
(668,370,o),
(668,354,cs),
(668,237,o),
(585,97,o),
(507,97,cs),
(498,97,o),
(484,104,o),
(484,118,cs),
(484,157,o),
(520,339,o),
(520,380,c),
(514,494,l),
(480,512,l),
(368,494,l),
(368,492,o),
(382,365,o),
(382,354,cs),
(382,233,o),
(312,97,o),
(225,97,cs),
(215,97,o),
(202,104,o),
(202,118,cs),
(202,157,o),
(238,338,o),
(242,380,c),
(243,485,l),
(203,513,l),
(43,470,l),
(42,418,l),
(167,410,l),
(101,443,l),
(104,414,o),
(105,365,o),
(105,346,cs),
(105,283,o),
(60,113,o),
(60,55,cs),
(60,14,o),
(80,-15,o),
(143,-15,cs)
);
}
);
width = 814;
},
{
anchors = (
{
name = bottom;
pos = (342,0);
},
{
name = top;
pos = (402,494);
}
);
layerId = "3088057A-3552-44D5-8A67-1301E2609A93";
shapes = (
{
closed = 1;
nodes = (
(209,-10,o),
(303,45,o),
(376,164,c),
(368,168,l),
(358,119,o),
(349,80,o),
(349,62,cs),
(349,25,o),
(367,-10,o),
(400,-10,cs),
(524,-10,o),
(731,178,o),
(731,495,c),
(708,508,l),
(556,463,l),
(563,428,l),
(676,422,l),
(639,464,l),
(645,416,o),
(650,369,o),
(650,355,cs),
(650,208,o),
(514,61,o),
(452,61,cs),
(433,61,o),
(428,73,o),
(428,94,cs),
(428,164,o),
(460,340,o),
(460,376,c),
(456,493,l),
(434,507,l),
(371,489,l),
(377,432,o),
(386,364,o),
(386,355,cs),
(386,210,o),
(255,61,o),
(195,61,cs),
(178,61,o),
(171,75,o),
(171,95,cs),
(171,165,o),
(208,340,o),
(208,376,cs),
(208,495,l),
(184,508,l),
(39,463,l),
(45,428,l),
(160,422,l),
(127,451,l),
(130,429,o),
(131,378,o),
(131,349,cs),
(131,271,o),
(86,110,o),
(86,58,cs),
(86,21,o),
(104,-10,o),
(143,-10,cs)
);
}
);
width = 746.9;
}
);
unicode = 119;
},
{
color = 6;
glyphname = x;
kernLeft = lc_x;
kernRight = lc_x;
layers = (
{
anchors = (
{
name = bottom;
pos = (242,0);
},
{
name = top;
pos = (312,494);
}
);
color = 6;
layerId = "B953D09C-6DD0-450A-A78C-8C2188DD4016";
shapes = (
{
closed = 1;
nodes = (
(496,27,l),
(500,80,l),
(349,93,l),
(419,76,l),
(413,105,o),
(319,313,o),
(273,485,c),
(232,513,l),
(58,469,l),
(69,418,l),
(192,410,l),
(107,446,l),
(181,335,o),
(272,63,o),
(285,3,c),
(320,-15,l)
);
},
{
closed = 1;
nodes = (
(151,55,l),
(177,87,o),
(217,137,o),
(248,171,c),
(215,258,l),
(178,219,o),
(113,137,o),
(102,129,cs),
(92,122,o),
(37,96,o),
(4,83,c),
(28,7,l),
(58,-15,l)
);
},
{
closed = 1;
nodes = (
(372,273,o),
(449,366,o),
(461,373,cs),
(471,379,o),
(503,390,o),
(531,402,c),
(528,491,l),
(496,513,l),
(403,441,l),
(354,380,o),
(330,354,o),
(304,324,c),
(336,235,l)
);
}
);
width = 551;
},
{
anchors = (
{
name = bottom;
pos = (220,0);
},
{
name = top;
pos = (289,494);
}
);
layerId = "3088057A-3552-44D5-8A67-1301E2609A93";
shapes = (
{
closed = 1;
nodes = (
(459,35,l),
(463,68,l),
(328,74,l),
(370,50,l),
(300,211,o),
(252,349,o),
(210,496,c),
(189,508,l),
(51,468,l),
(58,433,l),
(171,428,l),
(130,444,l),
(202,321,o),
(242,192,o),
(304,5,c),
(324,-10,l)
);
},
{
closed = 1;
nodes = (
(133,53,l),
(175,101,o),
(221,171,o),
(254,218,c),
(230,271,l),
(189,207,o),
(120,113,o),
(113,108,cs),
(106,103,o),
(30,72,o),
(7,63,c),
(29,5,l),
(50,-10,l)
);
},
{
closed = 1;
nodes = (
(306,269,o),
(376,379,o),
(392,390,cs),
(401,396,o),
(451,422,o),
(489,435,c),
(475,493,l),
(455,508,l),
(373,444,l),
(338,404,o),
(293,330,o),
(256,279,c),
(279,228,l)
);
}
);
width = 507;
}
);
unicode = 120;
},
{
color = 6;
glyphname = y;
kernLeft = lc_u;
kernRight = lc_descender;
layers = (
{
anchors = (
{
name = bottom;
pos = (459,-102);
},
{
name = top;
pos = (333,494);
}
);
color = 6;
layerId = "B953D09C-6DD0-450A-A78C-8C2188DD4016";
shapes = (
{
closed = 1;
nodes = (
(241,-280,o),
(441,-198,o),
(468,18,cs),
(490,194,o),
(515,351,o),
(549,485,c),
(509,513,l),
(400,495,l),
(392,446,l),
(373,357,o),
(352,250,o),
(307,182,cs),
(280,141,o),
(250,114,o),
(223,114,cs),
(204,114,o),
(202,139,o),
(202,158,cs),
(202,218,o),
(241,364,o),
(276,485,c),
(236,513,l),
(45,470,l),
(45,418,l),
(177,410,l),
(115,459,l),
(118,320,o),
(57,168,o),
(57,67,cs),
(57,20,o),
(85,-15,o),
(137,-15,cs),
(271,-15,o),
(359,140,o),
(403,254,c),
(396,282,l),
(391,198,o),
(362,79,o),
(337,-4,c),
(337,-15,o),
(338,-85,o),
(321,-99,cs),
(273,-138,o),
(164,-133,o),
(60,-86,c),
(17,-205,l)
);
}
);
width = 575;
},
{
anchors = (
{
name = bottom;
pos = (371,-101);
},
{
name = top;
pos = (295,494);
}
);
layerId = "3088057A-3552-44D5-8A67-1301E2609A93";
shapes = (
{
closed = 1;
nodes = (
(220,-282,o),
(378,-172,o),
(399,7,cs),
(421,195,o),
(440,357,o),
(474,495,c),
(454,508,l),
(388,493,l),
(379,428,l),
(350,290,o),
(321,206,o),
(289,155,cs),
(250,92,o),
(214,58,o),
(187,58,cs),
(158,58,o),
(150,84,o),
(150,112,cs),
(150,183,o),
(178,328,o),
(221,489,c),
(202,508,l),
(41,463,l),
(41,428,l),
(157,422,l),
(129,449,l),
(121,298,o),
(68,169,o),
(68,81,cs),
(68,39,o),
(89,-10,o),
(138,-10,cs),
(218,-10,o),
(303,75,o),
(367,206,c),
(356,215,l),
(340,109,o),
(337,60,o),
(328,-8,c),
(325,-73,o),
(312,-118,o),
(298,-132,cs),
(251,-181,o),
(124,-183,o),
(22,-148,c),
(-7,-217,l)
);
}
);
width = 506.8;
}
);
unicode = 121;
},
{
color = 6;
glyphname = z;
kernLeft = lc_z;
kernRight = lc_z;
layers = (
{
anchors = (
{
name = bottom;
pos = (215,0);
},
{
name = center;
pos = (250,247);
},
{
name = top;
pos = (255,494);
}
);
color = 6;
layerId = "B953D09C-6DD0-450A-A78C-8C2188DD4016";
shapes = (
{
closed = 1;
nodes = (
(104,-2,l),
(394,-15,l),
(428,17,l),
(451,167,l),
(401,182,l),
(386,148,o),
(364,98,o),
(341,53,c),
(406,104,l),
(316,76,o),
(254,79,o),
(169,79,c),
(196,49,l),
(268,171,o),
(331,271,o),
(479,459,c),
(455,505,l),
(397,490,l),
(90,513,l),
(65,474,l),
(57,323,l),
(110,320,l),
(155,455,l),
(97,385,l),
(190,411,o),
(231,407,o),
(364,408,c),
(306,436,l),
(240,320,o),
(144,180,o),
(14,23,c),
(53,-15,l)
);
}
);
width = 498;
},
{
anchors = (
{
name = bottom;
pos = (183,0);
},
{
name = center;
pos = (229,249);
},
{
name = top;
pos = (246,494);
}
);
layerId = "3088057A-3552-44D5-8A67-1301E2609A93";
shapes = (
{
closed = 1;
nodes = (
(73,4,l),
(351,-10,l),
(380,12,l),
(406,154,l),
(374,164,l),
(371,158,o),
(299,39,o),
(300,41,c),
(333,72,l),
(280,54,o),
(169,55,o),
(120,55,c),
(123,38,l),
(211,190,o),
(272,267,o),
(446,494,c),
(437,507,l),
(378,492,l),
(82,508,l),
(68,487,l),
(75,341,l),
(110,338,l),
(146,451,l),
(119,419,l),
(194,429,o),
(227,440,o),
(345,439,c),
(326,456,l),
(233,305,o),
(189,236,o),
(3,5,c),
(22,-10,l)
);
}
);
width = 456.2;
}
);
unicode = 122;
},
{
color = 6;
glyphname = saltillo;
kernLeft = saltillo;
kernRight = saltillo;
layers = (
{
color = 6;
layerId = "B953D09C-6DD0-450A-A78C-8C2188DD4016";
shapes = (
{
closed = 1;
nodes = (
(192,638,l),
(176,655,l),
(77,655,l),
(77,655,o),
(73,458,o),
(71,443,c),
(37,260,l),
(113,253,l)
);
}
);
width = 167;
},
{
layerId = "3088057A-3552-44D5-8A67-1301E2609A93";
shapes = (
{
closed = 1;
nodes = (
(167,638,l),
(151,655,l),
(83,655,l),
(83,655,o),
(74,459,o),
(72,444,c),
(39,269,l),
(88,265,l)
);
}
);
width = 141;
}
);
unicode = 42892;
},
{
color = 6;
glyphname = b.caron;
kernLeft = lc_LongtStemSinSerifCaron;
kernRight = lc_Round;
layers = (
{
anchors = (
{
name = bottom;
pos = (234,0);
},
{
name = top;
pos = (341,756);
}
);
color = 6;
layerId = "B953D09C-6DD0-450A-A78C-8C2188DD4016";
shapes = (
{
closed = 1;
nodes = (
(214,13,l),
(130,6,l),
(141,7,o),
(234,-15,o),
(274,-15,cs),
(390,-15,o),
(506,186,o),
(506,358,cs),
(506,436,o),
(483,513,o),
(426,513,cs),
(334,513,o),
(244,412,o),
(180,247,c),
(191,255,l),
(210,379,o),
(253,578,o),
(290,742,c),
(256,770,l),
(133,752,l),
(120,545,o),
(88,232,o),
(22,3,c),
(57,-15,l)
);
},
{
closed = 1;
nodes = (
(187,225,o),
(289,384,o),
(339,384,cs),
(362,384,o),
(365,358,o),
(365,323,cs),
(365,206,o),
(326,90,o),
(291,90,cs),
(243,90,o),
(171,122,o),
(131,140,c),
(180,60,l)
);
}
);
width = 536;
},
{
anchors = (
{
name = bottom;
pos = (201,0);
},
{
name = top;
pos = (273,468);
}
);
layerId = "3088057A-3552-44D5-8A67-1301E2609A93";
shapes = (
{
closed = 1;
nodes = (
(141,17,l),
(98,8,l),
(110,8,o),
(191,-10,o),
(225,-10,cs),
(315,-10,o),
(443,204,o),
(443,358,cs),
(443,459,o),
(407,506,o),
(342,506,cs),
(270,506,o),
(193,419,o),
(146,322,c),
(157,329,l),
(176,460,o),
(198,582,o),
(226,752,c),
(205,770,l),
(137,759,l),
(124,567,o),
(73,177,o),
(29,5,c),
(53,-10,l)
);
},
{
closed = 1;
nodes = (
(127,211,o),
(253,457,o),
(316,457,cs),
(342,457,o),
(362,413,o),
(362,352,cs),
(362,228,o),
(290,38,o),
(238,38,cs),
(194,38,o),
(123,74,o),
(99,87,c),
(121,56,l)
);
}
);
width = 472.2;
}
);
},
{
color = 6;
glyphname = h.caron;
kernLeft = lc_LongtStemSinSerifCaron;
kernRight = lc_Shoulder;
layers = (
{
anchors = (
{
name = bottom;
pos = (265,0);
},
{
name = center;
pos = (204,585);
},
{
name = top;
pos = (227,756);
}
);
color = 6;
layerId = "B953D09C-6DD0-450A-A78C-8C2188DD4016";
shapes = (
{
closed = 1;
nodes = (
(175,3,l),
(176,10,o),
(177,16,o),
(178,23,c),
(203,187,o),
(286,385,o),
(355,385,cs),
(374,385,o),
(376,360,o),
(376,341,cs),
(376,282,o),
(334,125,o),
(299,3,c),
(333,-15,l),
(534,27,l),
(538,80,l),
(406,90,l),
(466,40,l),
(470,179,o),
(521,332,o),
(521,431,cs),
(521,478,o),
(493,513,o),
(441,513,cs),
(349,513,o),
(257,405,o),
(193,240,c),
(194,240,l),
(213,364,o),
(254,578,o),
(291,742,c),
(257,770,l),
(136,752,l),
(131,651,o),
(89,232,o),
(23,3,c),
(60,-15,l)
);
}
);
width = 581;
},
{
anchors = (
{
name = bottom;
pos = (225,0);
},
{
name = center;
pos = (173,618);
},
{
name = top;
pos = (154,468);
}
);
layerId = "3088057A-3552-44D5-8A67-1301E2609A93";
shapes = (
{
closed = 1;
nodes = (
(111,5,l),
(116,50,o),
(118,81,o),
(126,137,c),
(179,338,o),
(287,441,o),
(330,441,cs),
(356,441,o),
(364,415,o),
(364,386,cs),
(364,290,o),
(330,131,o),
(302,5,c),
(325,-10,l),
(491,35,l),
(493,68,l),
(364,75,l),
(395,46,l),
(399,180,o),
(450,329,o),
(450,424,cs),
(450,470,o),
(428,508,o),
(378,508,cs),
(268,508,o),
(180,378,o),
(142,306,c),
(151,303,l),
(173,460,o),
(201,607,o),
(226,752,c),
(205,770,l),
(139,759,l),
(124,564,o),
(73,177,o),
(29,5,c),
(52,-10,l)
);
}
);
width = 530.4;
}
);
},
{
color = 6;
glyphname = k.caron;
kernLeft = lc_LongtStemSinSerifCaron;
kernRight = lc_k;
layers = (
{
anchors = (
{
name = bottom;
pos = (257,0);
},
{
name = top;
pos = (353,756);
}
);
color = 6;
layerId = "B953D09C-6DD0-450A-A78C-8C2188DD4016";
shapes = (
{
closed = 1;
nodes = (
(178,3,l),
(180,23,o),
(181,39,o),
(184,57,c),
(210,226,o),
(308,406,o),
(376,406,cs),
(392,406,o),
(402,395,o),
(402,378,cs),
(402,318,o),
(343,263,o),
(245,229,c),
(245,180,l),
(360,-15,l),
(529,27,l),
(533,80,l),
(402,95,l),
(491,65,l),
(442,103,o),
(385,184,o),
(349,255,c),
(315,195,l),
(468,253,o),
(541,326,o),
(541,429,cs),
(541,486,o),
(512,513,o),
(453,513,cs),
(339,513,o),
(236,373,o),
(177,197,c),
(187,198,l),
(208,337,o),
(253,572,o),
(291,742,c),
(257,770,l),
(135,752,l),
(124,532,o),
(68,157,o),
(24,3,c),
(62,-15,l)
);
}
);
width = 580;
},
{
anchors = (
{
name = bottom;
pos = (212,0);
},
{
name = top;
pos = (274,468);
}
);
layerId = "3088057A-3552-44D5-8A67-1301E2609A93";
shapes = (
{
closed = 1;
nodes = (
(111,5,l),
(111,5,o),
(123,98,o),
(129,140,c),
(172,313,o),
(271,437,o),
(346,437,cs),
(361,437,o),
(372,426,o),
(372,406,cs),
(372,337,o),
(301,271,o),
(177,233,c),
(177,197,l),
(307,-10,l),
(447,35,l),
(451,68,l),
(325,68,l),
(369,54,l),
(327,94,o),
(273,169,o),
(238,229,c),
(222,209,l),
(355,244,o),
(441,335,o),
(441,428,cs),
(441,476,o),
(419,508,o),
(377,508,cs),
(294,508,o),
(205,436,o),
(145,306,c),
(154,310,l),
(175,457,o),
(184,493,o),
(227,752,c),
(206,770,l),
(141,759,l),
(122,520,o),
(68,160,o),
(28,5,c),
(52,-10,l)
);
}
);
width = 490.9;
}
);
},
{
color = 6;
glyphname = l.caron;
kernLeft = lc_LongtStemSinSerifCaron;
kernRight = lc_LongStem;
layers = (
{
anchors = (
{
name = bottom;
pos = (154,0);
},
{
name = center;
pos = (157,382);
},
{
name = centerright;
pos = (387,410);
},
{
name = top;
pos = (138,756);
},
{
name = topright;
pos = (345,494);
}
);
color = 6;
layerId = "B953D09C-6DD0-450A-A78C-8C2188DD4016";
shapes = (
{
closed = 1;
nodes = (
(259,27,l),
(263,80,l),
(125,93,l),
(186,65,l),
(196,182,o),
(236,439,o),
(291,742,c),
(257,770,l),
(135,752,l),
(130,671,o),
(90,232,o),
(24,3,c),
(59,-15,l)
);
}
);
width = 302;
},
{
anchors = (
{
name = bottom;
pos = (142,0);
},
{
name = center;
pos = (145,386);
},
{
name = centerright;
pos = (310,414);
},
{
name = top;
pos = (91,468);
},
{
name = topright;
pos = (290,500);
}
);
layerId = "3088057A-3552-44D5-8A67-1301E2609A93";
shapes = (
{
closed = 1;
nodes = (
(207,35,l),
(210,68,l),
(88,74,l),
(116,49,l),
(148,321,o),
(190,541,o),
(227,752,c),
(206,770,l),
(141,760,l),
(127,563,o),
(72,177,o),
(28,5,c),
(52,-10,l)
);
}
);
width = 247;
}
);
},
{
color = 6;
glyphname = u.horn;
kernLeft = lc_u;
kernRight = u.horn;
layers = (
{
anchors = (
{
name = bottom;
pos = (261,0);
},
{
name = ogonek;
pos = (492,10);
},
{
name = top;
pos = (331,494);
},
{
name = topright;
pos = (403,484);
}
);
color = 6;
layerId = "B953D09C-6DD0-450A-A78C-8C2188DD4016";
shapes = (
{
closed = 1;
nodes = (
(266,-15,o),
(352,140,o),
(391,254,c),
(379,253,l),
(380,183,o),
(339,80,o),
(309,3,c),
(344,-15,l),
(545,27,l),
(549,80,l),
(409,93,l),
(469,52,l),
(472,177,o),
(507,303,o),
(553,481,c),
(514,494,l),
(403,484,l),
(397,446,l),
(380,357,o),
(340,250,o),
(297,182,cs),
(269,137,o),
(244,114,o),
(220,114,cs),
(205,114,o),
(203,137,o),
(203,155,cs),
(203,213,o),
(235,339,o),
(277,485,c),
(236,513,l),
(46,470,l),
(46,418,l),
(177,410,l),
(116,459,l),
(120,318,o),
(56,168,o),
(56,66,cs),
(56,20,o),
(83,-15,o),
(132,-15,cs)
);
}
);
width = 592;
},
{
anchors = (
{
name = bottom;
pos = (230,0);
},
{
name = ogonek;
pos = (444,10);
},
{
name = top;
pos = (300,494);
},
{
name = topright;
pos = (391,494);
}
);
layerId = "3088057A-3552-44D5-8A67-1301E2609A93";
shapes = (
{
closed = 1;
nodes = (
(214,-10,o),
(297,76,o),
(356,206,c),
(348,207,l),
(334,125,o),
(324,71,o),
(306,5,c),
(330,-10,l),
(489,35,l),
(492,68,l),
(371,72,l),
(399,47,l),
(415,238,o),
(431,305,o),
(478,495,c),
(460,500,l),
(391,494,l),
(382,428,l),
(353,302,o),
(324,220,o),
(283,156,cs),
(242,91,o),
(211,58,o),
(185,58,cs),
(157,58,o),
(151,82,o),
(151,112,cs),
(151,187,o),
(178,329,o),
(220,489,c),
(201,508,l),
(41,463,l),
(41,428,l),
(157,422,l),
(128,449,l),
(120,296,o),
(67,169,o),
(67,80,cs),
(67,35,o),
(89,-10,o),
(133,-10,cs)
);
}
);
width = 529.3;
}
);
},
{
category = Letter;
color = 6;
glyphname = c.ss02;
kernLeft = c.ss02;
kernRight = c.ss02;
layers = (
{
color = 6;
layerId = "B953D09C-6DD0-450A-A78C-8C2188DD4016";
shapes = (
{
closed = 1;
nodes = (
(402,10,o),
(457,22,o),
(511,33,c),
(521,164,l),
(457,163,l),
(457,163,o),
(452,140,o),
(451,131,c),
(449,120,o),
(422,81,o),
(411,63,c),
(483,113,l),
(415,100,o),
(389,96,o),
(343,96,cs),
(271,96,o),
(247,148,o),
(247,216,cs),
(247,346,o),
(301,429,o),
(386,429,cs),
(426,429,o),
(452,426,o),
(513,414,c),
(456,463,l),
(462,441,o),
(473,411,o),
(472,403,cs),
(468,351,l),
(534,349,l),
(562,491,l),
(512,506,o),
(458,515,o),
(396,515,cs),
(206,515,o),
(82,399,o),
(82,222,cs),
(82,95,o),
(165,10,o),
(333,10,cs)
);
},
{
closed = 1;
nodes = (
(570,0,l),
(582,60,l),
(11,60,l),
(8,0,l)
);
},
{
closed = 1;
nodes = (
(642,476,l),
(644,536,l),
(75,536,l),
(70,476,l)
);
}
);
userData = {
RMXScaler = {
height = 90;
verticalShift = 20;
};
};
width = 637;
},
{
layerId = "3088057A-3552-44D5-8A67-1301E2609A93";
shapes = (
{
closed = 1;
nodes = (
(376,10,o),
(432,23,o),
(478,33,c),
(488,143,l),
(439,142,l),
(439,142,o),
(437,118,o),
(433,111,c),
(431,97,o),
(412,65,o),
(406,51,c),
(441,83,l),
(404,73,o),
(364,64,o),
(316,64,cs),
(226,64,o),
(187,129,o),
(187,217,cs),
(187,356,o),
(263,453,o),
(368,453,cs),
(405,453,o),
(445,446,o),
(481,435,c),
(455,465,l),
(459,448,o),
(466,420,o),
(465,411,cs),
(459,373,l),
(509,371,l),
(532,486,l),
(486,497,o),
(435,507,o),
(376,507,cs),
(205,507,o),
(91,390,o),
(91,214,cs),
(91,92,o),
(163,10,o),
(310,10,cs)
);
},
{
closed = 1;
nodes = (
(551,0,l),
(562,42,l),
(2,42,l),
(1,0,l)
);
},
{
closed = 1;
nodes = (
(621,487,l),
(622,533,l),
(73,533,l),
(61,487,l)
);
}
);
userData = {
RMXScaler = {
height = 90;
verticalShift = 20;
};
};
width = 616.1;
}
);
script = latin;
subCategory = Other;
userData = {
RMXScaler = {
source = c.sc;
};
};
},
{
category = Letter;
color = 6;
glyphname = d.ss02;
kernLeft = d.ss02;
kernRight = d.ss02;
layers = (
{
color = 6;
layerId = "B953D09C-6DD0-450A-A78C-8C2188DD4016";
shapes = (
{
closed = 1;
nodes = (
(481,16,o),
(603,128,o),
(603,299,cs),
(603,419,o),
(522,508,o),
(358,508,cs),
(326,508,o),
(239,505,o),
(207,505,c),
(147,488,l),
(148,458,o),
(146,399,o),
(144,376,cs),
(116,149,ls),
(113,125,o),
(100,78,o),
(93,49,c),
(172,20,l),
(210,20,o),
(259,16,o),
(297,16,cs)
);
},
{
closed = 1;
nodes = (
(610,0,l),
(623,60,l),
(4,60,l),
(1,0,l)
);
},
{
closed = 1;
nodes = (
(249,53,o),
(259,149,o),
(261,169,cs),
(285,356,ls),
(288,381,o),
(302,464,o),
(303,475,c),
(267,431,l),
(273,432,o),
(322,437,o),
(333,437,cs),
(422,437,o),
(451,379,o),
(451,307,cs),
(451,168,o),
(390,88,o),
(287,88,cs),
(272,88,o),
(237,88,o),
(219,91,c),
(251,42,l)
);
},
{
closed = 1;
nodes = (
(675,476,l),
(677,536,l),
(68,536,l),
(63,476,l)
);
}
);
userData = {
RMXScaler = {
height = 90;
verticalShift = 20;
};
};
width = 681;
},
{
layerId = "3088057A-3552-44D5-8A67-1301E2609A93";
shapes = (
{
closed = 1;
nodes = (
(454,17,o),
(576,131,o),
(576,297,cs),
(576,419,o),
(496,500,o),
(342,500,cs),
(294,500,o),
(253,497,o),
(207,497,c),
(165,488,l),
(166,469,o),
(165,410,o),
(163,394,cs),
(127,124,ls),
(125,105,o),
(109,48,o),
(104,29,c),
(160,20,l),
(198,20,o),
(239,17,o),
(277,17,cs)
);
},
{
closed = 1;
nodes = (
(594,0,l),
(603,42,l),
(0,42,l),
(-1,0,l)
);
},
{
closed = 1;
nodes = (
(206,57,o),
(208,113,o),
(213,144,cs),
(243,374,ls),
(248,412,o),
(261,463,o),
(265,475,c),
(243,449,l),
(260,449,o),
(295,450,o),
(332,450,cs),
(441,450,o),
(486,380,o),
(486,293,cs),
(486,160,o),
(403,67,o),
(280,67,cs),
(248,67,o),
(232,68,o),
(193,69,c),
(206,43,l)
);
},
{
closed = 1;
nodes = (
(663,487,l),
(664,533,l),
(69,533,l),
(59,487,l)
);
}
);
userData = {
RMXScaler = {
height = 90;
verticalShift = 20;
};
};
width = 660.1;
}
);
script = latin;
subCategory = Other;
userData = {
RMXScaler = {
source = d.sc;
};
};
},
{
category = Letter;
color = 6;
glyphname = i.ss02;
kernLeft = i.ss02;
kernRight = i.ss02;
layers = (
{
color = 6;
layerId = "B953D09C-6DD0-450A-A78C-8C2188DD4016";
shapes = (
{
closed = 1;
nodes = (
(284,35,l),
(283,64,o),
(284,133,o),
(288,169,cs),
(312,356,ls),
(317,398,o),
(326,431,o),
(344,494,c),
(172,494,l),
(177,448,o),
(173,396,o),
(171,376,cs),
(142,149,ls),
(139,126,o),
(125,73,o),
(114,35,c)
);
},
{
closed = 1;
nodes = (
(391,0,l),
(404,60,l),
(3,60,l),
(0,0,l)
);
},
{
closed = 1;
nodes = (
(457,476,l),
(459,536,l),
(68,536,l),
(63,476,l)
);
}
);
userData = {
RMXScaler = {
height = 90;
verticalShift = 20;
};
};
width = 456;
},
{
layerId = "3088057A-3552-44D5-8A67-1301E2609A93";
shapes = (
{
closed = 1;
nodes = (
(230,35,l),
(229,71,o),
(232,111,o),
(236,144,cs),
(269,374,ls),
(274,408,o),
(289,466,o),
(296,493,c),
(192,493,l),
(192,471,o),
(190,411,o),
(188,394,cs),
(149,124,ls),
(146,105,o),
(132,57,o),
(125,35,c)
);
},
{
closed = 1;
nodes = (
(353,0,l),
(364,42,l),
(-4,42,l),
(-6,0,l)
);
},
{
closed = 1;
nodes = (
(428,487,l),
(430,533,l),
(72,533,l),
(61,487,l)
);
}
);
userData = {
RMXScaler = {
height = 90;
verticalShift = 20;
};
};
width = 419.7;
}
);
script = latin;
subCategory = Other;
userData = {
RMXScaler = {
source = i.sc;
};
};
},
{
category = Letter;
color = 6;
glyphname = l.ss02;
kernLeft = l.ss02;
kernRight = l.ss02;
layers = (
{
color = 6;
layerId = "B953D09C-6DD0-450A-A78C-8C2188DD4016";
shapes = (
{
closed = 1;
nodes = (
(436,35,l),
(466,176,l),
(406,180,l),
(404,167,o),
(397,151,o),
(396,148,cs),
(389,131,o),
(370,94,o),
(333,46,c),
(399,120,l),
(390,117,o),
(355,109,o),
(321,109,cs),
(227,109,l),
(256,34,l),
(255,57,o),
(255,130,o),
(260,169,cs),
(284,356,ls),
(289,393,o),
(297,432,o),
(315,494,c),
(144,494,l),
(148,454,o),
(145,399,o),
(143,376,cs),
(114,149,ls),
(111,126,o),
(98,77,o),
(86,35,c)
);
},
{
closed = 1;
nodes = (
(489,0,l),
(502,60,l),
(3,60,l),
(0,0,l)
);
},
{
closed = 1;
nodes = (
(533,476,l),
(536,536,l),
(68,536,l),
(62,476,l)
);
}
);
userData = {
RMXScaler = {
height = 90;
verticalShift = 20;
};
};
width = 551;
},
{
layerId = "3088057A-3552-44D5-8A67-1301E2609A93";
shapes = (
{
closed = 1;
nodes = (
(411,35,l),
(439,152,l),
(394,156,l),
(391,148,o),
(381,121,o),
(377,115,cs),
(375,110,o),
(363,91,o),
(335,48,c),
(372,90,l),
(358,87,o),
(324,82,o),
(294,82,cs),
(181,82,l),
(208,37,l),
(207,57,o),
(207,105,o),
(212,144,cs),
(242,374,ls),
(248,418,o),
(261,464,o),
(269,494,c),
(165,494,l),
(167,463,o),
(164,416,o),
(162,394,cs),
(126,124,ls),
(124,107,o),
(110,59,o),
(104,35,c)
);
},
{
closed = 1;
nodes = (
(465,0,l),
(476,42,l),
(-1,42,l),
(-2,0,l)
);
},
{
closed = 1;
nodes = (
(536,487,l),
(538,533,l),
(70,533,l),
(59,487,l)
);
}
);
userData = {
RMXScaler = {
height = 90;
verticalShift = 20;
};
};
width = 532.3;
}
);
script = latin;
subCategory = Other;
userData = {
RMXScaler = {
source = l.sc;
};
};
},
{
category = Letter;
color = 6;
glyphname = m.ss02;
kernLeft = m.ss02;
kernRight = m.ss02;
layers = (
{
color = 6;
layerId = "B953D09C-6DD0-450A-A78C-8C2188DD4016";
shapes = (
{
closed = 1;
nodes = (
(199,35,l),
(202,76,o),
(204,119,o),
(213,169,cs),
(254,394,l),
(233,392,l),
(339,100,l),
(429,100,l),
(614,391,l),
(593,394,l),
(572,149,ls),
(569,116,o),
(556,51,o),
(553,35,c),
(701,35,l),
(698,43,o),
(696,120,o),
(698,168,cs),
(706,356,ls),
(709,421,o),
(715,450,o),
(721,494,c),
(569,494,l),
(527,405,l),
(389,168,l),
(424,168,l),
(361,391,l),
(336,494,l),
(166,494,l),
(163,458,o),
(160,401,o),
(155,375,cs),
(109,149,ls),
(104,124,o),
(91,79,o),
(78,35,c)
);
},
{
closed = 1;
nodes = (
(766,0,l),
(779,60,l),
(4,60,l),
(1,0,l)
);
},
{
closed = 1;
nodes = (
(830,476,l),
(833,536,l),
(68,536,l),
(63,476,l)
);
}
);
userData = {
RMXScaler = {
height = 90;
verticalShift = 20;
};
};
width = 831;
},
{
layerId = "3088057A-3552-44D5-8A67-1301E2609A93";
shapes = (
{
closed = 1;
nodes = (
(175,35,l),
(175,50,o),
(175,110,o),
(182,144,cs),
(238,423,l),
(224,422,l),
(354,100,l),
(393,100,l),
(606,421,l),
(593,423,l),
(576,124,ls),
(576,103,o),
(559,50,o),
(555,35,c),
(665,35,l),
(662,52,o),
(658,113,o),
(658,143,cs),
(666,374,ls),
(667,410,o),
(677,448,o),
(684,494,c),
(577,494,l),
(522,389,l),
(382,165,l),
(405,165,l),
(326,380,l),
(299,494,l),
(181,494,l),
(180,454,o),
(177,410,o),
(174,394,cs),
(120,123,ls),
(116,105,o),
(98,60,o),
(88,35,c)
);
},
{
closed = 1;
nodes = (
(743,0,l),
(754,42,l),
(1,42,l),
(0,0,l)
);
},
{
closed = 1;
nodes = (
(811,487,l),
(812,533,l),
(69,533,l),
(59,487,l)
);
}
);
userData = {
RMXScaler = {
height = 90;
verticalShift = 20;
};
};
width = 807.9;
}
);
script = latin;
subCategory = Other;
userData = {
RMXScaler = {
source = m.sc;
};
};
},
{
category = Letter;
color = 6;
glyphname = v.ss02;
kernLeft = v.ss02;
kernRight = v.ss02;
layers = (
{
color = 6;
layerId = "B953D09C-6DD0-450A-A78C-8C2188DD4016";
shapes = (
{
closed = 1;
nodes = (
(380,40,l),
(563,370,ls),
(569,381,o),
(634,485,o),
(653,515,c),
(503,515,l),
(491,474,o),
(463,407,o),
(455,390,cs),
(338,163,l),
(372,163,l),
(329,378,ls),
(327,387,o),
(313,494,o),
(311,515,c),
(140,515,l),
(153,484,o),
(169,423,o),
(173,411,cs),
(271,40,l)
);
},
{
closed = 1;
nodes = (
(624,0,l),
(636,60,l),
(42,60,l),
(38,0,l)
);
},
{
closed = 1;
nodes = (
(737,476,l),
(739,536,l),
(57,536,l),
(52,476,l)
);
}
);
width = 723;
},
{
layerId = "3088057A-3552-44D5-8A67-1301E2609A93";
shapes = (
{
closed = 1;
nodes = (
(349,29,l),
(538,384,l),
(558,418,o),
(605,486,o),
(616,503,c),
(521,503,l),
(516,478,o),
(488,422,o),
(480,405,cs),
(331,120,l),
(351,120,l),
(277,381,l),
(269,406,o),
(255,480,o),
(253,503,c),
(139,503,l),
(149,481,o),
(172,434,o),
(182,401,cs),
(291,29,l)
);
},
{
closed = 1;
nodes = (
(581,0,l),
(592,42,l),
(40,42,l),
(39,0,l)
);
},
{
closed = 1;
nodes = (
(699,487,l),
(699,533,l),
(60,533,l),
(50,487,l)
);
}
);
width = 681.2;
}
);
script = latin;
subCategory = Other;
},
{
category = Letter;
color = 6;
glyphname = x.ss02;
kernLeft = x.ss02;
kernRight = x.ss02;
layers = (
{
color = 6;
layerId = "B953D09C-6DD0-450A-A78C-8C2188DD4016";
shapes = (
{
closed = 1;
nodes = (
(243,72,o),
(258,93,o),
(270,110,cs),
(344,214,l),
(287,214,l),
(342,117,ls),
(350,102,o),
(362,62,o),
(367,45,c),
(575,47,l),
(539,83,o),
(532,97,o),
(524,111,cs),
(395,334,l),
(395,235,l),
(524,411,ls),
(535,426,o),
(554,455,o),
(592,487,c),
(455,493,l),
(435,463,o),
(416,432,o),
(407,417,cs),
(346,322,l),
(400,322,l),
(362,401,ls),
(343,440,o),
(335,463,o),
(330,479,c),
(123,480,l),
(151,451,o),
(170,417,o),
(178,403,cs),
(293,198,l),
(291,298,l),
(170,133,ls),
(151,108,o),
(111,73,o),
(90,56,c),
(232,43,l)
);
},
{
closed = 1;
nodes = (
(625,0,l),
(637,60,l),
(4,60,l),
(0,0,l)
);
},
{
closed = 1;
nodes = (
(689,476,l),
(692,536,l),
(67,536,l),
(65,476,l)
);
}
);
width = 689;
},
{
layerId = "3088057A-3552-44D5-8A67-1301E2609A93";
shapes = (
{
closed = 1;
nodes = (
(195,58,o),
(218,95,o),
(228,109,cs),
(321,234,l),
(290,234,l),
(360,117,ls),
(372,95,o),
(385,51,o),
(390,37,c),
(513,42,l),
(494,60,o),
(478,92,o),
(468,109,cs),
(357,302,l),
(359,243,l),
(477,406,ls),
(488,421,o),
(538,474,o),
(561,493,c),
(469,505,l),
(452,480,o),
(423,432,o),
(408,412,cs),
(325,295,l),
(359,296,l),
(302,396,ls),
(294,409,o),
(265,485,o),
(261,496,c),
(143,494,l),
(152,481,o),
(184,419,o),
(197,398,cs),
(294,226,l),
(293,285,l),
(174,131,ls),
(155,106,o),
(109,59,o),
(90,42,c),
(181,35,l)
);
},
{
closed = 1;
nodes = (
(593,0,l),
(603,42,l),
(-2,42,l),
(-3,0,l)
);
},
{
closed = 1;
nodes = (
(663,487,l),
(665,533,l),
(68,533,l),
(60,487,l)
);
}
);
width = 657.1;
}
);
script = latin;
subCategory = Other;
},
{
color = 6;
glyphname = f_f;
kernLeft = lc_f;
kernRight = lc_f;
layers = (
{
background = {
anchors = (
{
name = bottom;
pos = (497,0);
},
{
name = top;
pos = (589,756);
}
);
shapes = (
{
ref = f;
},
{
pos = (354,0);
ref = f;
}
);
};
color = 6;
layerId = "B953D09C-6DD0-450A-A78C-8C2188DD4016";
shapes = (
{
closed = 1;
nodes = (
(543,420,l),
(484,452,l),
(463,298,o),
(430,-59,o),
(379,-102,cs),
(363,-116,o),
(325,-125,o),
(282,-126,c),
(248,-235,l),
(374,-229,o),
(483,-168,o),
(534,-49,cs),
(572,39,o),
(576,222,o),
(623,476,c),
(550,420,l),
(704,420,l),
(725,497,l),
(565,497,l),
(617,432,l),
(617,527,o),
(602,617,o),
(615,634,cs),
(630,653,o),
(701,664,o),
(769,661,c),
(797,770,l),
(640,769,o),
(528,681,o),
(501,550,cs),
(500,544,o),
(493,520,o),
(479,511,c),
(376,473,o),
(326,476,o),
(210,498,c),
(262,432,l),
(262,527,o),
(247,617,o),
(260,634,cs),
(275,653,o),
(346,664,o),
(414,661,c),
(442,770,l),
(285,769,o),
(173,681,o),
(146,550,cs),
(145,544,o),
(139,522,o),
(124,512,cs),
(108,501,o),
(75,490,o),
(43,480,c),
(37,420,l),
(188,420,l),
(129,452,l),
(108,298,o),
(75,-59,o),
(24,-102,cs),
(8,-116,o),
(-26,-125,o),
(-69,-126,c),
(-103,-235,l),
(23,-229,o),
(128,-168,o),
(179,-49,cs),
(217,39,o),
(221,222,o),
(268,476,c),
(195,420,l)
);
}
);
width = 709;
},
{
background = {
anchors = (
{
name = bottom;
pos = (399,0);
},
{
name = top;
pos = (457,468);
}
);
shapes = (
{
ref = f;
},
{
pos = (306,0);
ref = f;
}
);
};
layerId = "3088057A-3552-44D5-8A67-1301E2609A93";
shapes = (
{
closed = 1;
nodes = (
(462,426,l),
(434,451,l),
(419,239,o),
(372,-82,o),
(336,-135,cs),
(323,-152,o),
(233,-184,o),
(180,-177,c),
(161,-234,l),
(308,-234,o),
(412,-152,o),
(438,-35,cs),
(462,73,o),
(477,278,o),
(509,456,c),
(474,426,l),
(613,426,l),
(626,477,l),
(482,477,l),
(510,454,l),
(529,629,o),
(551,680,o),
(567,704,cs),
(586,732,o),
(628,747,o),
(692,745,c),
(706,802,l),
(601,794,o),
(478,732,o),
(452,574,cs),
(440,504,o),
(442,495,o),
(435,490,c),
(376,459,o),
(255,469,o),
(176,493,c),
(204,454,l),
(222,629,o),
(245,680,o),
(261,704,cs),
(279,732,o),
(322,747,o),
(385,745,c),
(400,802,l),
(295,794,o),
(172,732,o),
(146,574,cs),
(134,504,o),
(136,495,o),
(128,490,c),
(112,479,o),
(52,467,o),
(41,466,c),
(37,426,l),
(156,426,l),
(128,451,l),
(112,239,o),
(66,-82,o),
(30,-135,cs),
(18,-151,o),
(-49,-176,o),
(-97,-177,c),
(-115,-234,l),
(9,-222,o),
(107,-149,o),
(132,-35,cs),
(155,73,o),
(170,278,o),
(203,456,c),
(168,426,l)
);
}
);
width = 611;
}
);
metricLeft = f;
metricRight = f;
},
{
color = 6;
glyphname = f_f_l;
kernLeft = lc_f;
kernRight = lc_LongtStem;
layers = (
{
anchors = (
{
name = bottom;
pos = (196,0);
},
{
name = caret_1;
pos = (746,0);
},
{
name = top;
pos = (303,756);
}
);
color = 6;
layerId = "B953D09C-6DD0-450A-A78C-8C2188DD4016";
shapes = (
{
closed = 1;
nodes = (
(76,-229,o),
(181,-168,o),
(232,-49,cs),
(270,39,o),
(274,222,o),
(321,476,c),
(248,419,l),
(602,419,l),
(532,512,l),
(429,474,o),
(379,476,o),
(263,498,c),
(315,432,l),
(315,527,o),
(300,617,o),
(313,634,cs),
(328,653,o),
(399,664,o),
(467,661,c),
(495,770,l),
(338,769,o),
(226,681,o),
(199,550,cs),
(198,544,o),
(192,522,o),
(177,512,cs),
(161,501,o),
(128,490,o),
(96,480,c),
(90,419,l),
(241,419,l),
(182,452,l),
(161,298,o),
(128,-59,o),
(77,-102,cs),
(61,-116,o),
(27,-125,o),
(-16,-126,c),
(-50,-235,l)
);
},
{
closed = 1;
nodes = (
(428,-229,o),
(533,-168,o),
(584,-49,cs),
(622,39,o),
(626,222,o),
(673,476,c),
(600,419,l),
(754,419,l),
(775,498,l),
(615,498,l),
(667,432,l),
(667,527,o),
(652,617,o),
(665,634,cs),
(694,670,o),
(743,684,o),
(795,684,cs),
(826,684,o),
(857,679,o),
(886,672,c),
(1013,770,l),
(955,771,o),
(904,771,o),
(847,770,cs),
(690,768,o),
(578,681,o),
(551,550,cs),
(550,544,o),
(544,522,o),
(529,512,cs),
(513,501,o),
(480,490,o),
(448,480,c),
(442,419,l),
(593,419,l),
(534,452,l),
(513,298,o),
(480,-59,o),
(429,-102,cs),
(413,-116,o),
(379,-125,o),
(336,-126,c),
(302,-235,l)
);
},
{
closed = 1;
nodes = (
(1015,27,l),
(1019,80,l),
(881,93,l),
(942,65,l),
(952,182,o),
(992,439,o),
(1047,742,c),
(1013,770,l),
(887,692,l),
(882,611,o),
(846,232,o),
(780,3,c),
(815,-15,l)
);
}
);
width = 1052;
},
{
anchors = (
{
name = bottom;
pos = (188,0);
},
{
name = caret_1;
pos = (686,0);
},
{
name = top;
pos = (295,756);
}
);
layerId = "3088057A-3552-44D5-8A67-1301E2609A93";
shapes = (
{
closed = 1;
nodes = (
(73,-222,o),
(171,-149,o),
(196,-35,cs),
(219,73,o),
(234,278,o),
(267,456,c),
(232,426,l),
(461,426,l),
(483,476,l),
(403,462,o),
(319,453,o),
(240,477,c),
(268,454,l),
(286,629,o),
(309,680,o),
(325,704,cs),
(343,732,o),
(386,747,o),
(449,745,c),
(464,802,l),
(359,794,o),
(236,732,o),
(210,574,cs),
(198,504,o),
(200,495,o),
(192,490,c),
(176,479,o),
(116,467,o),
(105,466,c),
(101,426,l),
(220,426,l),
(192,451,l),
(176,239,o),
(130,-82,o),
(94,-135,cs),
(82,-151,o),
(15,-176,o),
(-33,-177,c),
(-51,-234,l)
);
},
{
closed = 1;
nodes = (
(370,-222,o),
(468,-149,o),
(493,-35,cs),
(516,73,o),
(531,278,o),
(564,456,c),
(529,426,l),
(668,426,l),
(680,477,l),
(537,477,l),
(565,454,l),
(583,629,o),
(601,668,o),
(618,692,cs),
(624,703,o),
(648,708,o),
(678,708,cs),
(725,708,o),
(783,697,o),
(815,683,c),
(876,770,l),
(837,777,o),
(798,782,o),
(761,780,cs),
(655,774,o),
(531,717,o),
(507,574,cs),
(495,504,o),
(497,495,o),
(489,490,c),
(473,479,o),
(413,463,o),
(402,461,c),
(398,426,l),
(517,426,l),
(489,451,l),
(473,239,o),
(427,-82,o),
(391,-135,cs),
(379,-151,o),
(312,-176,o),
(265,-177,c),
(246,-234,l)
);
},
{
closed = 1;
nodes = (
(876,35,l),
(879,68,l),
(757,74,l),
(785,49,l),
(817,321,o),
(859,541,o),
(896,752,c),
(876,770,l),
(806,712,l),
(792,515,o),
(742,177,o),
(698,5,c),
(722,-10,l)
);
}
);
width = 910.1;
}
);
},
{
color = 3;
glyphname = f_ij;
kernLeft = lc_f;
kernRight = lc_descender;
layers = (
{
anchors = (
{
name = bottom_1;
pos = (193,0);
},
{
name = bottom_2;
pos = (640,0);
},
{
name = caret_1;
pos = (447,0);
},
{
name = top_1;
pos = (286,756);
},
{
name = top_2;
pos = (733,756);
}
);
color = 3;
layerId = "B953D09C-6DD0-450A-A78C-8C2188DD4016";
shapes = (
{
closed = 1;
nodes = (
(23,-229,o),
(128,-168,o),
(179,-49,cs),
(217,39,o),
(221,222,o),
(268,476,c),
(195,419,l),
(342,418,l),
(536,513,l),
(346,470,o),
(307,465,o),
(210,498,c),
(262,432,l),
(262,527,o),
(247,617,o),
(260,634,cs),
(292,675,o),
(355,689,o),
(415,683,cs),
(478,678,o),
(538,652,o),
(559,618,c),
(559,697,l),
(519,692,o),
(499,674,o),
(495,643,cs),
(490,601,o),
(508,574,o),
(548,574,cs),
(595,574,o),
(631,613,o),
(631,660,cs),
(631,742,o),
(577,770,o),
(459,770,cs),
(279,770,o),
(173,681,o),
(146,550,cs),
(145,544,o),
(139,522,o),
(124,512,cs),
(108,501,o),
(75,490,o),
(43,480,c),
(37,419,l),
(188,419,l),
(129,452,l),
(108,298,o),
(75,-59,o),
(24,-102,cs),
(8,-116,o),
(-26,-125,o),
(-69,-126,c),
(-103,-235,l)
);
},
{
closed = 1;
nodes = (
(648,-177,o),
(778,-56,o),
(783,-14,cs),
(812,214,o),
(827,309,o),
(868,485,c),
(829,513,l),
(639,470,l),
(639,418,l),
(771,410,l),
(711,455,l),
(707,314,o),
(674,144,o),
(645,15,cs),
(641,-2,o),
(589,-117,o),
(542,-201,c),
(589,-235,l)
);
},
{
closed = 1;
nodes = (
(570,-15,o),
(662,133,o),
(708,251,c),
(706,356,l),
(664,236,o),
(584,111,o),
(524,111,cs),
(504,111,o),
(501,136,o),
(501,155,cs),
(501,214,o),
(538,360,o),
(576,485,c),
(536,513,l),
(342,470,l),
(342,418,l),
(477,410,l),
(416,459,l),
(419,320,o),
(358,166,o),
(358,65,cs),
(358,14,o),
(389,-15,o),
(440,-15,cs)
);
},
{
pos = (649,19);
ref = dotaccentcomb;
}
);
width = 894;
},
{
anchors = (
{
name = bottom_1;
pos = (163,0);
},
{
name = bottom_2;
pos = (552,0);
},
{
name = caret_1;
pos = (389,0);
},
{
name = top_1;
pos = (256,756);
},
{
name = top_2;
pos = (645,756);
}
);
layerId = "3088057A-3552-44D5-8A67-1301E2609A93";
shapes = (
{
closed = 1;
nodes = (
(9,-222,o),
(107,-149,o),
(132,-35,cs),
(155,73,o),
(170,278,o),
(203,456,c),
(168,426,l),
(291,426,l),
(459,508,l),
(297,463,o),
(267,461,o),
(176,484,c),
(204,454,l),
(222,629,o),
(239,669,o),
(257,692,cs),
(266,704,o),
(290,710,o),
(322,711,cs),
(398,711,o),
(503,681,o),
(491,642,c),
(499,721,l),
(465,716,o),
(440,680,o),
(440,643,cs),
(441,612,o),
(457,592,o),
(489,592,cs),
(535,592,o),
(556,637,o),
(556,675,cs),
(556,766,o),
(477,780,o),
(407,780,cs),
(301,780,o),
(169,716,o),
(146,574,cs),
(134,504,o),
(136,495,o),
(128,490,c),
(112,479,o),
(52,465,o),
(41,464,c),
(37,426,l),
(156,426,l),
(128,451,l),
(112,239,o),
(66,-82,o),
(30,-135,cs),
(18,-151,o),
(-49,-176,o),
(-97,-177,c),
(-115,-234,l)
);
},
{
closed = 1;
nodes = (
(563,-166,o),
(649,-59,o),
(660,-9,cs),
(703,212,o),
(720,392,o),
(748,489,c),
(726,508,l),
(568,463,l),
(570,426,l),
(681,420,l),
(655,445,l),
(643,306,o),
(623,132,o),
(591,16,cs),
(577,-33,o),
(526,-137,o),
(483,-209,c),
(511,-234,l)
);
},
{
closed = 1;
nodes = (
(477,-10,o),
(565,70,o),
(637,203,c),
(647,344,l),
(584,166,o),
(494,59,o),
(448,59,cs),
(416,59,o),
(406,83,o),
(406,114,cs),
(406,182,o),
(431,323,o),
(477,489,c),
(459,508,l),
(291,463,l),
(291,426,l),
(414,420,l),
(389,450,l),
(381,302,o),
(326,169,o),
(326,83,cs),
(326,38,o),
(349,-10,o),
(402,-10,cs)
);
},
{
alignment = -1;
pos = (553,31);
ref = dotaccentcomb;
}
);
width = 777;
}
);
metricLeft = "=f";
metricRight = "=j";
},
